{"glyphs":{"0":{"ha":904,"x_min":60,"x_max":844,"o":"m 453 -25 q 225 30 311 -25 q 99 188 139 85 q 60 436 60 292 q 98 692 60 586 q 222 853 136 797 q 453 908 308 908 q 683 853 597 908 q 806 692 768 797 q 844 436 844 586 q 806 188 844 292 q 681 30 767 85 q 453 -25 594 -25 m 453 104 q 639 192 586 104 q 692 436 692 281 q 640 690 692 601 q 453 779 589 779 q 265 690 317 779 q 213 436 213 601 q 265 192 213 281 q 453 104 318 104 z "},"1":{"ha":443,"x_min":60,"x_max":354,"o":"m 204 0 l 204 761 l 60 736 l 60 863 l 354 908 l 354 0 l 204 0 z "},"2":{"ha":707,"x_min":60,"x_max":647,"o":"m 60 0 l 60 75 q 160 228 96 160 q 299 360 225 296 q 391 442 354 408 q 449 504 428 476 q 478 562 469 532 q 486 632 486 592 q 444 742 486 704 q 306 779 403 779 q 198 768 253 779 q 93 738 143 757 l 93 871 q 208 898 142 888 q 335 908 275 908 q 561 835 485 908 q 638 633 638 761 q 615 520 638 569 q 554 427 593 471 q 464 338 515 383 q 344 230 400 282 q 253 117 288 178 l 647 117 l 647 0 l 60 0 z "},"3":{"ha":721,"x_min":60,"x_max":660,"o":"m 314 -14 q 225 -9 274 -14 q 133 6 176 -4 q 60 26 89 15 l 60 158 q 174 126 115 136 q 293 115 233 115 q 454 147 401 115 q 507 260 507 179 q 459 364 507 332 q 322 396 411 396 l 188 396 l 200 508 l 313 508 q 489 647 489 508 q 442 747 489 715 q 293 779 396 779 q 178 768 236 779 q 76 738 121 757 l 76 867 q 185 896 118 883 q 317 908 251 908 q 560 839 481 908 q 640 661 640 769 q 608 536 640 594 q 506 453 575 478 q 623 378 586 432 q 660 250 660 324 q 565 51 660 115 q 314 -14 471 -14 z "},"4":{"ha":754,"x_min":32,"x_max":721,"o":"m 479 0 l 479 196 l 32 196 l 32 303 l 497 894 l 629 894 l 629 318 l 721 318 l 721 196 l 629 196 l 629 0 l 479 0 m 179 314 l 503 314 l 503 722 l 179 314 z "},"5":{"ha":715,"x_min":60,"x_max":654,"o":"m 313 -14 q 182 -4 253 -14 q 64 26 111 6 l 64 158 q 175 126 113 138 q 293 115 238 115 q 451 152 400 115 q 501 274 501 189 q 465 389 501 351 q 324 426 429 426 l 60 426 l 60 518 l 83 894 l 592 894 l 579 778 l 211 778 l 196 543 l 347 543 q 581 475 507 543 q 654 271 654 407 q 568 63 654 139 q 313 -14 482 -14 z "},"6":{"ha":796,"x_min":60,"x_max":736,"o":"m 399 -14 q 145 69 231 -14 q 60 332 60 153 l 60 533 q 106 729 60 644 q 236 861 151 814 q 438 908 321 908 q 556 900 506 908 q 650 876 607 892 l 650 747 q 558 771 607 763 q 447 779 508 779 q 263 720 322 779 q 203 563 203 661 l 203 507 q 315 560 251 543 q 429 578 378 578 q 661 501 586 578 q 736 285 736 425 q 654 69 736 151 q 399 -14 572 -14 m 400 100 q 550 149 500 100 q 600 279 600 197 q 559 413 600 365 q 407 461 518 461 q 298 442 351 461 q 203 393 244 424 l 203 297 q 400 100 203 100 z "},"7":{"ha":692,"x_min":46,"x_max":644,"o":"m 153 0 l 482 778 l 46 778 l 46 894 l 644 894 l 644 797 l 307 0 l 153 0 z "},"8":{"ha":819,"x_min":60,"x_max":758,"o":"m 410 -14 q 60 242 60 -14 q 101 378 60 318 q 218 463 142 438 q 117 541 149 489 q 85 653 85 593 q 165 838 85 768 q 410 908 244 908 q 657 838 579 908 q 735 653 735 768 q 703 534 735 589 q 594 450 672 479 q 719 373 681 425 q 758 242 758 321 q 410 -14 758 -14 m 447 497 q 559 550 524 517 q 594 650 594 583 q 410 789 594 789 q 272 756 319 789 q 225 650 225 722 q 349 517 225 540 l 447 497 m 410 104 q 566 138 514 104 q 618 244 618 172 q 581 340 618 310 q 468 385 544 369 l 354 408 q 242 358 283 393 q 200 247 200 322 q 253 138 200 172 q 410 104 307 104 z "},"9":{"ha":796,"x_min":60,"x_max":736,"o":"m 358 -14 q 240 -6 290 -14 q 146 17 190 3 l 146 147 q 238 122 189 131 q 349 114 288 114 q 533 174 474 114 q 593 332 593 233 l 593 388 q 482 335 544 353 q 367 317 419 317 q 135 393 211 317 q 60 610 60 469 q 142 825 60 742 q 397 908 224 908 q 651 824 565 908 q 736 563 736 740 l 736 361 q 690 165 736 250 q 560 33 644 81 q 358 -14 475 -14 m 389 432 q 499 451 446 432 q 593 500 551 471 l 593 597 q 396 793 593 793 q 246 744 296 793 q 196 614 196 696 q 237 481 196 529 q 389 432 278 432 z "},"A":{"ha":972,"x_min":61,"x_max":911,"o":"m 61 0 l 403 894 l 572 894 l 911 0 l 756 0 l 667 231 l 307 231 l 218 0 l 61 0 m 331 347 l 642 347 l 486 757 l 331 347 z "},"Á":{"ha":972,"x_min":61,"x_max":911,"o":"m 431 956 l 535 1201 l 668 1201 l 551 956 l 431 956 m 61 0 l 403 894 l 572 894 l 911 0 l 756 0 l 667 231 l 307 231 l 218 0 l 61 0 m 331 347 l 642 347 l 486 757 l 331 347 z "},"Ă":{"ha":972,"x_min":61,"x_max":911,"o":"m 485 956 q 341 1009 393 956 q 289 1151 289 1063 l 392 1151 q 416 1075 392 1104 q 485 1046 440 1046 q 557 1075 532 1046 q 582 1151 582 1104 l 685 1151 q 631 1009 685 1063 q 485 956 578 956 m 61 0 l 403 894 l 572 894 l 911 0 l 756 0 l 667 231 l 307 231 l 218 0 l 61 0 m 331 347 l 642 347 l 486 757 l 331 347 z "},"Ắ":{"ha":972,"x_min":61,"x_max":911,"o":"m 421 1118 l 510 1303 l 626 1303 l 528 1118 l 421 1118 m 486 956 q 377 976 426 956 q 299 1042 328 996 q 269 1161 269 1088 l 361 1161 q 395 1069 361 1100 q 486 1038 429 1038 q 577 1069 543 1038 q 611 1161 611 1100 l 703 1161 q 674 1042 703 1088 q 596 976 644 996 q 486 956 547 956 m 61 0 l 403 894 l 572 894 l 911 0 l 756 0 l 667 231 l 307 231 l 218 0 l 61 0 m 331 347 l 642 347 l 486 757 l 331 347 z "},"Ặ":{"ha":972,"x_min":61,"x_max":911,"o":"m 483 956 q 340 1009 392 956 q 288 1151 288 1063 l 390 1151 q 415 1075 390 1104 q 483 1046 439 1046 q 556 1075 531 1046 q 581 1151 581 1104 l 683 1151 q 630 1009 683 1063 q 483 956 576 956 m 61 0 l 403 894 l 572 894 l 911 0 l 756 0 l 667 231 l 307 231 l 218 0 l 61 0 m 331 347 l 642 347 l 486 757 l 331 347 m 421 -240 l 421 -118 l 551 -118 l 551 -240 l 421 -240 z "},"Ằ":{"ha":972,"x_min":61,"x_max":911,"o":"m 444 1118 l 346 1303 l 463 1303 l 551 1118 l 444 1118 m 486 956 q 377 976 426 956 q 299 1042 328 996 q 269 1161 269 1088 l 361 1161 q 395 1069 361 1100 q 486 1038 429 1038 q 577 1069 543 1038 q 611 1161 611 1100 l 703 1161 q 674 1042 703 1088 q 596 976 644 996 q 486 956 547 956 m 61 0 l 403 894 l 572 894 l 911 0 l 756 0 l 667 231 l 307 231 l 218 0 l 61 0 m 331 347 l 642 347 l 486 757 l 331 347 z "},"Ẳ":{"ha":972,"x_min":61,"x_max":911,"o":"m 425 1125 l 425 1207 q 515 1225 492 1210 q 538 1267 538 1240 q 519 1303 538 1294 q 465 1313 501 1313 q 424 1308 443 1313 q 389 1296 406 1303 l 389 1367 q 440 1378 410 1374 q 501 1383 469 1383 q 603 1354 567 1383 q 639 1276 639 1325 q 614 1206 639 1231 q 531 1171 589 1182 l 531 1125 l 425 1125 m 486 956 q 377 976 426 956 q 299 1042 328 996 q 269 1161 269 1088 l 361 1161 q 395 1069 361 1100 q 486 1038 429 1038 q 577 1069 543 1038 q 611 1161 611 1100 l 703 1161 q 674 1042 703 1088 q 596 976 644 996 q 486 956 547 956 m 61 0 l 403 894 l 572 894 l 911 0 l 756 0 l 667 231 l 307 231 l 218 0 l 61 0 m 331 347 l 642 347 l 486 757 l 331 347 z "},"Ẵ":{"ha":972,"x_min":61,"x_max":911,"o":"m 594 1190 q 523 1203 558 1190 q 455 1229 488 1217 q 390 1242 422 1242 q 327 1231 356 1242 q 275 1194 299 1219 l 275 1293 q 324 1322 293 1311 q 389 1333 356 1333 q 461 1320 428 1333 q 526 1294 494 1307 q 593 1281 558 1281 q 700 1331 665 1281 l 700 1231 q 658 1201 686 1213 q 594 1190 631 1190 m 486 956 q 377 976 426 956 q 299 1042 328 996 q 269 1161 269 1088 l 361 1161 q 395 1069 361 1100 q 486 1038 429 1038 q 577 1069 543 1038 q 611 1161 611 1100 l 703 1161 q 674 1042 703 1088 q 596 976 644 996 q 486 956 547 956 m 61 0 l 403 894 l 572 894 l 911 0 l 756 0 l 667 231 l 307 231 l 218 0 l 61 0 m 331 347 l 642 347 l 486 757 l 331 347 z "},"Ǎ":{"ha":972,"x_min":61,"x_max":911,"o":"m 432 954 l 258 1178 l 382 1178 l 485 1038 l 590 1178 l 711 1178 l 538 954 l 432 954 m 61 0 l 403 894 l 572 894 l 911 0 l 756 0 l 667 231 l 307 231 l 218 0 l 61 0 m 331 347 l 642 347 l 486 757 l 331 347 z "},"Â":{"ha":972,"x_min":61,"x_max":911,"o":"m 258 954 l 432 1178 l 538 1178 l 711 954 l 590 954 l 485 1094 l 382 954 l 258 954 m 61 0 l 403 894 l 572 894 l 911 0 l 756 0 l 667 231 l 307 231 l 218 0 l 61 0 m 331 347 l 642 347 l 486 757 l 331 347 z "},"Ấ":{"ha":972,"x_min":61,"x_max":911,"o":"m 606 1111 l 694 1296 l 810 1296 l 713 1111 l 606 1111 m 256 954 l 421 1131 l 538 1131 l 703 954 l 579 954 l 479 1068 l 382 954 l 256 954 m 61 0 l 403 894 l 572 894 l 911 0 l 756 0 l 667 231 l 307 231 l 218 0 l 61 0 m 331 347 l 642 347 l 486 757 l 331 347 z "},"Ậ":{"ha":972,"x_min":61,"x_max":911,"o":"m 258 954 l 432 1178 l 538 1178 l 711 954 l 590 954 l 485 1094 l 382 954 l 258 954 m 61 0 l 403 894 l 572 894 l 911 0 l 756 0 l 667 231 l 307 231 l 218 0 l 61 0 m 331 347 l 642 347 l 486 757 l 331 347 m 421 -240 l 421 -118 l 551 -118 l 551 -240 l 421 -240 z "},"Ầ":{"ha":972,"x_min":61,"x_max":911,"o":"m 250 1111 l 151 1296 l 268 1296 l 357 1111 l 250 1111 m 260 954 l 424 1131 l 542 1131 l 706 954 l 581 954 l 482 1068 l 383 954 l 260 954 m 61 0 l 403 894 l 572 894 l 911 0 l 756 0 l 667 231 l 307 231 l 218 0 l 61 0 m 331 347 l 642 347 l 486 757 l 331 347 z "},"Ẩ":{"ha":972,"x_min":61,"x_max":911,"o":"m 622 1082 l 622 1174 q 709 1190 689 1176 q 729 1228 729 1203 q 664 1271 729 1271 q 622 1266 642 1271 q 586 1254 603 1261 l 586 1328 q 633 1340 607 1335 q 693 1344 658 1344 q 799 1315 761 1344 q 836 1236 836 1285 q 811 1164 836 1190 q 729 1129 786 1138 l 729 1082 l 622 1082 m 261 954 l 425 1131 l 543 1131 l 707 954 l 583 954 l 485 1068 l 386 954 l 261 954 m 61 0 l 403 894 l 572 894 l 911 0 l 756 0 l 667 231 l 307 231 l 218 0 l 61 0 m 331 347 l 642 347 l 486 757 l 331 347 z "},"Ẫ":{"ha":972,"x_min":61,"x_max":911,"o":"m 600 1142 q 528 1155 564 1142 q 460 1181 493 1168 q 396 1194 428 1194 q 333 1183 361 1194 q 281 1146 304 1172 l 281 1244 q 330 1274 299 1263 q 394 1285 361 1285 q 467 1272 433 1285 q 532 1247 500 1260 q 599 1233 564 1233 q 706 1282 669 1233 l 706 1183 q 664 1153 692 1165 q 600 1142 636 1142 m 263 954 l 426 1131 l 544 1131 l 708 954 l 585 954 l 486 1068 l 388 954 l 263 954 m 61 0 l 403 894 l 572 894 l 911 0 l 756 0 l 667 231 l 307 231 l 218 0 l 61 0 m 331 347 l 642 347 l 486 757 l 331 347 z "},"Ä":{"ha":972,"x_min":61,"x_max":911,"o":"m 292 988 l 292 1107 l 419 1107 l 419 988 l 292 988 m 550 988 l 550 1107 l 678 1107 l 678 988 l 550 988 m 61 0 l 403 894 l 572 894 l 911 0 l 756 0 l 667 231 l 307 231 l 218 0 l 61 0 m 331 347 l 642 347 l 486 757 l 331 347 z "},"Ạ":{"ha":972,"x_min":61,"x_max":911,"o":"m 61 0 l 403 894 l 572 894 l 911 0 l 756 0 l 667 231 l 307 231 l 218 0 l 61 0 m 331 347 l 642 347 l 486 757 l 331 347 m 421 -240 l 421 -118 l 551 -118 l 551 -240 l 421 -240 z "},"À":{"ha":972,"x_min":61,"x_max":911,"o":"m 414 956 l 299 1201 l 431 1201 l 536 956 l 414 956 m 61 0 l 403 894 l 572 894 l 911 0 l 756 0 l 667 231 l 307 231 l 218 0 l 61 0 m 331 347 l 642 347 l 486 757 l 331 347 z "},"Ả":{"ha":972,"x_min":61,"x_max":911,"o":"m 428 956 l 428 1069 q 531 1089 507 1074 q 556 1139 556 1104 q 453 1197 556 1197 q 407 1192 432 1197 q 364 1181 382 1188 l 364 1263 q 423 1276 388 1271 q 493 1281 458 1281 q 624 1246 579 1281 q 668 1151 668 1211 q 641 1063 668 1094 q 546 1021 614 1032 l 546 956 l 428 956 m 61 0 l 403 894 l 572 894 l 911 0 l 756 0 l 667 231 l 307 231 l 218 0 l 61 0 m 331 347 l 642 347 l 486 757 l 331 347 z "},"Ā":{"ha":972,"x_min":61,"x_max":911,"o":"m 278 985 l 278 1083 l 692 1083 l 692 985 l 278 985 m 61 0 l 403 894 l 572 894 l 911 0 l 756 0 l 667 231 l 307 231 l 218 0 l 61 0 m 331 347 l 642 347 l 486 757 l 331 347 z "},"Ą":{"ha":972,"x_min":61,"x_max":924,"o":"m 61 0 l 403 894 l 572 894 l 911 0 l 885 0 q 815 -74 840 -35 q 789 -156 789 -114 q 806 -199 789 -187 q 854 -211 824 -211 q 892 -207 872 -211 q 924 -196 911 -203 l 924 -287 q 876 -301 906 -296 q 817 -306 847 -306 q 713 -276 757 -306 q 668 -182 668 -246 q 696 -81 668 -129 q 771 0 724 -32 l 756 0 l 667 231 l 307 231 l 218 0 l 61 0 m 331 347 l 642 347 l 486 757 l 331 347 z "},"Å":{"ha":972,"x_min":61,"x_max":911,"o":"m 61 0 l 390 863 q 324 992 324 907 q 368 1104 324 1058 q 485 1150 413 1150 q 604 1104 560 1150 q 649 992 649 1058 q 583 864 649 908 l 911 0 l 756 0 l 667 231 l 307 231 l 218 0 l 61 0 m 485 910 q 547 933 524 910 q 569 992 569 957 q 547 1050 569 1026 q 485 1074 524 1074 q 426 1050 449 1074 q 403 992 403 1026 q 426 933 403 957 q 485 910 449 910 m 331 347 l 642 347 l 486 757 l 331 347 z "},"Ǻ":{"ha":972,"x_min":61,"x_max":911,"o":"m 407 1185 l 511 1431 l 644 1431 l 528 1185 l 407 1185 m 61 0 l 390 863 q 324 992 324 907 q 368 1104 324 1058 q 485 1150 413 1150 q 604 1104 560 1150 q 649 992 649 1058 q 583 864 649 908 l 911 0 l 756 0 l 667 231 l 307 231 l 218 0 l 61 0 m 485 910 q 547 933 524 910 q 569 992 569 957 q 547 1050 569 1026 q 485 1074 524 1074 q 426 1050 449 1074 q 403 992 403 1026 q 426 933 403 957 q 485 910 449 910 m 331 347 l 642 347 l 486 757 l 331 347 z "},"Ã":{"ha":972,"x_min":61,"x_max":911,"o":"m 597 965 q 523 979 560 965 q 452 1006 486 993 q 386 1019 418 1019 q 319 1008 350 1019 q 265 969 289 997 l 265 1081 q 316 1111 283 1100 q 383 1122 349 1122 q 458 1109 424 1122 q 526 1082 493 1096 q 596 1068 560 1068 q 707 1119 668 1068 l 707 1008 q 664 978 693 990 q 597 965 635 965 m 61 0 l 403 894 l 572 894 l 911 0 l 756 0 l 667 231 l 307 231 l 218 0 l 61 0 m 331 347 l 642 347 l 486 757 l 331 347 z "},"Æ":{"ha":1174,"x_min":61,"x_max":1114,"o":"m 61 0 l 403 894 l 1114 894 l 1114 776 l 715 776 l 715 506 l 1063 506 l 1063 389 l 715 389 l 715 117 l 1114 117 l 1114 0 l 565 0 l 565 232 l 313 232 l 224 0 l 61 0 m 351 349 l 565 349 l 565 779 l 511 779 l 351 349 z "},"Ǽ":{"ha":1174,"x_min":61,"x_max":1114,"o":"m 593 956 l 697 1201 l 831 1201 l 714 956 l 593 956 m 61 0 l 403 894 l 1114 894 l 1114 776 l 715 776 l 715 506 l 1063 506 l 1063 389 l 715 389 l 715 117 l 1114 117 l 1114 0 l 565 0 l 565 232 l 313 232 l 224 0 l 61 0 m 351 349 l 565 349 l 565 779 l 511 779 l 351 349 z "},"B":{"ha":876,"x_min":88,"x_max":817,"o":"m 88 0 l 88 894 l 521 894 q 718 832 654 894 q 782 656 782 769 q 753 534 782 583 q 675 460 724 485 q 778 395 740 442 q 817 258 817 349 q 747 64 817 128 q 540 0 676 0 l 88 0 m 239 513 l 500 513 q 609 548 576 513 q 642 643 642 583 q 608 747 642 713 q 483 781 575 781 l 239 781 l 239 513 m 239 111 l 508 111 q 626 145 589 111 q 664 264 664 179 q 627 367 664 333 q 493 401 590 401 l 239 401 l 239 111 z "},"C":{"ha":829,"x_min":60,"x_max":769,"o":"m 507 -14 q 173 107 286 -14 q 60 433 60 228 q 108 687 60 581 q 254 851 156 793 q 506 908 353 908 q 648 897 583 908 q 768 865 713 885 l 768 733 q 649 767 713 756 q 517 779 586 779 q 281 690 350 779 q 213 433 213 601 q 288 195 213 276 q 519 114 363 114 q 648 124 583 114 q 769 157 713 135 l 769 24 q 649 -4 714 6 q 507 -14 585 -14 z "},"Ć":{"ha":829,"x_min":60,"x_max":769,"o":"m 419 956 l 524 1201 l 657 1201 l 540 956 l 419 956 m 507 -14 q 173 107 286 -14 q 60 433 60 228 q 108 687 60 581 q 254 851 156 793 q 506 908 353 908 q 648 897 583 908 q 768 865 713 885 l 768 733 q 649 767 713 756 q 517 779 586 779 q 281 690 350 779 q 213 433 213 601 q 288 195 213 276 q 519 114 363 114 q 648 124 583 114 q 769 157 713 135 l 769 24 q 649 -4 714 6 q 507 -14 585 -14 z "},"Č":{"ha":829,"x_min":60,"x_max":769,"o":"m 453 954 l 279 1178 l 403 1178 l 506 1038 l 611 1178 l 732 1178 l 558 954 l 453 954 m 507 -14 q 173 107 286 -14 q 60 433 60 228 q 108 687 60 581 q 254 851 156 793 q 506 908 353 908 q 648 897 583 908 q 768 865 713 885 l 768 733 q 649 767 713 756 q 517 779 586 779 q 281 690 350 779 q 213 433 213 601 q 288 195 213 276 q 519 114 363 114 q 648 124 583 114 q 769 157 713 135 l 769 24 q 649 -4 714 6 q 507 -14 585 -14 z "},"Ç":{"ha":829,"x_min":60,"x_max":769,"o":"m 467 -333 q 413 -330 444 -333 q 365 -322 381 -326 l 365 -240 q 451 -251 406 -251 q 542 -240 514 -251 q 569 -189 569 -228 q 540 -141 569 -150 q 457 -132 511 -132 l 401 -132 l 439 -11 q 156 126 251 8 q 60 433 60 244 q 108 687 60 581 q 254 851 156 793 q 506 908 353 908 q 648 897 583 908 q 768 865 713 885 l 768 733 q 649 767 713 756 q 517 779 586 779 q 281 690 350 779 q 213 433 213 601 q 288 195 213 276 q 519 114 363 114 q 648 124 583 114 q 769 157 713 135 l 769 24 q 663 -1 719 8 q 539 -14 606 -11 l 521 -65 q 634 -99 596 -65 q 672 -190 672 -132 q 623 -296 672 -258 q 467 -333 574 -333 z "},"Ĉ":{"ha":829,"x_min":60,"x_max":769,"o":"m 240 954 l 414 1178 l 519 1178 l 693 954 l 572 954 l 467 1094 l 364 954 l 240 954 m 507 -14 q 173 107 286 -14 q 60 433 60 228 q 108 687 60 581 q 254 851 156 793 q 506 908 353 908 q 648 897 583 908 q 768 865 713 885 l 768 733 q 649 767 713 756 q 517 779 586 779 q 281 690 350 779 q 213 433 213 601 q 288 195 213 276 q 519 114 363 114 q 648 124 583 114 q 769 157 713 135 l 769 24 q 649 -4 714 6 q 507 -14 585 -14 z "},"Ċ":{"ha":829,"x_min":60,"x_max":769,"o":"m 428 988 l 428 1110 l 556 1110 l 556 988 l 428 988 m 507 -14 q 173 107 286 -14 q 60 433 60 228 q 108 687 60 581 q 254 851 156 793 q 506 908 353 908 q 648 897 583 908 q 768 865 713 885 l 768 733 q 649 767 713 756 q 517 779 586 779 q 281 690 350 779 q 213 433 213 601 q 288 195 213 276 q 519 114 363 114 q 648 124 583 114 q 769 157 713 135 l 769 24 q 649 -4 714 6 q 507 -14 585 -14 z "},"D":{"ha":901,"x_min":88,"x_max":840,"o":"m 88 0 l 88 894 l 450 894 q 744 790 649 894 q 840 442 840 685 q 746 106 840 213 q 450 0 651 0 l 88 0 m 239 117 l 426 117 q 572 142 514 117 q 660 239 631 168 q 689 442 689 310 q 663 646 689 574 q 578 747 636 718 q 426 776 521 776 l 239 776 l 239 117 z "},"Ð":{"ha":957,"x_min":46,"x_max":896,"o":"m 143 0 l 143 381 l 46 381 l 46 497 l 143 497 l 143 894 l 506 894 q 800 790 704 894 q 896 442 896 685 q 801 106 896 213 q 506 0 707 0 l 143 0 m 294 117 l 482 117 q 628 142 569 117 q 715 239 686 168 q 744 442 744 310 q 718 646 744 574 q 634 747 692 718 q 482 776 576 776 l 294 776 l 294 497 l 524 497 l 524 381 l 294 381 l 294 117 z "},"Ď":{"ha":901,"x_min":88,"x_max":840,"o":"m 367 969 l 193 1193 l 317 1193 l 419 1053 l 525 1193 l 646 1193 l 472 969 l 367 969 m 88 0 l 88 894 l 450 894 q 744 790 649 894 q 840 442 840 685 q 746 106 840 213 q 450 0 651 0 l 88 0 m 239 117 l 426 117 q 572 142 514 117 q 660 239 631 168 q 689 442 689 310 q 663 646 689 574 q 578 747 636 718 q 426 776 521 776 l 239 776 l 239 117 z "},"Đ":{"ha":943,"x_min":32,"x_max":882,"o":"m 129 0 l 129 381 l 32 381 l 32 497 l 129 497 l 129 894 l 492 894 q 786 790 690 894 q 882 442 882 685 q 788 106 882 213 q 492 0 693 0 l 129 0 m 281 117 l 468 117 q 614 142 556 117 q 701 239 672 168 q 731 442 731 310 q 704 646 731 574 q 620 747 678 718 q 468 776 563 776 l 281 776 l 281 497 l 510 497 l 510 381 l 281 381 l 281 117 z "},"Ḍ":{"ha":901,"x_min":88,"x_max":840,"o":"m 88 0 l 88 894 l 450 894 q 744 790 649 894 q 840 442 840 685 q 746 106 840 213 q 450 0 651 0 l 88 0 m 239 117 l 426 117 q 572 142 514 117 q 660 239 631 168 q 689 442 689 310 q 663 646 689 574 q 578 747 636 718 q 426 776 521 776 l 239 776 l 239 117 m 376 -240 l 376 -118 l 507 -118 l 507 -240 l 376 -240 z "},"Ḏ":{"ha":901,"x_min":88,"x_max":840,"o":"m 88 0 l 88 894 l 450 894 q 744 790 649 894 q 840 442 840 685 q 746 106 840 213 q 450 0 651 0 l 88 0 m 239 117 l 426 117 q 572 142 514 117 q 660 239 631 168 q 689 442 689 310 q 663 646 689 574 q 578 747 636 718 q 426 776 521 776 l 239 776 l 239 117 m 182 -228 l 182 -129 l 596 -129 l 596 -228 l 182 -228 z "},"E":{"ha":764,"x_min":88,"x_max":711,"o":"m 88 0 l 88 894 l 711 894 l 711 776 l 239 776 l 239 506 l 660 506 l 660 389 l 239 389 l 239 117 l 711 117 l 711 0 l 88 0 z "},"É":{"ha":764,"x_min":88,"x_max":711,"o":"m 319 956 l 424 1201 l 557 1201 l 440 956 l 319 956 m 88 0 l 88 894 l 711 894 l 711 776 l 239 776 l 239 506 l 660 506 l 660 389 l 239 389 l 239 117 l 711 117 l 711 0 l 88 0 z "},"Ĕ":{"ha":764,"x_min":88,"x_max":711,"o":"m 401 956 q 258 1009 310 956 q 206 1151 206 1063 l 308 1151 q 333 1075 308 1104 q 401 1046 357 1046 q 474 1075 449 1046 q 499 1151 499 1104 l 601 1151 q 548 1009 601 1063 q 401 956 494 956 m 88 0 l 88 894 l 711 894 l 711 776 l 239 776 l 239 506 l 660 506 l 660 389 l 239 389 l 239 117 l 711 117 l 711 0 l 88 0 z "},"Ě":{"ha":764,"x_min":88,"x_max":711,"o":"m 351 954 l 178 1178 l 301 1178 l 404 1038 l 510 1178 l 631 1178 l 457 954 l 351 954 m 88 0 l 88 894 l 711 894 l 711 776 l 239 776 l 239 506 l 660 506 l 660 389 l 239 389 l 239 117 l 711 117 l 711 0 l 88 0 z "},"Ê":{"ha":764,"x_min":88,"x_max":711,"o":"m 163 954 l 336 1178 l 442 1178 l 615 954 l 494 954 l 389 1094 l 286 954 l 163 954 m 88 0 l 88 894 l 711 894 l 711 776 l 239 776 l 239 506 l 660 506 l 660 389 l 239 389 l 239 117 l 711 117 l 711 0 l 88 0 z "},"Ế":{"ha":764,"x_min":88,"x_max":722,"o":"m 518 1110 l 607 1294 l 722 1294 l 625 1110 l 518 1110 m 168 953 l 333 1129 l 450 1129 l 615 953 l 492 953 l 392 1067 l 294 953 l 168 953 m 88 0 l 88 894 l 711 894 l 711 776 l 239 776 l 239 506 l 660 506 l 660 389 l 239 389 l 239 117 l 711 117 l 711 0 l 88 0 z "},"Ệ":{"ha":764,"x_min":88,"x_max":711,"o":"m 157 954 l 331 1178 l 436 1178 l 610 954 l 489 954 l 383 1094 l 281 954 l 157 954 m 88 0 l 88 894 l 711 894 l 711 776 l 239 776 l 239 506 l 660 506 l 660 389 l 239 389 l 239 117 l 711 117 l 711 0 l 88 0 m 318 -240 l 318 -118 l 449 -118 l 449 -240 l 318 -240 z "},"Ề":{"ha":764,"x_min":74,"x_max":711,"o":"m 172 1110 l 74 1294 l 190 1294 l 279 1110 l 172 1110 m 182 953 l 346 1129 l 464 1129 l 628 953 l 503 953 l 404 1067 l 306 953 l 182 953 m 88 0 l 88 894 l 711 894 l 711 776 l 239 776 l 239 506 l 660 506 l 660 389 l 239 389 l 239 117 l 711 117 l 711 0 l 88 0 z "},"Ể":{"ha":764,"x_min":88,"x_max":747,"o":"m 533 1081 l 533 1172 q 620 1188 600 1175 q 640 1226 640 1201 q 575 1269 640 1269 q 533 1265 553 1269 q 497 1253 514 1260 l 497 1326 q 544 1338 518 1333 q 604 1343 569 1343 q 710 1313 672 1343 q 747 1235 747 1283 q 722 1163 747 1189 q 640 1128 697 1136 l 640 1081 l 533 1081 m 172 953 l 336 1129 l 454 1129 l 618 953 l 494 953 l 396 1067 l 297 953 l 172 953 m 88 0 l 88 894 l 711 894 l 711 776 l 239 776 l 239 506 l 660 506 l 660 389 l 239 389 l 239 117 l 711 117 l 711 0 l 88 0 z "},"Ễ":{"ha":764,"x_min":88,"x_max":711,"o":"m 511 1142 q 440 1155 475 1142 q 372 1181 404 1168 q 307 1194 339 1194 q 244 1183 272 1194 q 192 1146 215 1172 l 192 1244 q 241 1274 210 1263 q 306 1285 272 1285 q 378 1272 344 1285 q 443 1247 411 1260 q 510 1233 475 1233 q 617 1282 581 1233 l 617 1183 q 575 1153 603 1165 q 511 1142 547 1142 m 174 954 l 338 1131 l 456 1131 l 619 954 l 496 954 l 397 1068 l 299 954 l 174 954 m 88 0 l 88 894 l 711 894 l 711 776 l 239 776 l 239 506 l 660 506 l 660 389 l 239 389 l 239 117 l 711 117 l 711 0 l 88 0 z "},"Ë":{"ha":764,"x_min":88,"x_max":711,"o":"m 203 989 l 203 1108 l 331 1108 l 331 989 l 203 989 m 461 989 l 461 1108 l 589 1108 l 589 989 l 461 989 m 88 0 l 88 894 l 711 894 l 711 776 l 239 776 l 239 506 l 660 506 l 660 389 l 239 389 l 239 117 l 711 117 l 711 0 l 88 0 z "},"Ė":{"ha":764,"x_min":88,"x_max":711,"o":"m 329 988 l 329 1110 l 457 1110 l 457 988 l 329 988 m 88 0 l 88 894 l 711 894 l 711 776 l 239 776 l 239 506 l 660 506 l 660 389 l 239 389 l 239 117 l 711 117 l 711 0 l 88 0 z "},"Ẹ":{"ha":764,"x_min":88,"x_max":711,"o":"m 88 0 l 88 894 l 711 894 l 711 776 l 239 776 l 239 506 l 660 506 l 660 389 l 239 389 l 239 117 l 711 117 l 711 0 l 88 0 m 324 -240 l 324 -118 l 454 -118 l 454 -240 l 324 -240 z "},"È":{"ha":764,"x_min":88,"x_max":711,"o":"m 350 956 l 235 1201 l 367 1201 l 472 956 l 350 956 m 88 0 l 88 894 l 711 894 l 711 776 l 239 776 l 239 506 l 660 506 l 660 389 l 239 389 l 239 117 l 711 117 l 711 0 l 88 0 z "},"Ẻ":{"ha":764,"x_min":88,"x_max":711,"o":"m 329 954 l 329 1068 q 433 1088 408 1072 q 457 1138 457 1103 q 354 1196 457 1196 q 308 1191 333 1196 q 265 1179 283 1186 l 265 1261 q 324 1274 289 1269 q 394 1279 360 1279 q 525 1244 481 1279 q 569 1150 569 1210 q 542 1062 569 1093 q 447 1019 515 1031 l 447 954 l 329 954 m 88 0 l 88 894 l 711 894 l 711 776 l 239 776 l 239 506 l 660 506 l 660 389 l 239 389 l 239 117 l 711 117 l 711 0 l 88 0 z "},"Ē":{"ha":764,"x_min":88,"x_max":711,"o":"m 178 1001 l 178 1100 l 592 1100 l 592 1001 l 178 1001 m 88 0 l 88 894 l 711 894 l 711 776 l 239 776 l 239 506 l 660 506 l 660 389 l 239 389 l 239 117 l 711 117 l 711 0 l 88 0 z "},"Ę":{"ha":764,"x_min":88,"x_max":711,"o":"m 88 0 l 88 894 l 711 894 l 711 776 l 239 776 l 239 506 l 660 506 l 660 389 l 239 389 l 239 117 l 711 117 l 711 0 l 654 0 q 584 -74 610 -35 q 558 -156 558 -114 q 576 -199 558 -187 q 624 -211 593 -211 q 661 -207 642 -211 q 693 -196 681 -203 l 693 -287 q 646 -301 675 -296 q 586 -306 617 -306 q 482 -276 526 -306 q 438 -182 438 -246 q 465 -81 438 -129 q 540 0 493 -32 l 88 0 z "},"Ẽ":{"ha":764,"x_min":88,"x_max":711,"o":"m 503 976 q 428 990 465 976 q 358 1017 392 1004 q 292 1031 324 1031 q 225 1019 256 1031 q 171 981 194 1008 l 171 1092 q 222 1122 189 1111 q 289 1133 254 1133 q 364 1120 329 1133 q 432 1093 399 1107 q 501 1079 465 1079 q 613 1131 574 1079 l 613 1019 q 569 989 599 1001 q 503 976 540 976 m 88 0 l 88 894 l 711 894 l 711 776 l 239 776 l 239 506 l 660 506 l 660 389 l 239 389 l 239 117 l 711 117 l 711 0 l 88 0 z "},"F":{"ha":728,"x_min":88,"x_max":696,"o":"m 88 0 l 88 894 l 696 894 l 696 776 l 239 776 l 239 506 l 644 506 l 644 389 l 239 389 l 239 0 l 88 0 z "},"G":{"ha":890,"x_min":60,"x_max":831,"o":"m 504 -14 q 172 106 283 -14 q 60 429 60 225 q 108 684 60 576 q 256 850 157 792 q 508 908 356 908 q 652 898 588 908 q 774 868 717 888 l 774 738 q 521 779 660 779 q 281 689 350 779 q 213 429 213 599 q 285 194 213 275 q 508 114 357 114 q 701 142 628 114 l 701 392 l 478 392 l 478 490 l 831 490 l 831 60 q 708 9 788 32 q 504 -14 628 -14 z "},"Ğ":{"ha":890,"x_min":60,"x_max":831,"o":"m 497 956 q 353 1009 406 956 q 301 1151 301 1063 l 404 1151 q 428 1075 404 1104 q 497 1046 453 1046 q 569 1075 544 1046 q 594 1151 594 1104 l 697 1151 q 644 1009 697 1063 q 497 956 590 956 m 504 -14 q 172 106 283 -14 q 60 429 60 225 q 108 684 60 576 q 256 850 157 792 q 508 908 356 908 q 652 898 588 908 q 774 868 717 888 l 774 738 q 521 779 660 779 q 281 689 350 779 q 213 429 213 599 q 285 194 213 275 q 508 114 357 114 q 701 142 628 114 l 701 392 l 478 392 l 478 490 l 831 490 l 831 60 q 708 9 788 32 q 504 -14 628 -14 z "},"Ǧ":{"ha":890,"x_min":60,"x_max":831,"o":"m 444 953 l 271 1176 l 394 1176 l 497 1036 l 603 1176 l 724 1176 l 550 953 l 444 953 m 504 -14 q 172 106 283 -14 q 60 429 60 225 q 108 684 60 576 q 256 850 157 792 q 508 908 356 908 q 652 898 588 908 q 774 868 717 888 l 774 738 q 521 779 660 779 q 281 689 350 779 q 213 429 213 599 q 285 194 213 275 q 508 114 357 114 q 701 142 628 114 l 701 392 l 478 392 l 478 490 l 831 490 l 831 60 q 708 9 788 32 q 504 -14 628 -14 z "},"Ĝ":{"ha":890,"x_min":60,"x_max":831,"o":"m 269 954 l 443 1178 l 549 1178 l 722 954 l 601 954 l 496 1094 l 393 954 l 269 954 m 504 -14 q 172 106 283 -14 q 60 429 60 225 q 108 684 60 576 q 256 850 157 792 q 508 908 356 908 q 652 898 588 908 q 774 868 717 888 l 774 738 q 521 779 660 779 q 281 689 350 779 q 213 429 213 599 q 285 194 213 275 q 508 114 357 114 q 701 142 628 114 l 701 392 l 478 392 l 478 490 l 831 490 l 831 60 q 708 9 788 32 q 504 -14 628 -14 z "},"Ģ":{"ha":890,"x_min":60,"x_max":831,"o":"m 504 -14 q 172 106 283 -14 q 60 429 60 225 q 108 684 60 576 q 256 850 157 792 q 508 908 356 908 q 652 898 588 908 q 774 868 717 888 l 774 738 q 521 779 660 779 q 281 689 350 779 q 213 429 213 599 q 285 194 213 275 q 508 114 357 114 q 701 142 628 114 l 701 392 l 478 392 l 478 490 l 831 490 l 831 60 q 708 9 788 32 q 504 -14 628 -14 m 418 -321 l 458 -58 l 583 -58 l 519 -321 l 418 -321 z "},"Ġ":{"ha":890,"x_min":60,"x_max":831,"o":"m 440 988 l 440 1110 l 568 1110 l 568 988 l 440 988 m 504 -14 q 172 106 283 -14 q 60 429 60 225 q 108 684 60 576 q 256 850 157 792 q 508 908 356 908 q 652 898 588 908 q 774 868 717 888 l 774 738 q 521 779 660 779 q 281 689 350 779 q 213 429 213 599 q 285 194 213 275 q 508 114 357 114 q 701 142 628 114 l 701 392 l 478 392 l 478 490 l 831 490 l 831 60 q 708 9 788 32 q 504 -14 628 -14 z "},"Ḡ":{"ha":890,"x_min":60,"x_max":831,"o":"m 294 996 l 294 1094 l 708 1094 l 708 996 l 294 996 m 504 -14 q 172 106 283 -14 q 60 429 60 225 q 108 684 60 576 q 256 850 157 792 q 508 908 356 908 q 652 898 588 908 q 774 868 717 888 l 774 738 q 521 779 660 779 q 281 689 350 779 q 213 429 213 599 q 285 194 213 275 q 508 114 357 114 q 701 142 628 114 l 701 392 l 478 392 l 478 490 l 831 490 l 831 60 q 708 9 788 32 q 504 -14 628 -14 z "},"H":{"ha":908,"x_min":88,"x_max":821,"o":"m 88 0 l 88 894 l 239 894 l 239 506 l 669 506 l 669 894 l 821 894 l 821 0 l 669 0 l 669 389 l 239 389 l 239 0 l 88 0 z "},"Ħ":{"ha":908,"x_min":18,"x_max":890,"o":"m 88 0 l 88 635 l 18 635 l 18 753 l 88 753 l 88 894 l 239 894 l 239 753 l 669 753 l 669 894 l 821 894 l 821 753 l 890 753 l 890 635 l 821 635 l 821 0 l 669 0 l 669 389 l 239 389 l 239 0 l 88 0 m 239 506 l 669 506 l 669 635 l 239 635 l 239 506 z "},"Ḫ":{"ha":908,"x_min":88,"x_max":821,"o":"m 88 0 l 88 894 l 239 894 l 239 506 l 669 506 l 669 894 l 821 894 l 821 0 l 669 0 l 669 389 l 239 389 l 239 0 l 88 0 m 451 -287 q 308 -234 360 -287 q 256 -90 256 -181 l 358 -90 q 383 -168 358 -139 q 451 -197 407 -197 q 524 -168 499 -197 q 549 -90 549 -139 l 651 -90 q 598 -234 651 -181 q 451 -287 544 -287 z "},"Ĥ":{"ha":908,"x_min":88,"x_max":821,"o":"m 226 954 l 400 1178 l 506 1178 l 679 954 l 558 954 l 453 1094 l 350 954 l 226 954 m 88 0 l 88 894 l 239 894 l 239 506 l 669 506 l 669 894 l 821 894 l 821 0 l 669 0 l 669 389 l 239 389 l 239 0 l 88 0 z "},"Ḥ":{"ha":908,"x_min":88,"x_max":821,"o":"m 88 0 l 88 894 l 239 894 l 239 506 l 669 506 l 669 894 l 821 894 l 821 0 l 669 0 l 669 389 l 239 389 l 239 0 l 88 0 m 389 -240 l 389 -118 l 519 -118 l 519 -240 l 389 -240 z "},"I":{"ha":326,"x_min":88,"x_max":239,"o":"m 88 0 l 88 894 l 239 894 l 239 0 l 88 0 z "},"Ĳ":{"ha":904,"x_min":88,"x_max":822,"o":"m 531 -14 q 336 18 417 -14 l 336 146 q 415 123 369 132 q 504 114 460 114 q 634 152 597 114 q 671 275 671 190 l 671 894 l 822 894 l 822 250 q 749 54 822 122 q 531 -14 676 -14 m 88 0 l 88 894 l 239 894 l 239 0 l 88 0 z "},"Í":{"ha":328,"x_min":88,"x_max":335,"o":"m 97 956 l 201 1201 l 335 1201 l 218 956 l 97 956 m 88 0 l 88 894 l 239 894 l 239 0 l 88 0 z "},"Ĭ":{"ha":326,"x_min":-35,"x_max":361,"o":"m 161 969 q 17 1023 69 969 q -35 1165 -35 1076 l 68 1165 q 92 1089 68 1118 q 161 1060 117 1060 q 233 1089 208 1060 q 258 1165 258 1118 l 361 1165 q 308 1023 361 1076 q 161 969 254 969 m 88 0 l 88 894 l 239 894 l 239 0 l 88 0 z "},"Ǐ":{"ha":326,"x_min":-62,"x_max":390,"o":"m 111 954 l -62 1178 l 61 1178 l 164 1038 l 269 1178 l 390 1178 l 217 954 l 111 954 m 88 0 l 88 894 l 239 894 l 239 0 l 88 0 z "},"Î":{"ha":326,"x_min":-64,"x_max":389,"o":"m -64 954 l 110 1178 l 215 1178 l 389 954 l 268 954 l 163 1094 l 60 954 l -64 954 m 88 0 l 88 894 l 239 894 l 239 0 l 88 0 z "},"Ï":{"ha":326,"x_min":-31,"x_max":356,"o":"m -31 993 l -31 1113 l 97 1113 l 97 993 l -31 993 m 228 993 l 228 1113 l 356 1113 l 356 993 l 228 993 m 88 0 l 88 894 l 239 894 l 239 0 l 88 0 z "},"İ":{"ha":326,"x_min":88,"x_max":239,"o":"m 99 992 l 99 1114 l 226 1114 l 226 992 l 99 992 m 88 0 l 88 894 l 239 894 l 239 0 l 88 0 z "},"Ị":{"ha":326,"x_min":88,"x_max":239,"o":"m 88 0 l 88 894 l 239 894 l 239 0 l 88 0 m 97 -240 l 97 -118 l 228 -118 l 228 -240 l 97 -240 z "},"Ì":{"ha":326,"x_min":-12,"x_max":239,"o":"m 103 956 l -12 1201 l 119 1201 l 225 956 l 103 956 m 88 0 l 88 894 l 239 894 l 239 0 l 88 0 z "},"Ỉ":{"ha":326,"x_min":39,"x_max":343,"o":"m 103 954 l 103 1068 q 206 1088 182 1072 q 231 1138 231 1103 q 128 1196 231 1196 q 82 1191 107 1196 q 39 1179 57 1186 l 39 1261 q 98 1274 63 1269 q 168 1279 133 1279 q 299 1244 254 1279 q 343 1150 343 1210 q 316 1062 343 1093 q 221 1019 289 1031 l 221 954 l 103 954 m 88 0 l 88 894 l 239 894 l 239 0 l 88 0 z "},"Ī":{"ha":326,"x_min":-44,"x_max":369,"o":"m -44 1001 l -44 1100 l 369 1100 l 369 1001 l -44 1001 m 88 0 l 88 894 l 239 894 l 239 0 l 88 0 z "},"Į":{"ha":326,"x_min":8,"x_max":264,"o":"m 88 0 l 88 894 l 239 894 l 239 0 l 225 0 q 155 -74 181 -35 q 129 -156 129 -114 q 147 -199 129 -187 q 194 -211 164 -211 q 232 -207 213 -211 q 264 -196 251 -203 l 264 -287 q 217 -301 246 -296 q 157 -306 188 -306 q 53 -276 97 -306 q 8 -182 8 -246 q 36 -81 8 -129 q 111 0 64 -32 l 88 0 z "},"Ĩ":{"ha":326,"x_min":-58,"x_max":383,"o":"m 274 967 q 199 981 236 967 q 128 1008 163 994 q 63 1021 94 1021 q -4 1010 26 1021 q -58 971 -35 999 l -58 1082 q -8 1113 -40 1101 q 60 1124 25 1124 q 135 1110 100 1124 q 203 1083 169 1097 q 272 1069 236 1069 q 383 1121 344 1069 l 383 1010 q 340 979 369 992 q 274 967 311 967 m 88 0 l 88 894 l 239 894 l 239 0 l 88 0 z "},"J":{"ha":599,"x_min":32,"x_max":518,"o":"m 226 -14 q 32 18 113 -14 l 32 146 q 110 123 65 132 q 200 114 156 114 q 330 152 293 114 q 367 275 367 190 l 367 894 l 518 894 l 518 250 q 445 54 518 122 q 226 -14 372 -14 z "},"Ĵ":{"ha":599,"x_min":32,"x_max":668,"o":"m 215 954 l 389 1178 l 494 1178 l 668 954 l 547 954 l 442 1094 l 339 954 l 215 954 m 226 -14 q 32 18 113 -14 l 32 146 q 110 123 65 132 q 200 114 156 114 q 330 152 293 114 q 367 275 367 190 l 367 894 l 518 894 l 518 250 q 445 54 518 122 q 226 -14 372 -14 z "},"K":{"ha":868,"x_min":88,"x_max":808,"o":"m 88 0 l 88 894 l 239 894 l 239 483 l 619 894 l 794 894 l 465 533 l 808 0 l 647 0 l 371 438 l 239 296 l 239 0 l 88 0 z "},"Ķ":{"ha":868,"x_min":88,"x_max":808,"o":"m 88 0 l 88 894 l 239 894 l 239 483 l 619 894 l 794 894 l 465 533 l 808 0 l 647 0 l 371 438 l 239 296 l 239 0 l 88 0 m 339 -314 l 379 -51 l 504 -51 l 440 -314 l 339 -314 z "},"L":{"ha":729,"x_min":88,"x_max":697,"o":"m 88 0 l 88 894 l 239 894 l 239 117 l 697 117 l 697 0 l 88 0 z "},"Ĺ":{"ha":729,"x_min":88,"x_max":697,"o":"m 99 956 l 203 1201 l 336 1201 l 219 956 l 99 956 m 88 0 l 88 894 l 239 894 l 239 117 l 697 117 l 697 0 l 88 0 z "},"Ľ":{"ha":729,"x_min":88,"x_max":697,"o":"m 88 0 l 88 894 l 239 894 l 239 117 l 697 117 l 697 0 l 88 0 m 432 632 l 472 894 l 597 894 l 533 632 l 432 632 z "},"Ļ":{"ha":729,"x_min":88,"x_max":697,"o":"m 88 0 l 88 894 l 239 894 l 239 117 l 697 117 l 697 0 l 88 0 m 303 -314 l 343 -51 l 468 -51 l 404 -314 l 303 -314 z "},"Ŀ":{"ha":729,"x_min":88,"x_max":697,"o":"m 88 0 l 88 894 l 239 894 l 239 117 l 697 117 l 697 0 l 88 0 m 481 371 l 481 493 l 608 493 l 608 371 l 481 371 z "},"Ḷ":{"ha":729,"x_min":88,"x_max":697,"o":"m 88 0 l 88 894 l 239 894 l 239 117 l 697 117 l 697 0 l 88 0 m 317 -240 l 317 -118 l 447 -118 l 447 -240 l 317 -240 z "},"Ḹ":{"ha":729,"x_min":-18,"x_max":697,"o":"m -18 996 l -18 1094 l 396 1094 l 396 996 l -18 996 m 88 0 l 88 894 l 239 894 l 239 117 l 697 117 l 697 0 l 88 0 m 317 -240 l 317 -118 l 447 -118 l 447 -240 l 317 -240 z "},"Ḻ":{"ha":729,"x_min":88,"x_max":697,"o":"m 88 0 l 88 894 l 239 894 l 239 117 l 697 117 l 697 0 l 88 0 m 169 -203 l 169 -104 l 583 -104 l 583 -203 l 169 -203 z "},"Ł":{"ha":729,"x_min":-33,"x_max":697,"o":"m 88 0 l 88 371 l -33 318 l -33 435 l 88 488 l 88 894 l 239 894 l 239 554 l 418 633 l 418 517 l 239 438 l 239 117 l 697 117 l 697 0 l 88 0 z "},"M":{"ha":1051,"x_min":88,"x_max":964,"o":"m 88 0 l 88 894 l 243 894 l 526 315 l 808 894 l 964 894 l 964 0 l 814 0 l 814 649 l 572 154 l 481 154 l 238 649 l 238 0 l 88 0 z "},"Ṃ":{"ha":1051,"x_min":88,"x_max":964,"o":"m 88 0 l 88 894 l 243 894 l 526 315 l 808 894 l 964 894 l 964 0 l 814 0 l 814 649 l 572 154 l 481 154 l 238 649 l 238 0 l 88 0 m 463 -240 l 463 -118 l 593 -118 l 593 -240 l 463 -240 z "},"N":{"ha":926,"x_min":88,"x_max":838,"o":"m 88 0 l 88 894 l 221 894 l 688 236 l 688 894 l 838 894 l 838 0 l 704 0 l 239 657 l 239 0 l 88 0 z "},"Ń":{"ha":926,"x_min":88,"x_max":838,"o":"m 393 956 l 497 1201 l 631 1201 l 514 956 l 393 956 m 88 0 l 88 894 l 221 894 l 688 236 l 688 894 l 838 894 l 838 0 l 704 0 l 239 657 l 239 0 l 88 0 z "},"Ň":{"ha":926,"x_min":88,"x_max":838,"o":"m 421 954 l 247 1178 l 371 1178 l 474 1038 l 579 1178 l 700 1178 l 526 954 l 421 954 m 88 0 l 88 894 l 221 894 l 688 236 l 688 894 l 838 894 l 838 0 l 704 0 l 239 657 l 239 0 l 88 0 z "},"Ņ":{"ha":926,"x_min":88,"x_max":838,"o":"m 88 0 l 88 894 l 221 894 l 688 236 l 688 894 l 838 894 l 838 0 l 704 0 l 239 657 l 239 0 l 88 0 m 374 -314 l 414 -51 l 539 -51 l 475 -314 l 374 -314 z "},"Ṅ":{"ha":926,"x_min":88,"x_max":838,"o":"m 414 988 l 414 1110 l 542 1110 l 542 988 l 414 988 m 88 0 l 88 894 l 221 894 l 688 236 l 688 894 l 838 894 l 838 0 l 704 0 l 239 657 l 239 0 l 88 0 z "},"Ṇ":{"ha":926,"x_min":88,"x_max":838,"o":"m 88 0 l 88 894 l 221 894 l 688 236 l 688 894 l 838 894 l 838 0 l 704 0 l 239 657 l 239 0 l 88 0 m 399 -240 l 399 -118 l 529 -118 l 529 -240 l 399 -240 z "},"Ŋ":{"ha":926,"x_min":88,"x_max":838,"o":"m 624 -325 q 486 -303 543 -325 l 486 -193 q 531 -203 510 -200 q 571 -207 553 -207 q 662 -183 636 -207 q 688 -106 688 -160 l 688 24 l 239 657 l 239 0 l 88 0 l 88 894 l 221 894 l 688 236 l 688 894 l 838 894 l 838 -119 q 784 -269 838 -212 q 624 -325 731 -325 z "},"Ṉ":{"ha":926,"x_min":88,"x_max":838,"o":"m 88 0 l 88 894 l 221 894 l 688 236 l 688 894 l 838 894 l 838 0 l 704 0 l 239 657 l 239 0 l 88 0 m 261 -199 l 261 -100 l 675 -100 l 675 -199 l 261 -199 z "},"Ñ":{"ha":926,"x_min":88,"x_max":838,"o":"m 578 976 q 503 990 540 976 q 433 1017 467 1004 q 367 1031 399 1031 q 300 1019 331 1031 q 246 981 269 1008 l 246 1092 q 297 1122 264 1111 q 364 1133 329 1133 q 439 1120 404 1133 q 507 1093 474 1107 q 576 1079 540 1079 q 688 1131 649 1079 l 688 1019 q 644 989 674 1001 q 578 976 615 976 m 88 0 l 88 894 l 221 894 l 688 236 l 688 894 l 838 894 l 838 0 l 704 0 l 239 657 l 239 0 l 88 0 z "},"O":{"ha":967,"x_min":60,"x_max":907,"o":"m 483 -14 q 165 98 271 -14 q 60 444 60 210 q 165 799 60 689 q 483 908 271 908 q 802 799 697 908 q 907 444 907 689 q 802 98 907 210 q 483 -14 697 -14 m 483 114 q 690 191 624 114 q 756 444 756 268 q 690 705 756 631 q 483 779 624 779 q 278 705 344 779 q 213 444 213 631 q 278 191 213 268 q 483 114 344 114 z "},"Ó":{"ha":968,"x_min":60,"x_max":907,"o":"m 417 956 l 521 1201 l 654 1201 l 538 956 l 417 956 m 483 -14 q 165 98 271 -14 q 60 444 60 210 q 165 799 60 689 q 483 908 271 908 q 802 799 697 908 q 907 444 907 689 q 802 98 907 210 q 483 -14 697 -14 m 483 114 q 690 191 624 114 q 756 444 756 268 q 690 705 756 631 q 483 779 624 779 q 278 705 344 779 q 213 444 213 631 q 278 191 213 268 q 483 114 344 114 z "},"Ŏ":{"ha":968,"x_min":60,"x_max":907,"o":"m 482 956 q 338 1009 390 956 q 286 1151 286 1063 l 389 1151 q 413 1075 389 1104 q 482 1046 438 1046 q 554 1075 529 1046 q 579 1151 579 1104 l 682 1151 q 628 1009 682 1063 q 482 956 575 956 m 483 -14 q 165 98 271 -14 q 60 444 60 210 q 165 799 60 689 q 483 908 271 908 q 802 799 697 908 q 907 444 907 689 q 802 98 907 210 q 483 -14 697 -14 m 483 114 q 690 191 624 114 q 756 444 756 268 q 690 705 756 631 q 483 779 624 779 q 278 705 344 779 q 213 444 213 631 q 278 191 213 268 q 483 114 344 114 z "},"Ǒ":{"ha":968,"x_min":60,"x_max":907,"o":"m 431 954 l 257 1178 l 381 1178 l 483 1038 l 589 1178 l 710 1178 l 536 954 l 431 954 m 483 -14 q 165 98 271 -14 q 60 444 60 210 q 165 799 60 689 q 483 908 271 908 q 802 799 697 908 q 907 444 907 689 q 802 98 907 210 q 483 -14 697 -14 m 483 114 q 690 191 624 114 q 756 444 756 268 q 690 705 756 631 q 483 779 624 779 q 278 705 344 779 q 213 444 213 631 q 278 191 213 268 q 483 114 344 114 z "},"Ô":{"ha":968,"x_min":60,"x_max":907,"o":"m 257 954 l 431 1178 l 536 1178 l 710 954 l 589 954 l 483 1094 l 381 954 l 257 954 m 483 -14 q 165 98 271 -14 q 60 444 60 210 q 165 799 60 689 q 483 908 271 908 q 802 799 697 908 q 907 444 907 689 q 802 98 907 210 q 483 -14 697 -14 m 483 114 q 690 191 624 114 q 756 444 756 268 q 690 705 756 631 q 483 779 624 779 q 278 705 344 779 q 213 444 213 631 q 278 191 213 268 q 483 114 344 114 z "},"Ố":{"ha":968,"x_min":60,"x_max":907,"o":"m 614 1111 l 703 1296 l 818 1296 l 721 1111 l 614 1111 m 264 954 l 429 1131 l 546 1131 l 711 954 l 588 954 l 488 1068 l 390 954 l 264 954 m 483 -14 q 165 98 271 -14 q 60 444 60 210 q 165 799 60 689 q 483 908 271 908 q 802 799 697 908 q 907 444 907 689 q 802 98 907 210 q 483 -14 697 -14 m 483 114 q 690 191 624 114 q 756 444 756 268 q 690 705 756 631 q 483 779 624 779 q 278 705 344 779 q 213 444 213 631 q 278 191 213 268 q 483 114 344 114 z "},"Ộ":{"ha":968,"x_min":60,"x_max":907,"o":"m 257 961 l 431 1185 l 536 1185 l 710 961 l 589 961 l 483 1101 l 381 961 l 257 961 m 483 -14 q 165 98 271 -14 q 60 444 60 210 q 165 799 60 689 q 483 908 271 908 q 802 799 697 908 q 907 444 907 689 q 802 98 907 210 q 483 -14 697 -14 m 483 114 q 690 191 624 114 q 756 444 756 268 q 690 705 756 631 q 483 779 624 779 q 278 705 344 779 q 213 444 213 631 q 278 191 213 268 q 483 114 344 114 m 418 -240 l 418 -118 l 549 -118 l 549 -240 l 418 -240 z "},"Ồ":{"ha":968,"x_min":60,"x_max":907,"o":"m 250 1111 l 151 1296 l 268 1296 l 357 1111 l 250 1111 m 260 954 l 424 1131 l 542 1131 l 706 954 l 581 954 l 482 1068 l 383 954 l 260 954 m 483 -14 q 165 98 271 -14 q 60 444 60 210 q 165 799 60 689 q 483 908 271 908 q 802 799 697 908 q 907 444 907 689 q 802 98 907 210 q 483 -14 697 -14 m 483 114 q 690 191 624 114 q 756 444 756 268 q 690 705 756 631 q 483 779 624 779 q 278 705 344 779 q 213 444 213 631 q 278 191 213 268 q 483 114 344 114 z "},"Ổ":{"ha":968,"x_min":60,"x_max":907,"o":"m 618 1082 l 618 1174 q 705 1190 685 1176 q 725 1228 725 1203 q 660 1271 725 1271 q 618 1266 638 1271 q 582 1254 599 1261 l 582 1328 q 628 1340 603 1335 q 689 1344 654 1344 q 794 1315 757 1344 q 832 1236 832 1285 q 807 1164 832 1190 q 725 1129 782 1138 l 725 1082 l 618 1082 m 257 954 l 421 1131 l 539 1131 l 703 954 l 579 954 l 481 1068 l 382 954 l 257 954 m 483 -14 q 165 98 271 -14 q 60 444 60 210 q 165 799 60 689 q 483 908 271 908 q 802 799 697 908 q 907 444 907 689 q 802 98 907 210 q 483 -14 697 -14 m 483 114 q 690 191 624 114 q 756 444 756 268 q 690 705 756 631 q 483 779 624 779 q 278 705 344 779 q 213 444 213 631 q 278 191 213 268 q 483 114 344 114 z "},"Ỗ":{"ha":968,"x_min":60,"x_max":907,"o":"m 590 1142 q 519 1155 554 1142 q 451 1181 483 1168 q 386 1194 418 1194 q 323 1183 351 1194 q 271 1146 294 1172 l 271 1244 q 320 1274 289 1263 q 385 1285 351 1285 q 457 1272 424 1285 q 522 1247 490 1260 q 589 1233 554 1233 q 696 1282 660 1233 l 696 1183 q 654 1153 682 1165 q 590 1142 626 1142 m 260 954 l 424 1131 l 542 1131 l 706 954 l 582 954 l 483 1068 l 385 954 l 260 954 m 483 -14 q 165 98 271 -14 q 60 444 60 210 q 165 799 60 689 q 483 908 271 908 q 802 799 697 908 q 907 444 907 689 q 802 98 907 210 q 483 -14 697 -14 m 483 114 q 690 191 624 114 q 756 444 756 268 q 690 705 756 631 q 483 779 624 779 q 278 705 344 779 q 213 444 213 631 q 278 191 213 268 q 483 114 344 114 z "},"Ö":{"ha":968,"x_min":60,"x_max":907,"o":"m 290 989 l 290 1108 l 418 1108 l 418 989 l 290 989 m 549 989 l 549 1108 l 676 1108 l 676 989 l 549 989 m 483 -14 q 165 98 271 -14 q 60 444 60 210 q 165 799 60 689 q 483 908 271 908 q 802 799 697 908 q 907 444 907 689 q 802 98 907 210 q 483 -14 697 -14 m 483 114 q 690 191 624 114 q 756 444 756 268 q 690 705 756 631 q 483 779 624 779 q 278 705 344 779 q 213 444 213 631 q 278 191 213 268 q 483 114 344 114 z "},"Ọ":{"ha":968,"x_min":60,"x_max":907,"o":"m 483 -14 q 165 98 271 -14 q 60 444 60 210 q 165 799 60 689 q 483 908 271 908 q 802 799 697 908 q 907 444 907 689 q 802 98 907 210 q 483 -14 697 -14 m 483 114 q 690 191 624 114 q 756 444 756 268 q 690 705 756 631 q 483 779 624 779 q 278 705 344 779 q 213 444 213 631 q 278 191 213 268 q 483 114 344 114 m 418 -240 l 418 -118 l 549 -118 l 549 -240 l 418 -240 z "},"Ò":{"ha":968,"x_min":60,"x_max":907,"o":"m 431 956 l 315 1201 l 447 1201 l 553 956 l 431 956 m 483 -14 q 165 98 271 -14 q 60 444 60 210 q 165 799 60 689 q 483 908 271 908 q 802 799 697 908 q 907 444 907 689 q 802 98 907 210 q 483 -14 697 -14 m 483 114 q 690 191 624 114 q 756 444 756 268 q 690 705 756 631 q 483 779 624 779 q 278 705 344 779 q 213 444 213 631 q 278 191 213 268 q 483 114 344 114 z "},"Ỏ":{"ha":968,"x_min":60,"x_max":907,"o":"m 426 954 l 426 1068 q 530 1088 506 1072 q 554 1138 554 1103 q 451 1196 554 1196 q 406 1191 431 1196 q 363 1179 381 1186 l 363 1261 q 422 1274 386 1269 q 492 1279 457 1279 q 622 1244 578 1279 q 667 1150 667 1210 q 640 1062 667 1093 q 544 1019 613 1031 l 544 954 l 426 954 m 483 -14 q 165 98 271 -14 q 60 444 60 210 q 165 799 60 689 q 483 908 271 908 q 802 799 697 908 q 907 444 907 689 q 802 98 907 210 q 483 -14 697 -14 m 483 114 q 690 191 624 114 q 756 444 756 268 q 690 705 756 631 q 483 779 624 779 q 278 705 344 779 q 213 444 213 631 q 278 191 213 268 q 483 114 344 114 z "},"Ơ":{"ha":1069,"x_min":60,"x_max":1046,"o":"m 483 -14 q 165 98 271 -14 q 60 444 60 210 q 165 799 60 689 q 483 908 271 908 q 796 801 693 908 q 901 835 872 803 q 929 956 929 868 l 1046 956 q 1000 770 1046 828 q 864 699 954 713 q 907 444 907 600 q 802 98 907 210 q 483 -14 697 -14 m 483 114 q 690 191 624 114 q 756 444 756 268 q 690 705 756 631 q 483 779 624 779 q 278 705 344 779 q 213 444 213 631 q 278 191 213 268 q 483 114 344 114 z "},"Ớ":{"ha":1069,"x_min":60,"x_max":1046,"o":"m 438 956 l 542 1201 l 675 1201 l 558 956 l 438 956 m 483 -14 q 165 98 271 -14 q 60 444 60 210 q 165 799 60 689 q 483 908 271 908 q 796 801 693 908 q 901 835 872 803 q 929 956 929 868 l 1046 956 q 1000 770 1046 828 q 864 699 954 713 q 907 444 907 600 q 802 98 907 210 q 483 -14 697 -14 m 483 114 q 690 191 624 114 q 756 444 756 268 q 690 705 756 631 q 483 779 624 779 q 278 705 344 779 q 213 444 213 631 q 278 191 213 268 q 483 114 344 114 z "},"Ợ":{"ha":1069,"x_min":60,"x_max":1046,"o":"m 483 -14 q 165 98 271 -14 q 60 444 60 210 q 165 799 60 689 q 483 908 271 908 q 796 801 693 908 q 901 835 872 803 q 929 956 929 868 l 1046 956 q 1000 770 1046 828 q 864 699 954 713 q 907 444 907 600 q 802 98 907 210 q 483 -14 697 -14 m 483 114 q 690 191 624 114 q 756 444 756 268 q 690 705 756 631 q 483 779 624 779 q 278 705 344 779 q 213 444 213 631 q 278 191 213 268 q 483 114 344 114 m 424 -240 l 424 -118 l 554 -118 l 554 -240 l 424 -240 z "},"Ờ":{"ha":1069,"x_min":60,"x_max":1046,"o":"m 451 956 l 336 1201 l 468 1201 l 574 956 l 451 956 m 483 -14 q 165 98 271 -14 q 60 444 60 210 q 165 799 60 689 q 483 908 271 908 q 796 801 693 908 q 901 835 872 803 q 929 956 929 868 l 1046 956 q 1000 770 1046 828 q 864 699 954 713 q 907 444 907 600 q 802 98 907 210 q 483 -14 697 -14 m 483 114 q 690 191 624 114 q 756 444 756 268 q 690 705 756 631 q 483 779 624 779 q 278 705 344 779 q 213 444 213 631 q 278 191 213 268 q 483 114 344 114 z "},"Ở":{"ha":1069,"x_min":60,"x_max":1046,"o":"m 433 954 l 433 1068 q 537 1088 513 1072 q 561 1138 561 1103 q 458 1196 561 1196 q 413 1191 438 1196 q 369 1179 388 1186 l 369 1261 q 428 1274 393 1269 q 499 1279 464 1279 q 629 1244 585 1279 q 674 1150 674 1210 q 647 1062 674 1093 q 551 1019 619 1031 l 551 954 l 433 954 m 483 -14 q 165 98 271 -14 q 60 444 60 210 q 165 799 60 689 q 483 908 271 908 q 796 801 693 908 q 901 835 872 803 q 929 956 929 868 l 1046 956 q 1000 770 1046 828 q 864 699 954 713 q 907 444 907 600 q 802 98 907 210 q 483 -14 697 -14 m 483 114 q 690 191 624 114 q 756 444 756 268 q 690 705 756 631 q 483 779 624 779 q 278 705 344 779 q 213 444 213 631 q 278 191 213 268 q 483 114 344 114 z "},"Ỡ":{"ha":1069,"x_min":60,"x_max":1046,"o":"m 614 974 q 540 988 576 974 q 469 1015 503 1001 q 403 1028 435 1028 q 336 1017 367 1028 q 282 978 306 1006 l 282 1089 q 333 1119 300 1108 q 400 1131 365 1131 q 475 1117 440 1131 q 543 1090 510 1104 q 613 1076 576 1076 q 724 1128 685 1076 l 724 1017 q 681 986 710 999 q 614 974 651 974 m 483 -14 q 165 98 271 -14 q 60 444 60 210 q 165 799 60 689 q 483 908 271 908 q 796 801 693 908 q 901 835 872 803 q 929 956 929 868 l 1046 956 q 1000 770 1046 828 q 864 699 954 713 q 907 444 907 600 q 802 98 907 210 q 483 -14 697 -14 m 483 114 q 690 191 624 114 q 756 444 756 268 q 690 705 756 631 q 483 779 624 779 q 278 705 344 779 q 213 444 213 631 q 278 191 213 268 q 483 114 344 114 z "},"Ő":{"ha":968,"x_min":60,"x_max":907,"o":"m 236 954 l 340 1182 l 478 1182 l 358 954 l 236 954 m 538 954 l 642 1182 l 779 1182 l 660 954 l 538 954 m 483 -14 q 165 98 271 -14 q 60 444 60 210 q 165 799 60 689 q 483 908 271 908 q 802 799 697 908 q 907 444 907 689 q 802 98 907 210 q 483 -14 697 -14 m 483 114 q 690 191 624 114 q 756 444 756 268 q 690 705 756 631 q 483 779 624 779 q 278 705 344 779 q 213 444 213 631 q 278 191 213 268 q 483 114 344 114 z "},"Ō":{"ha":968,"x_min":60,"x_max":907,"o":"m 274 1001 l 274 1100 l 688 1100 l 688 1001 l 274 1001 m 483 -14 q 165 98 271 -14 q 60 444 60 210 q 165 799 60 689 q 483 908 271 908 q 802 799 697 908 q 907 444 907 689 q 802 98 907 210 q 483 -14 697 -14 m 483 114 q 690 191 624 114 q 756 444 756 268 q 690 705 756 631 q 483 779 624 779 q 278 705 344 779 q 213 444 213 631 q 278 191 213 268 q 483 114 344 114 z "},"Ø":{"ha":968,"x_min":60,"x_max":907,"o":"m 229 -74 l 267 25 q 60 444 60 118 q 165 799 60 689 q 483 908 271 908 q 593 900 542 908 l 617 963 l 719 963 l 686 875 q 852 726 797 832 q 907 444 907 621 q 802 98 907 210 q 483 -14 697 -14 q 417 -11 449 -14 q 358 -3 386 -8 l 332 -74 l 229 -74 m 315 157 l 546 775 q 483 779 517 779 q 278 705 344 779 q 213 444 213 631 q 315 157 213 229 m 483 114 q 690 191 624 114 q 756 444 756 268 q 726 640 756 567 q 638 746 697 713 l 404 121 q 442 116 422 118 q 483 114 461 114 z "},"Ǿ":{"ha":968,"x_min":60,"x_max":907,"o":"m 396 956 l 500 1201 l 633 1201 l 517 956 l 396 956 m 229 -74 l 267 25 q 60 444 60 118 q 165 799 60 689 q 483 908 271 908 q 593 900 542 908 l 617 963 l 719 963 l 686 875 q 852 726 797 832 q 907 444 907 621 q 802 98 907 210 q 483 -14 697 -14 q 417 -11 449 -14 q 358 -3 386 -8 l 332 -74 l 229 -74 m 315 157 l 546 775 q 483 779 517 779 q 278 705 344 779 q 213 444 213 631 q 315 157 213 229 m 483 114 q 690 191 624 114 q 756 444 756 268 q 726 640 756 567 q 638 746 697 713 l 404 121 q 442 116 422 118 q 483 114 461 114 z "},"Õ":{"ha":968,"x_min":60,"x_max":907,"o":"m 594 965 q 520 979 557 965 q 449 1006 483 993 q 383 1019 415 1019 q 317 1008 347 1019 q 263 969 286 997 l 263 1081 q 313 1111 281 1100 q 381 1122 346 1122 q 456 1109 421 1122 q 524 1082 490 1096 q 593 1068 557 1068 q 704 1119 665 1068 l 704 1008 q 661 978 690 990 q 594 965 632 965 m 483 -14 q 165 98 271 -14 q 60 444 60 210 q 165 799 60 689 q 483 908 271 908 q 802 799 697 908 q 907 444 907 689 q 802 98 907 210 q 483 -14 697 -14 m 483 114 q 690 191 624 114 q 756 444 756 268 q 690 705 756 631 q 483 779 624 779 q 278 705 344 779 q 213 444 213 631 q 278 191 213 268 q 483 114 344 114 z "},"Œ":{"ha":1440,"x_min":60,"x_max":1379,"o":"m 483 -14 q 165 98 271 -14 q 60 444 60 210 q 165 799 60 689 q 483 908 271 908 q 756 839 656 908 l 756 894 l 1379 894 l 1379 776 l 907 776 l 907 506 l 1328 506 l 1328 389 l 907 389 l 907 117 l 1379 117 l 1379 0 l 756 0 l 756 57 q 483 -14 656 -14 m 483 114 q 690 191 624 114 q 756 444 756 268 q 690 705 756 631 q 483 779 624 779 q 278 705 344 779 q 213 444 213 631 q 278 191 213 268 q 483 114 344 114 z "},"P":{"ha":819,"x_min":88,"x_max":786,"o":"m 88 0 l 88 894 l 486 894 q 656 856 589 894 q 754 749 722 817 q 786 596 786 682 q 703 382 786 463 q 481 301 621 301 l 239 301 l 239 0 l 88 0 m 239 421 l 453 421 q 589 468 543 421 q 635 596 635 515 q 591 729 635 682 q 460 776 547 776 l 239 776 l 239 421 z "},"Þ":{"ha":819,"x_min":88,"x_max":786,"o":"m 88 0 l 88 894 l 239 894 l 239 742 l 486 742 q 656 703 589 742 q 754 598 722 665 q 786 444 786 531 q 749 289 786 356 q 643 185 711 222 q 481 149 575 149 l 239 149 l 239 0 l 88 0 m 239 268 l 453 268 q 589 316 543 268 q 635 444 635 364 q 591 576 635 531 q 460 622 547 622 l 239 622 l 239 268 z "},"Q":{"ha":968,"x_min":60,"x_max":907,"o":"m 613 -239 q 458 -179 507 -239 q 407 -10 410 -119 q 147 120 233 10 q 60 444 60 231 q 165 799 60 689 q 483 908 271 908 q 802 799 697 908 q 907 444 907 689 q 816 115 907 226 q 542 -11 725 4 q 566 -99 543 -75 q 644 -124 589 -124 q 743 -110 694 -124 l 743 -222 q 685 -234 721 -229 q 613 -239 649 -239 m 483 114 q 690 191 624 114 q 756 444 756 268 q 690 705 756 631 q 483 779 624 779 q 278 705 344 779 q 213 444 213 631 q 278 191 213 268 q 483 114 344 114 z "},"R":{"ha":847,"x_min":88,"x_max":786,"o":"m 88 0 l 88 894 l 499 894 q 717 817 649 894 q 786 608 786 740 q 739 447 786 514 q 603 354 692 381 q 642 315 628 336 q 669 260 656 294 l 782 0 l 626 0 l 517 250 q 480 301 501 286 q 407 317 458 317 l 239 317 l 239 0 l 88 0 m 239 439 l 458 439 q 588 479 540 439 q 635 608 635 519 q 472 776 635 776 l 239 776 l 239 439 z "},"Ŕ":{"ha":847,"x_min":88,"x_max":786,"o":"m 332 956 l 436 1201 l 569 1201 l 453 956 l 332 956 m 88 0 l 88 894 l 499 894 q 717 817 649 894 q 786 608 786 740 q 739 447 786 514 q 603 354 692 381 q 642 315 628 336 q 669 260 656 294 l 782 0 l 626 0 l 517 250 q 480 301 501 286 q 407 317 458 317 l 239 317 l 239 0 l 88 0 m 239 439 l 458 439 q 588 479 540 439 q 635 608 635 519 q 472 776 635 776 l 239 776 l 239 439 z "},"Ř":{"ha":847,"x_min":88,"x_max":786,"o":"m 356 954 l 182 1178 l 306 1178 l 408 1038 l 514 1178 l 635 1178 l 461 954 l 356 954 m 88 0 l 88 894 l 499 894 q 717 817 649 894 q 786 608 786 740 q 739 447 786 514 q 603 354 692 381 q 642 315 628 336 q 669 260 656 294 l 782 0 l 626 0 l 517 250 q 480 301 501 286 q 407 317 458 317 l 239 317 l 239 0 l 88 0 m 239 439 l 458 439 q 588 479 540 439 q 635 608 635 519 q 472 776 635 776 l 239 776 l 239 439 z "},"Ŗ":{"ha":847,"x_min":88,"x_max":786,"o":"m 88 0 l 88 894 l 499 894 q 717 817 649 894 q 786 608 786 740 q 739 447 786 514 q 603 354 692 381 q 642 315 628 336 q 669 260 656 294 l 782 0 l 626 0 l 517 250 q 480 301 501 286 q 407 317 458 317 l 239 317 l 239 0 l 88 0 m 239 439 l 458 439 q 588 479 540 439 q 635 608 635 519 q 472 776 635 776 l 239 776 l 239 439 m 303 -314 l 343 -51 l 468 -51 l 404 -314 l 303 -314 z "},"Ṛ":{"ha":847,"x_min":88,"x_max":786,"o":"m 88 0 l 88 894 l 499 894 q 717 817 649 894 q 786 608 786 740 q 739 447 786 514 q 603 354 692 381 q 642 315 628 336 q 669 260 656 294 l 782 0 l 626 0 l 517 250 q 480 301 501 286 q 407 317 458 317 l 239 317 l 239 0 l 88 0 m 239 439 l 458 439 q 588 479 540 439 q 635 608 635 519 q 472 776 635 776 l 239 776 l 239 439 m 360 -240 l 360 -118 l 490 -118 l 490 -240 l 360 -240 z "},"Ṝ":{"ha":847,"x_min":88,"x_max":786,"o":"m 200 996 l 200 1094 l 614 1094 l 614 996 l 200 996 m 88 0 l 88 894 l 499 894 q 717 817 649 894 q 786 608 786 740 q 739 447 786 514 q 603 354 692 381 q 642 315 628 336 q 669 260 656 294 l 782 0 l 626 0 l 517 250 q 480 301 501 286 q 407 317 458 317 l 239 317 l 239 0 l 88 0 m 239 439 l 458 439 q 588 479 540 439 q 635 608 635 519 q 472 776 635 776 l 239 776 l 239 439 m 360 -240 l 360 -118 l 490 -118 l 490 -240 l 360 -240 z "},"Ṟ":{"ha":847,"x_min":88,"x_max":786,"o":"m 88 0 l 88 894 l 499 894 q 717 817 649 894 q 786 608 786 740 q 739 447 786 514 q 603 354 692 381 q 642 315 628 336 q 669 260 656 294 l 782 0 l 626 0 l 517 250 q 480 301 501 286 q 407 317 458 317 l 239 317 l 239 0 l 88 0 m 239 439 l 458 439 q 588 479 540 439 q 635 608 635 519 q 472 776 635 776 l 239 776 l 239 439 m 201 -199 l 201 -100 l 615 -100 l 615 -199 l 201 -199 z "},"S":{"ha":771,"x_min":60,"x_max":711,"o":"m 358 -14 q 79 31 185 -14 l 79 164 q 208 128 139 142 q 344 114 276 114 q 505 139 451 114 q 558 239 558 164 q 536 313 558 285 q 463 360 514 340 q 321 403 411 381 q 118 498 176 440 q 60 657 60 556 q 146 842 60 775 q 403 908 232 908 q 549 897 481 908 q 657 872 618 886 l 657 739 q 424 779 551 779 q 268 753 324 779 q 213 657 213 726 q 232 592 213 617 q 299 549 251 567 q 432 508 347 531 q 602 442 542 481 q 687 353 663 404 q 711 239 711 303 q 624 53 711 121 q 358 -14 536 -14 z "},"Ś":{"ha":771,"x_min":60,"x_max":711,"o":"m 301 960 l 406 1206 l 539 1206 l 422 960 l 301 960 m 358 -14 q 79 31 185 -14 l 79 164 q 208 128 139 142 q 344 114 276 114 q 505 139 451 114 q 558 239 558 164 q 536 313 558 285 q 463 360 514 340 q 321 403 411 381 q 118 498 176 440 q 60 657 60 556 q 146 842 60 775 q 403 908 232 908 q 549 897 481 908 q 657 872 618 886 l 657 739 q 424 779 551 779 q 268 753 324 779 q 213 657 213 726 q 232 592 213 617 q 299 549 251 567 q 432 508 347 531 q 602 442 542 481 q 687 353 663 404 q 711 239 711 303 q 624 53 711 121 q 358 -14 536 -14 z "},"Š":{"ha":771,"x_min":60,"x_max":711,"o":"m 350 954 l 176 1178 l 300 1178 l 403 1038 l 508 1178 l 629 1178 l 456 954 l 350 954 m 358 -14 q 79 31 185 -14 l 79 164 q 208 128 139 142 q 344 114 276 114 q 505 139 451 114 q 558 239 558 164 q 536 313 558 285 q 463 360 514 340 q 321 403 411 381 q 118 498 176 440 q 60 657 60 556 q 146 842 60 775 q 403 908 232 908 q 549 897 481 908 q 657 872 618 886 l 657 739 q 424 779 551 779 q 268 753 324 779 q 213 657 213 726 q 232 592 213 617 q 299 549 251 567 q 432 508 347 531 q 602 442 542 481 q 687 353 663 404 q 711 239 711 303 q 624 53 711 121 q 358 -14 536 -14 z "},"Ş":{"ha":771,"x_min":60,"x_max":711,"o":"m 339 -333 q 285 -330 317 -333 q 238 -322 253 -326 l 238 -240 q 324 -251 278 -251 q 414 -240 386 -251 q 442 -189 442 -228 q 413 -141 442 -150 q 329 -132 383 -132 l 274 -132 l 310 -12 q 79 31 169 -7 l 79 164 q 208 128 139 142 q 344 114 276 114 q 505 139 451 114 q 558 239 558 164 q 536 313 558 285 q 463 360 514 340 q 321 403 411 381 q 118 498 176 440 q 60 657 60 556 q 146 842 60 775 q 403 908 232 908 q 549 897 481 908 q 657 872 618 886 l 657 739 q 424 779 551 779 q 268 753 324 779 q 213 657 213 726 q 232 592 213 617 q 299 549 251 567 q 432 508 347 531 q 602 442 542 481 q 687 353 663 404 q 711 239 711 303 q 636 65 711 131 q 411 -12 561 -1 l 393 -65 q 506 -99 468 -65 q 544 -190 544 -132 q 495 -296 544 -258 q 339 -333 446 -333 z "},"Ŝ":{"ha":771,"x_min":60,"x_max":711,"o":"m 156 965 l 329 1189 l 435 1189 l 608 965 l 488 965 l 382 1106 l 279 965 l 156 965 m 358 -14 q 79 31 185 -14 l 79 164 q 208 128 139 142 q 344 114 276 114 q 505 139 451 114 q 558 239 558 164 q 536 313 558 285 q 463 360 514 340 q 321 403 411 381 q 118 498 176 440 q 60 657 60 556 q 146 842 60 775 q 403 908 232 908 q 549 897 481 908 q 657 872 618 886 l 657 739 q 424 779 551 779 q 268 753 324 779 q 213 657 213 726 q 232 592 213 617 q 299 549 251 567 q 432 508 347 531 q 602 442 542 481 q 687 353 663 404 q 711 239 711 303 q 624 53 711 121 q 358 -14 536 -14 z "},"Ș":{"ha":771,"x_min":60,"x_max":711,"o":"m 358 -14 q 79 31 185 -14 l 79 164 q 208 128 139 142 q 344 114 276 114 q 505 139 451 114 q 558 239 558 164 q 536 313 558 285 q 463 360 514 340 q 321 403 411 381 q 118 498 176 440 q 60 657 60 556 q 146 842 60 775 q 403 908 232 908 q 549 897 481 908 q 657 872 618 886 l 657 739 q 424 779 551 779 q 268 753 324 779 q 213 657 213 726 q 232 592 213 617 q 299 549 251 567 q 432 508 347 531 q 602 442 542 481 q 687 353 663 404 q 711 239 711 303 q 624 53 711 121 q 358 -14 536 -14 m 278 -310 l 317 -69 l 450 -69 l 393 -310 l 278 -310 z "},"Ṡ":{"ha":771,"x_min":60,"x_max":711,"o":"m 318 988 l 318 1110 l 446 1110 l 446 988 l 318 988 m 358 -14 q 79 31 185 -14 l 79 164 q 208 128 139 142 q 344 114 276 114 q 505 139 451 114 q 558 239 558 164 q 536 313 558 285 q 463 360 514 340 q 321 403 411 381 q 118 498 176 440 q 60 657 60 556 q 146 842 60 775 q 403 908 232 908 q 549 897 481 908 q 657 872 618 886 l 657 739 q 424 779 551 779 q 268 753 324 779 q 213 657 213 726 q 232 592 213 617 q 299 549 251 567 q 432 508 347 531 q 602 442 542 481 q 687 353 663 404 q 711 239 711 303 q 624 53 711 121 q 358 -14 536 -14 z "},"Ṣ":{"ha":771,"x_min":60,"x_max":711,"o":"m 358 -14 q 79 31 185 -14 l 79 164 q 208 128 139 142 q 344 114 276 114 q 505 139 451 114 q 558 239 558 164 q 536 313 558 285 q 463 360 514 340 q 321 403 411 381 q 118 498 176 440 q 60 657 60 556 q 146 842 60 775 q 403 908 232 908 q 549 897 481 908 q 657 872 618 886 l 657 739 q 424 779 551 779 q 268 753 324 779 q 213 657 213 726 q 232 592 213 617 q 299 549 251 567 q 432 508 347 531 q 602 442 542 481 q 687 353 663 404 q 711 239 711 303 q 624 53 711 121 q 358 -14 536 -14 m 308 -240 l 308 -118 l 439 -118 l 439 -240 l 308 -240 z "},"ẞ":{"ha":868,"x_min":81,"x_max":807,"o":"m 535 -14 q 428 -6 479 -14 q 335 17 376 1 l 335 144 q 417 122 371 129 q 507 114 464 114 q 663 256 663 114 q 626 347 663 321 q 515 374 589 374 l 382 374 l 382 501 l 629 656 q 583 746 629 708 q 432 783 536 783 q 276 737 326 783 q 226 596 226 690 l 226 0 l 81 0 l 81 592 q 172 826 81 743 q 432 908 263 908 q 628 869 553 908 q 738 763 703 829 q 772 617 772 697 l 536 474 l 586 474 q 747 413 688 474 q 807 254 807 353 q 735 61 807 136 q 535 -14 663 -14 z "},"Ə":{"ha":936,"x_min":60,"x_max":876,"o":"m 451 -14 q 233 33 319 -14 q 103 165 146 81 q 60 360 60 249 l 60 514 l 738 514 q 695 675 732 614 q 581 764 658 736 q 378 792 504 792 q 242 777 315 792 q 114 739 168 763 l 114 854 q 251 893 174 878 q 410 908 329 908 q 761 788 646 908 q 876 436 876 668 q 833 197 876 297 q 695 41 789 96 q 451 -14 601 -14 m 451 99 q 667 176 597 99 q 738 406 738 253 l 193 406 l 193 331 q 261 158 193 218 q 451 99 329 99 z "},"T":{"ha":789,"x_min":33,"x_max":756,"o":"m 319 0 l 319 776 l 33 776 l 33 894 l 756 894 l 756 776 l 471 776 l 471 0 l 319 0 z "},"Ŧ":{"ha":789,"x_min":33,"x_max":756,"o":"m 319 0 l 319 425 l 128 425 l 128 538 l 319 538 l 319 776 l 33 776 l 33 894 l 756 894 l 756 776 l 471 776 l 471 538 l 636 538 l 636 425 l 471 425 l 471 0 l 319 0 z "},"Ť":{"ha":789,"x_min":33,"x_max":756,"o":"m 342 965 l 168 1189 l 292 1189 l 394 1049 l 500 1189 l 621 1189 l 447 965 l 342 965 m 319 0 l 319 776 l 33 776 l 33 894 l 756 894 l 756 776 l 471 776 l 471 0 l 319 0 z "},"Ţ":{"ha":789,"x_min":33,"x_max":756,"o":"m 319 0 l 319 776 l 33 776 l 33 894 l 756 894 l 756 776 l 471 776 l 471 0 l 443 0 l 421 -65 q 534 -99 496 -65 q 572 -190 572 -132 q 523 -296 572 -258 q 367 -333 474 -333 q 313 -330 344 -333 q 265 -322 281 -326 l 265 -240 q 351 -251 306 -251 q 442 -240 414 -251 q 469 -189 469 -228 q 440 -141 469 -150 q 357 -132 411 -132 l 301 -132 l 342 0 l 319 0 z "},"Ț":{"ha":789,"x_min":33,"x_max":756,"o":"m 319 0 l 319 776 l 33 776 l 33 894 l 756 894 l 756 776 l 471 776 l 471 0 l 319 0 m 296 -325 l 336 -62 l 461 -62 l 397 -325 l 296 -325 z "},"Ṭ":{"ha":789,"x_min":33,"x_max":756,"o":"m 319 0 l 319 776 l 33 776 l 33 894 l 756 894 l 756 776 l 471 776 l 471 0 l 319 0 m 329 -231 l 329 -108 l 460 -108 l 460 -231 l 329 -231 z "},"Ṯ":{"ha":789,"x_min":33,"x_max":756,"o":"m 319 0 l 319 776 l 33 776 l 33 894 l 756 894 l 756 776 l 471 776 l 471 0 l 319 0 m 188 -189 l 188 -90 l 601 -90 l 601 -189 l 188 -189 z "},"U":{"ha":936,"x_min":81,"x_max":856,"o":"m 469 -14 q 183 75 285 -14 q 81 332 81 164 l 81 894 l 232 894 l 232 338 q 294 169 232 225 q 469 114 356 114 q 644 169 582 114 q 706 338 706 225 l 706 894 l 856 894 l 856 332 q 754 75 856 164 q 469 -14 653 -14 z "},"Ú":{"ha":936,"x_min":81,"x_max":856,"o":"m 400 956 l 504 1201 l 638 1201 l 521 956 l 400 956 m 469 -14 q 183 75 285 -14 q 81 332 81 164 l 81 894 l 232 894 l 232 338 q 294 169 232 225 q 469 114 356 114 q 644 169 582 114 q 706 338 706 225 l 706 894 l 856 894 l 856 332 q 754 75 856 164 q 469 -14 653 -14 z "},"Ŭ":{"ha":936,"x_min":81,"x_max":856,"o":"m 450 956 q 306 1009 358 956 q 254 1151 254 1063 l 357 1151 q 381 1075 357 1104 q 450 1046 406 1046 q 522 1075 497 1046 q 547 1151 547 1104 l 650 1151 q 597 1009 650 1063 q 450 956 543 956 m 469 -14 q 183 75 285 -14 q 81 332 81 164 l 81 894 l 232 894 l 232 338 q 294 169 232 225 q 469 114 356 114 q 644 169 582 114 q 706 338 706 225 l 706 894 l 856 894 l 856 332 q 754 75 856 164 q 469 -14 653 -14 z "},"Ǔ":{"ha":936,"x_min":81,"x_max":856,"o":"m 415 954 l 242 1178 l 365 1178 l 468 1038 l 574 1178 l 694 1178 l 521 954 l 415 954 m 469 -14 q 183 75 285 -14 q 81 332 81 164 l 81 894 l 232 894 l 232 338 q 294 169 232 225 q 469 114 356 114 q 644 169 582 114 q 706 338 706 225 l 706 894 l 856 894 l 856 332 q 754 75 856 164 q 469 -14 653 -14 z "},"Û":{"ha":936,"x_min":81,"x_max":856,"o":"m 242 954 l 415 1178 l 521 1178 l 694 954 l 574 954 l 468 1094 l 365 954 l 242 954 m 469 -14 q 183 75 285 -14 q 81 332 81 164 l 81 894 l 232 894 l 232 338 q 294 169 232 225 q 469 114 356 114 q 644 169 582 114 q 706 338 706 225 l 706 894 l 856 894 l 856 332 q 754 75 856 164 q 469 -14 653 -14 z "},"Ü":{"ha":936,"x_min":81,"x_max":856,"o":"m 267 989 l 267 1108 l 394 1108 l 394 989 l 267 989 m 525 989 l 525 1108 l 653 1108 l 653 989 l 525 989 m 469 -14 q 183 75 285 -14 q 81 332 81 164 l 81 894 l 232 894 l 232 338 q 294 169 232 225 q 469 114 356 114 q 644 169 582 114 q 706 338 706 225 l 706 894 l 856 894 l 856 332 q 754 75 856 164 q 469 -14 653 -14 z "},"Ǘ":{"ha":936,"x_min":81,"x_max":856,"o":"m 411 1092 l 496 1268 l 611 1268 l 518 1092 l 411 1092 m 268 956 l 268 1072 l 393 1072 l 393 956 l 268 956 m 544 956 l 544 1072 l 668 1072 l 668 956 l 544 956 m 469 -14 q 183 75 285 -14 q 81 332 81 164 l 81 894 l 232 894 l 232 338 q 294 169 232 225 q 469 114 356 114 q 644 169 582 114 q 706 338 706 225 l 706 894 l 856 894 l 856 332 q 754 75 856 164 q 469 -14 653 -14 z "},"Ǚ":{"ha":936,"x_min":81,"x_max":856,"o":"m 414 1089 l 258 1256 l 376 1256 l 469 1147 l 564 1256 l 679 1256 l 524 1089 l 414 1089 m 265 956 l 265 1072 l 390 1072 l 390 956 l 265 956 m 542 956 l 542 1072 l 665 1072 l 665 956 l 542 956 m 469 -14 q 183 75 285 -14 q 81 332 81 164 l 81 894 l 232 894 l 232 338 q 294 169 232 225 q 469 114 356 114 q 644 169 582 114 q 706 338 706 225 l 706 894 l 856 894 l 856 332 q 754 75 856 164 q 469 -14 653 -14 z "},"Ǜ":{"ha":936,"x_min":81,"x_max":856,"o":"m 415 1092 l 322 1268 l 439 1268 l 522 1092 l 415 1092 m 265 956 l 265 1072 l 390 1072 l 390 956 l 265 956 m 542 956 l 542 1072 l 665 1072 l 665 956 l 542 956 m 469 -14 q 183 75 285 -14 q 81 332 81 164 l 81 894 l 232 894 l 232 338 q 294 169 232 225 q 469 114 356 114 q 644 169 582 114 q 706 338 706 225 l 706 894 l 856 894 l 856 332 q 754 75 856 164 q 469 -14 653 -14 z "},"Ǖ":{"ha":936,"x_min":81,"x_max":856,"o":"m 261 1185 l 261 1283 l 675 1283 l 675 1185 l 261 1185 m 275 976 l 275 1096 l 403 1096 l 403 976 l 275 976 m 533 976 l 533 1096 l 661 1096 l 661 976 l 533 976 m 469 -14 q 183 75 285 -14 q 81 332 81 164 l 81 894 l 232 894 l 232 338 q 294 169 232 225 q 469 114 356 114 q 644 169 582 114 q 706 338 706 225 l 706 894 l 856 894 l 856 332 q 754 75 856 164 q 469 -14 653 -14 z "},"Ụ":{"ha":936,"x_min":81,"x_max":856,"o":"m 469 -14 q 183 75 285 -14 q 81 332 81 164 l 81 894 l 232 894 l 232 338 q 294 169 232 225 q 469 114 356 114 q 644 169 582 114 q 706 338 706 225 l 706 894 l 856 894 l 856 332 q 754 75 856 164 q 469 -14 653 -14 m 403 -240 l 403 -118 l 533 -118 l 533 -240 l 403 -240 z "},"Ù":{"ha":936,"x_min":81,"x_max":856,"o":"m 426 956 l 311 1201 l 443 1201 l 549 956 l 426 956 m 469 -14 q 183 75 285 -14 q 81 332 81 164 l 81 894 l 232 894 l 232 338 q 294 169 232 225 q 469 114 356 114 q 644 169 582 114 q 706 338 706 225 l 706 894 l 856 894 l 856 332 q 754 75 856 164 q 469 -14 653 -14 z "},"Ủ":{"ha":936,"x_min":81,"x_max":856,"o":"m 406 954 l 406 1068 q 509 1088 485 1072 q 533 1138 533 1103 q 431 1196 533 1196 q 385 1191 410 1196 q 342 1179 360 1186 l 342 1261 q 401 1274 365 1269 q 471 1279 436 1279 q 601 1244 557 1279 q 646 1150 646 1210 q 619 1062 646 1093 q 524 1019 592 1031 l 524 954 l 406 954 m 469 -14 q 183 75 285 -14 q 81 332 81 164 l 81 894 l 232 894 l 232 338 q 294 169 232 225 q 469 114 356 114 q 644 169 582 114 q 706 338 706 225 l 706 894 l 856 894 l 856 332 q 754 75 856 164 q 469 -14 653 -14 z "},"Ư":{"ha":1085,"x_min":81,"x_max":1107,"o":"m 469 -14 q 183 75 285 -14 q 81 332 81 164 l 81 894 l 232 894 l 232 338 q 294 169 232 225 q 469 114 356 114 q 644 169 582 114 q 706 338 706 225 l 706 894 l 856 894 l 856 797 q 961 833 932 800 q 990 956 990 867 l 1107 956 q 1046 750 1107 807 q 856 690 985 693 l 856 332 q 754 75 856 164 q 469 -14 653 -14 z "},"Ứ":{"ha":1085,"x_min":81,"x_max":1107,"o":"m 418 956 l 522 1201 l 656 1201 l 539 956 l 418 956 m 469 -14 q 183 75 285 -14 q 81 332 81 164 l 81 894 l 232 894 l 232 338 q 294 169 232 225 q 469 114 356 114 q 644 169 582 114 q 706 338 706 225 l 706 894 l 856 894 l 856 797 q 961 833 932 800 q 990 956 990 867 l 1107 956 q 1046 750 1107 807 q 856 690 985 693 l 856 332 q 754 75 856 164 q 469 -14 653 -14 z "},"Ự":{"ha":1085,"x_min":81,"x_max":1107,"o":"m 469 -14 q 183 75 285 -14 q 81 332 81 164 l 81 894 l 232 894 l 232 338 q 294 169 232 225 q 469 114 356 114 q 644 169 582 114 q 706 338 706 225 l 706 894 l 856 894 l 856 797 q 961 833 932 800 q 990 956 990 867 l 1107 956 q 1046 750 1107 807 q 856 690 985 693 l 856 332 q 754 75 856 164 q 469 -14 653 -14 m 400 -240 l 400 -118 l 531 -118 l 531 -240 l 400 -240 z "},"Ừ":{"ha":1085,"x_min":81,"x_max":1107,"o":"m 421 956 l 306 1201 l 438 1201 l 543 956 l 421 956 m 469 -14 q 183 75 285 -14 q 81 332 81 164 l 81 894 l 232 894 l 232 338 q 294 169 232 225 q 469 114 356 114 q 644 169 582 114 q 706 338 706 225 l 706 894 l 856 894 l 856 797 q 961 833 932 800 q 990 956 990 867 l 1107 956 q 1046 750 1107 807 q 856 690 985 693 l 856 332 q 754 75 856 164 q 469 -14 653 -14 z "},"Ử":{"ha":1085,"x_min":81,"x_max":1107,"o":"m 417 954 l 417 1068 q 520 1088 496 1072 q 544 1138 544 1103 q 442 1196 544 1196 q 396 1191 421 1196 q 353 1179 371 1186 l 353 1261 q 412 1274 376 1269 q 482 1279 447 1279 q 613 1244 568 1279 q 657 1150 657 1210 q 630 1062 657 1093 q 535 1019 603 1031 l 535 954 l 417 954 m 469 -14 q 183 75 285 -14 q 81 332 81 164 l 81 894 l 232 894 l 232 338 q 294 169 232 225 q 469 114 356 114 q 644 169 582 114 q 706 338 706 225 l 706 894 l 856 894 l 856 797 q 961 833 932 800 q 990 956 990 867 l 1107 956 q 1046 750 1107 807 q 856 690 985 693 l 856 332 q 754 75 856 164 q 469 -14 653 -14 z "},"Ữ":{"ha":1085,"x_min":81,"x_max":1107,"o":"m 579 974 q 505 988 542 974 q 434 1015 468 1001 q 368 1028 400 1028 q 301 1017 332 1028 q 247 978 271 1006 l 247 1089 q 298 1119 265 1108 q 365 1131 331 1131 q 440 1117 406 1131 q 508 1090 475 1104 q 578 1076 542 1076 q 689 1128 650 1076 l 689 1017 q 646 986 675 999 q 579 974 617 974 m 469 -14 q 183 75 285 -14 q 81 332 81 164 l 81 894 l 232 894 l 232 338 q 294 169 232 225 q 469 114 356 114 q 644 169 582 114 q 706 338 706 225 l 706 894 l 856 894 l 856 797 q 961 833 932 800 q 990 956 990 867 l 1107 956 q 1046 750 1107 807 q 856 690 985 693 l 856 332 q 754 75 856 164 q 469 -14 653 -14 z "},"Ű":{"ha":936,"x_min":81,"x_max":856,"o":"m 214 954 l 318 1182 l 456 1182 l 336 954 l 214 954 m 515 954 l 619 1182 l 757 1182 l 638 954 l 515 954 m 469 -14 q 183 75 285 -14 q 81 332 81 164 l 81 894 l 232 894 l 232 338 q 294 169 232 225 q 469 114 356 114 q 644 169 582 114 q 706 338 706 225 l 706 894 l 856 894 l 856 332 q 754 75 856 164 q 469 -14 653 -14 z "},"Ū":{"ha":936,"x_min":81,"x_max":856,"o":"m 253 1001 l 253 1100 l 667 1100 l 667 1001 l 253 1001 m 469 -14 q 183 75 285 -14 q 81 332 81 164 l 81 894 l 232 894 l 232 338 q 294 169 232 225 q 469 114 356 114 q 644 169 582 114 q 706 338 706 225 l 706 894 l 856 894 l 856 332 q 754 75 856 164 q 469 -14 653 -14 z "},"Ų":{"ha":936,"x_min":81,"x_max":856,"o":"m 497 -306 q 393 -276 438 -306 q 349 -182 349 -246 q 372 -90 349 -133 q 435 -12 394 -46 q 174 83 267 -4 q 81 332 81 171 l 81 894 l 232 894 l 232 338 q 294 169 232 225 q 469 114 356 114 q 644 169 582 114 q 706 338 706 225 l 706 894 l 856 894 l 856 332 q 777 97 856 183 q 554 -8 699 11 q 492 -79 515 -42 q 469 -156 469 -117 q 487 -199 469 -187 q 535 -211 504 -211 q 572 -207 553 -211 q 604 -196 592 -203 l 604 -287 q 557 -301 586 -296 q 497 -306 528 -306 z "},"Ů":{"ha":936,"x_min":81,"x_max":856,"o":"m 458 954 q 342 1000 386 954 q 297 1111 297 1046 q 342 1224 297 1178 q 458 1269 386 1269 q 578 1224 533 1269 q 622 1111 622 1178 q 578 1000 622 1046 q 458 954 533 954 m 458 1029 q 520 1053 497 1029 q 543 1111 543 1076 q 520 1169 543 1146 q 458 1193 497 1193 q 399 1169 422 1193 q 376 1111 376 1146 q 399 1053 376 1076 q 458 1029 422 1029 m 469 -14 q 183 75 285 -14 q 81 332 81 164 l 81 894 l 232 894 l 232 338 q 294 169 232 225 q 469 114 356 114 q 644 169 582 114 q 706 338 706 225 l 706 894 l 856 894 l 856 332 q 754 75 856 164 q 469 -14 653 -14 z "},"Ũ":{"ha":936,"x_min":81,"x_max":856,"o":"m 571 976 q 497 990 533 976 q 426 1017 460 1004 q 360 1031 392 1031 q 293 1019 324 1031 q 239 981 263 1008 l 239 1092 q 290 1122 257 1111 q 357 1133 322 1133 q 432 1120 397 1133 q 500 1093 467 1107 q 569 1079 533 1079 q 681 1131 642 1079 l 681 1019 q 638 989 667 1001 q 571 976 608 976 m 469 -14 q 183 75 285 -14 q 81 332 81 164 l 81 894 l 232 894 l 232 338 q 294 169 232 225 q 469 114 356 114 q 644 169 582 114 q 706 338 706 225 l 706 894 l 856 894 l 856 332 q 754 75 856 164 q 469 -14 653 -14 z "},"V":{"ha":972,"x_min":61,"x_max":911,"o":"m 403 0 l 61 894 l 218 894 l 486 163 l 754 894 l 911 894 l 572 0 l 403 0 z "},"W":{"ha":1207,"x_min":61,"x_max":1146,"o":"m 269 0 l 61 894 l 210 894 l 361 224 l 531 786 l 531 894 l 654 894 l 844 224 l 999 894 l 1146 894 l 939 0 l 790 0 l 611 626 l 421 0 l 269 0 z "},"Ẃ":{"ha":1207,"x_min":61,"x_max":1146,"o":"m 539 956 l 643 1201 l 776 1201 l 660 956 l 539 956 m 269 0 l 61 894 l 210 894 l 361 224 l 531 786 l 531 894 l 654 894 l 844 224 l 999 894 l 1146 894 l 939 0 l 790 0 l 611 626 l 421 0 l 269 0 z "},"Ŵ":{"ha":1207,"x_min":61,"x_max":1146,"o":"m 383 954 l 557 1178 l 663 1178 l 836 954 l 715 954 l 610 1094 l 507 954 l 383 954 m 269 0 l 61 894 l 210 894 l 361 224 l 531 786 l 531 894 l 654 894 l 844 224 l 999 894 l 1146 894 l 939 0 l 790 0 l 611 626 l 421 0 l 269 0 z "},"Ẅ":{"ha":1207,"x_min":61,"x_max":1146,"o":"m 418 986 l 418 1106 l 546 1106 l 546 986 l 418 986 m 676 986 l 676 1106 l 804 1106 l 804 986 l 676 986 m 269 0 l 61 894 l 210 894 l 361 224 l 531 786 l 531 894 l 654 894 l 844 224 l 999 894 l 1146 894 l 939 0 l 790 0 l 611 626 l 421 0 l 269 0 z "},"Ẁ":{"ha":1207,"x_min":61,"x_max":1146,"o":"m 522 956 l 407 1201 l 539 1201 l 644 956 l 522 956 m 269 0 l 61 894 l 210 894 l 361 224 l 531 786 l 531 894 l 654 894 l 844 224 l 999 894 l 1146 894 l 939 0 l 790 0 l 611 626 l 421 0 l 269 0 z "},"X":{"ha":940,"x_min":60,"x_max":879,"o":"m 60 0 l 379 446 l 67 894 l 242 894 l 469 563 l 697 894 l 874 894 l 560 446 l 879 0 l 701 0 l 469 328 l 238 0 l 60 0 z "},"Y":{"ha":911,"x_min":60,"x_max":851,"o":"m 381 0 l 381 332 l 60 894 l 217 894 l 456 460 l 694 894 l 851 894 l 531 332 l 531 0 l 381 0 z "},"Ý":{"ha":911,"x_min":60,"x_max":851,"o":"m 381 956 l 485 1201 l 618 1201 l 501 956 l 381 956 m 381 0 l 381 332 l 60 894 l 217 894 l 456 460 l 694 894 l 851 894 l 531 332 l 531 0 l 381 0 z "},"Ŷ":{"ha":911,"x_min":60,"x_max":851,"o":"m 229 954 l 403 1178 l 508 1178 l 682 954 l 561 954 l 456 1094 l 353 954 l 229 954 m 381 0 l 381 332 l 60 894 l 217 894 l 456 460 l 694 894 l 851 894 l 531 332 l 531 0 l 381 0 z "},"Ÿ":{"ha":911,"x_min":60,"x_max":851,"o":"m 263 989 l 263 1108 l 390 1108 l 390 989 l 263 989 m 521 989 l 521 1108 l 649 1108 l 649 989 l 521 989 m 381 0 l 381 332 l 60 894 l 217 894 l 456 460 l 694 894 l 851 894 l 531 332 l 531 0 l 381 0 z "},"Ẏ":{"ha":911,"x_min":60,"x_max":851,"o":"m 392 988 l 392 1110 l 519 1110 l 519 988 l 392 988 m 381 0 l 381 332 l 60 894 l 217 894 l 456 460 l 694 894 l 851 894 l 531 332 l 531 0 l 381 0 z "},"Ỵ":{"ha":911,"x_min":60,"x_max":851,"o":"m 381 0 l 381 332 l 60 894 l 217 894 l 456 460 l 694 894 l 851 894 l 531 332 l 531 0 l 381 0 m 390 -224 l 390 -101 l 521 -101 l 521 -224 l 390 -224 z "},"Ỳ":{"ha":911,"x_min":60,"x_max":851,"o":"m 410 956 l 294 1201 l 426 1201 l 532 956 l 410 956 m 381 0 l 381 332 l 60 894 l 217 894 l 456 460 l 694 894 l 851 894 l 531 332 l 531 0 l 381 0 z "},"Ỷ":{"ha":911,"x_min":60,"x_max":851,"o":"m 386 954 l 386 1068 q 490 1088 465 1072 q 514 1138 514 1103 q 411 1196 514 1196 q 365 1191 390 1196 q 322 1179 340 1186 l 322 1261 q 381 1274 346 1269 q 451 1279 417 1279 q 582 1244 538 1279 q 626 1150 626 1210 q 599 1062 626 1093 q 504 1019 572 1031 l 504 954 l 386 954 m 381 0 l 381 332 l 60 894 l 217 894 l 456 460 l 694 894 l 851 894 l 531 332 l 531 0 l 381 0 z "},"Ỹ":{"ha":911,"x_min":60,"x_max":851,"o":"m 567 976 q 492 990 529 976 q 422 1017 456 1004 q 356 1031 388 1031 q 289 1019 319 1031 q 235 981 258 1008 l 235 1092 q 285 1122 253 1111 q 353 1133 318 1133 q 428 1120 393 1133 q 496 1093 463 1107 q 565 1079 529 1079 q 676 1131 638 1079 l 676 1019 q 633 989 663 1001 q 567 976 604 976 m 381 0 l 381 332 l 60 894 l 217 894 l 456 460 l 694 894 l 851 894 l 531 332 l 531 0 l 381 0 z "},"Z":{"ha":799,"x_min":60,"x_max":742,"o":"m 60 0 l 60 81 l 540 771 l 83 771 l 83 894 l 735 894 l 735 801 l 258 117 l 742 117 l 742 0 l 60 0 z "},"Ź":{"ha":799,"x_min":60,"x_max":742,"o":"m 347 956 l 451 1201 l 585 1201 l 468 956 l 347 956 m 60 0 l 60 81 l 540 771 l 83 771 l 83 894 l 735 894 l 735 801 l 258 117 l 742 117 l 742 0 l 60 0 z "},"Ž":{"ha":799,"x_min":60,"x_max":742,"o":"m 374 954 l 200 1178 l 324 1178 l 426 1038 l 532 1178 l 653 1178 l 479 954 l 374 954 m 60 0 l 60 81 l 540 771 l 83 771 l 83 894 l 735 894 l 735 801 l 258 117 l 742 117 l 742 0 l 60 0 z "},"Ż":{"ha":799,"x_min":60,"x_max":742,"o":"m 351 988 l 351 1110 l 479 1110 l 479 988 l 351 988 m 60 0 l 60 81 l 540 771 l 83 771 l 83 894 l 735 894 l 735 801 l 258 117 l 742 117 l 742 0 l 60 0 z "},"Ẓ":{"ha":799,"x_min":60,"x_max":742,"o":"m 60 0 l 60 81 l 540 771 l 83 771 l 83 894 l 735 894 l 735 801 l 258 117 l 742 117 l 742 0 l 60 0 m 356 -240 l 356 -118 l 486 -118 l 486 -240 l 356 -240 z "},"a":{"ha":760,"x_min":60,"x_max":679,"o":"m 293 -14 q 177 8 231 -14 q 92 76 124 31 q 60 188 60 121 q 124 340 60 282 q 324 397 189 397 l 535 397 l 535 426 q 520 501 535 474 q 467 542 506 529 q 356 554 429 554 q 138 519 239 554 l 138 632 q 246 661 182 650 q 383 672 310 672 q 603 614 528 672 q 679 424 679 556 l 679 0 l 550 0 l 540 67 q 441 7 500 28 q 293 -14 382 -14 m 333 94 q 452 117 401 94 q 535 179 503 140 l 535 294 l 326 294 q 230 269 260 294 q 200 190 200 243 q 235 117 200 139 q 333 94 269 94 z "},"á":{"ha":763,"x_min":60,"x_max":679,"o":"m 328 725 l 432 971 l 565 971 l 449 725 l 328 725 m 293 -14 q 177 8 231 -14 q 92 76 124 31 q 60 188 60 121 q 124 340 60 282 q 324 397 189 397 l 535 397 l 535 426 q 520 501 535 474 q 467 542 506 529 q 356 554 429 554 q 138 519 239 554 l 138 632 q 246 661 182 650 q 383 672 310 672 q 603 614 528 672 q 679 424 679 556 l 679 0 l 550 0 l 540 67 q 441 7 500 28 q 293 -14 382 -14 m 333 94 q 452 117 401 94 q 535 179 503 140 l 535 294 l 326 294 q 230 269 260 294 q 200 190 200 243 q 235 117 200 139 q 333 94 269 94 z "},"ă":{"ha":760,"x_min":60,"x_max":679,"o":"m 404 725 q 260 778 313 725 q 208 921 208 832 l 311 921 q 335 844 311 874 q 404 815 360 815 q 476 844 451 815 q 501 921 501 874 l 604 921 q 551 778 604 832 q 404 725 497 725 m 293 -14 q 177 8 231 -14 q 92 76 124 31 q 60 188 60 121 q 124 340 60 282 q 324 397 189 397 l 535 397 l 535 426 q 520 501 535 474 q 467 542 506 529 q 356 554 429 554 q 138 519 239 554 l 138 632 q 246 661 182 650 q 383 672 310 672 q 603 614 528 672 q 679 424 679 556 l 679 0 l 550 0 l 540 67 q 441 7 500 28 q 293 -14 382 -14 m 333 94 q 452 117 401 94 q 535 179 503 140 l 535 294 l 326 294 q 230 269 260 294 q 200 190 200 243 q 235 117 200 139 q 333 94 269 94 z "},"ắ":{"ha":760,"x_min":60,"x_max":679,"o":"m 343 888 l 432 1072 l 549 1072 l 450 888 l 343 888 m 408 725 q 299 745 349 725 q 221 811 250 765 q 192 931 192 857 l 283 931 q 317 838 283 869 q 408 807 351 807 q 499 838 465 807 q 533 931 533 869 l 625 931 q 596 811 625 857 q 518 745 567 765 q 408 725 469 725 m 293 -14 q 177 8 231 -14 q 92 76 124 31 q 60 188 60 121 q 124 340 60 282 q 324 397 189 397 l 535 397 l 535 426 q 520 501 535 474 q 467 542 506 529 q 356 554 429 554 q 138 519 239 554 l 138 632 q 246 661 182 650 q 383 672 310 672 q 603 614 528 672 q 679 424 679 556 l 679 0 l 550 0 l 540 67 q 441 7 500 28 q 293 -14 382 -14 m 333 94 q 452 117 401 94 q 535 179 503 140 l 535 294 l 326 294 q 230 269 260 294 q 200 190 200 243 q 235 117 200 139 q 333 94 269 94 z "},"ặ":{"ha":760,"x_min":60,"x_max":679,"o":"m 401 725 q 258 778 310 725 q 206 921 206 832 l 308 921 q 333 844 308 874 q 401 815 357 815 q 474 844 449 815 q 499 921 499 874 l 601 921 q 548 778 601 832 q 401 725 494 725 m 293 -14 q 177 8 231 -14 q 92 76 124 31 q 60 188 60 121 q 124 340 60 282 q 324 397 189 397 l 535 397 l 535 426 q 520 501 535 474 q 467 542 506 529 q 356 554 429 554 q 138 519 239 554 l 138 632 q 246 661 182 650 q 383 672 310 672 q 603 614 528 672 q 679 424 679 556 l 679 0 l 550 0 l 540 67 q 441 7 500 28 q 293 -14 382 -14 m 333 94 q 452 117 401 94 q 535 179 503 140 l 535 294 l 326 294 q 230 269 260 294 q 200 190 200 243 q 235 117 200 139 q 333 94 269 94 m 338 -240 l 338 -118 l 468 -118 l 468 -240 l 338 -240 z "},"ằ":{"ha":760,"x_min":60,"x_max":679,"o":"m 344 888 l 246 1072 l 363 1072 l 451 888 l 344 888 m 386 725 q 277 745 326 725 q 199 811 228 765 q 169 931 169 857 l 261 931 q 295 838 261 869 q 386 807 329 807 q 477 838 443 807 q 511 931 511 869 l 603 931 q 574 811 603 857 q 496 745 544 765 q 386 725 447 725 m 293 -14 q 177 8 231 -14 q 92 76 124 31 q 60 188 60 121 q 124 340 60 282 q 324 397 189 397 l 535 397 l 535 426 q 520 501 535 474 q 467 542 506 529 q 356 554 429 554 q 138 519 239 554 l 138 632 q 246 661 182 650 q 383 672 310 672 q 603 614 528 672 q 679 424 679 556 l 679 0 l 550 0 l 540 67 q 441 7 500 28 q 293 -14 382 -14 m 333 94 q 452 117 401 94 q 535 179 503 140 l 535 294 l 326 294 q 230 269 260 294 q 200 190 200 243 q 235 117 200 139 q 333 94 269 94 z "},"ẳ":{"ha":760,"x_min":60,"x_max":679,"o":"m 325 894 l 325 976 q 415 994 392 979 q 438 1036 438 1010 q 419 1073 438 1064 q 365 1082 401 1082 q 324 1077 343 1082 q 289 1065 306 1072 l 289 1136 q 340 1148 310 1143 q 401 1153 369 1153 q 503 1124 467 1153 q 539 1046 539 1094 q 514 976 539 1000 q 431 940 489 951 l 431 894 l 325 894 m 386 725 q 277 745 326 725 q 199 811 228 765 q 169 931 169 857 l 261 931 q 295 838 261 869 q 386 807 329 807 q 477 838 443 807 q 511 931 511 869 l 603 931 q 574 811 603 857 q 496 745 544 765 q 386 725 447 725 m 293 -14 q 177 8 231 -14 q 92 76 124 31 q 60 188 60 121 q 124 340 60 282 q 324 397 189 397 l 535 397 l 535 426 q 520 501 535 474 q 467 542 506 529 q 356 554 429 554 q 138 519 239 554 l 138 632 q 246 661 182 650 q 383 672 310 672 q 603 614 528 672 q 679 424 679 556 l 679 0 l 550 0 l 540 67 q 441 7 500 28 q 293 -14 382 -14 m 333 94 q 452 117 401 94 q 535 179 503 140 l 535 294 l 326 294 q 230 269 260 294 q 200 190 200 243 q 235 117 200 139 q 333 94 269 94 z "},"ẵ":{"ha":760,"x_min":60,"x_max":679,"o":"m 496 960 q 424 973 460 960 q 356 999 389 986 q 292 1011 324 1011 q 228 1000 257 1011 q 176 964 200 989 l 176 1063 q 226 1092 194 1081 q 290 1103 257 1103 q 363 1090 329 1103 q 428 1063 396 1076 q 494 1050 460 1050 q 601 1100 567 1050 l 601 1000 q 560 971 588 982 q 496 960 532 960 m 388 725 q 278 745 328 725 q 200 811 229 765 q 171 931 171 857 l 263 931 q 297 838 263 869 q 388 807 331 807 q 478 838 444 807 q 513 931 513 869 l 604 931 q 575 811 604 857 q 497 745 546 765 q 388 725 449 725 m 293 -14 q 177 8 231 -14 q 92 76 124 31 q 60 188 60 121 q 124 340 60 282 q 324 397 189 397 l 535 397 l 535 426 q 520 501 535 474 q 467 542 506 529 q 356 554 429 554 q 138 519 239 554 l 138 632 q 246 661 182 650 q 383 672 310 672 q 603 614 528 672 q 679 424 679 556 l 679 0 l 550 0 l 540 67 q 441 7 500 28 q 293 -14 382 -14 m 333 94 q 452 117 401 94 q 535 179 503 140 l 535 294 l 326 294 q 230 269 260 294 q 200 190 200 243 q 235 117 200 139 q 333 94 269 94 z "},"ǎ":{"ha":760,"x_min":60,"x_max":679,"o":"m 340 724 l 167 947 l 290 947 l 393 807 l 499 947 l 619 947 l 446 724 l 340 724 m 293 -14 q 177 8 231 -14 q 92 76 124 31 q 60 188 60 121 q 124 340 60 282 q 324 397 189 397 l 535 397 l 535 426 q 520 501 535 474 q 467 542 506 529 q 356 554 429 554 q 138 519 239 554 l 138 632 q 246 661 182 650 q 383 672 310 672 q 603 614 528 672 q 679 424 679 556 l 679 0 l 550 0 l 540 67 q 441 7 500 28 q 293 -14 382 -14 m 333 94 q 452 117 401 94 q 535 179 503 140 l 535 294 l 326 294 q 230 269 260 294 q 200 190 200 243 q 235 117 200 139 q 333 94 269 94 z "},"â":{"ha":760,"x_min":60,"x_max":679,"o":"m 169 724 l 343 947 l 449 947 l 622 724 l 501 724 l 396 864 l 293 724 l 169 724 m 293 -14 q 177 8 231 -14 q 92 76 124 31 q 60 188 60 121 q 124 340 60 282 q 324 397 189 397 l 535 397 l 535 426 q 520 501 535 474 q 467 542 506 529 q 356 554 429 554 q 138 519 239 554 l 138 632 q 246 661 182 650 q 383 672 310 672 q 603 614 528 672 q 679 424 679 556 l 679 0 l 550 0 l 540 67 q 441 7 500 28 q 293 -14 382 -14 m 333 94 q 452 117 401 94 q 535 179 503 140 l 535 294 l 326 294 q 230 269 260 294 q 200 190 200 243 q 235 117 200 139 q 333 94 269 94 z "},"ấ":{"ha":760,"x_min":60,"x_max":729,"o":"m 525 881 l 614 1065 l 729 1065 l 632 881 l 525 881 m 175 724 l 340 900 l 457 900 l 622 724 l 499 724 l 399 838 l 301 724 l 175 724 m 293 -14 q 177 8 231 -14 q 92 76 124 31 q 60 188 60 121 q 124 340 60 282 q 324 397 189 397 l 535 397 l 535 426 q 520 501 535 474 q 467 542 506 529 q 356 554 429 554 q 138 519 239 554 l 138 632 q 246 661 182 650 q 383 672 310 672 q 603 614 528 672 q 679 424 679 556 l 679 0 l 550 0 l 540 67 q 441 7 500 28 q 293 -14 382 -14 m 333 94 q 452 117 401 94 q 535 179 503 140 l 535 294 l 326 294 q 230 269 260 294 q 200 190 200 243 q 235 117 200 139 q 333 94 269 94 z "},"ậ":{"ha":760,"x_min":60,"x_max":679,"o":"m 167 724 l 340 947 l 446 947 l 619 724 l 499 724 l 393 864 l 290 724 l 167 724 m 293 -14 q 177 8 231 -14 q 92 76 124 31 q 60 188 60 121 q 124 340 60 282 q 324 397 189 397 l 535 397 l 535 426 q 520 501 535 474 q 467 542 506 529 q 356 554 429 554 q 138 519 239 554 l 138 632 q 246 661 182 650 q 383 672 310 672 q 603 614 528 672 q 679 424 679 556 l 679 0 l 550 0 l 540 67 q 441 7 500 28 q 293 -14 382 -14 m 333 94 q 452 117 401 94 q 535 179 503 140 l 535 294 l 326 294 q 230 269 260 294 q 200 190 200 243 q 235 117 200 139 q 333 94 269 94 m 328 -240 l 328 -118 l 458 -118 l 458 -240 l 328 -240 z "},"ầ":{"ha":760,"x_min":53,"x_max":679,"o":"m 151 881 l 53 1065 l 169 1065 l 258 881 l 151 881 m 161 724 l 325 900 l 443 900 l 607 724 l 482 724 l 383 838 l 285 724 l 161 724 m 293 -14 q 177 8 231 -14 q 92 76 124 31 q 60 188 60 121 q 124 340 60 282 q 324 397 189 397 l 535 397 l 535 426 q 520 501 535 474 q 467 542 506 529 q 356 554 429 554 q 138 519 239 554 l 138 632 q 246 661 182 650 q 383 672 310 672 q 603 614 528 672 q 679 424 679 556 l 679 0 l 550 0 l 540 67 q 441 7 500 28 q 293 -14 382 -14 m 333 94 q 452 117 401 94 q 535 179 503 140 l 535 294 l 326 294 q 230 269 260 294 q 200 190 200 243 q 235 117 200 139 q 333 94 269 94 z "},"ẩ":{"ha":760,"x_min":60,"x_max":740,"o":"m 526 850 l 526 942 q 613 958 593 944 q 633 996 633 971 q 568 1039 633 1039 q 526 1034 546 1039 q 490 1022 507 1029 l 490 1096 q 537 1108 511 1103 q 597 1113 563 1113 q 703 1083 665 1113 q 740 1004 740 1053 q 715 932 740 958 q 633 897 690 906 l 633 850 l 526 850 m 165 722 l 329 899 l 447 899 l 611 722 l 488 722 l 389 836 l 290 722 l 165 722 m 293 -14 q 177 8 231 -14 q 92 76 124 31 q 60 188 60 121 q 124 340 60 282 q 324 397 189 397 l 535 397 l 535 426 q 520 501 535 474 q 467 542 506 529 q 356 554 429 554 q 138 519 239 554 l 138 632 q 246 661 182 650 q 383 672 310 672 q 603 614 528 672 q 679 424 679 556 l 679 0 l 550 0 l 540 67 q 441 7 500 28 q 293 -14 382 -14 m 333 94 q 452 117 401 94 q 535 179 503 140 l 535 294 l 326 294 q 230 269 260 294 q 200 190 200 243 q 235 117 200 139 q 333 94 269 94 z "},"ẫ":{"ha":760,"x_min":60,"x_max":679,"o":"m 510 911 q 438 924 474 911 q 370 951 403 938 q 306 964 338 964 q 242 953 271 964 q 190 915 214 942 l 190 1014 q 240 1043 208 1032 q 304 1054 271 1054 q 376 1042 343 1054 q 442 1016 410 1029 q 508 1003 474 1003 q 615 1051 579 1003 l 615 953 q 574 923 601 935 q 510 911 546 911 m 172 724 l 336 900 l 454 900 l 618 724 l 494 724 l 396 838 l 297 724 l 172 724 m 293 -14 q 177 8 231 -14 q 92 76 124 31 q 60 188 60 121 q 124 340 60 282 q 324 397 189 397 l 535 397 l 535 426 q 520 501 535 474 q 467 542 506 529 q 356 554 429 554 q 138 519 239 554 l 138 632 q 246 661 182 650 q 383 672 310 672 q 603 614 528 672 q 679 424 679 556 l 679 0 l 550 0 l 540 67 q 441 7 500 28 q 293 -14 382 -14 m 333 94 q 452 117 401 94 q 535 179 503 140 l 535 294 l 326 294 q 230 269 260 294 q 200 190 200 243 q 235 117 200 139 q 333 94 269 94 z "},"ä":{"ha":760,"x_min":60,"x_max":679,"o":"m 211 758 l 211 878 l 339 878 l 339 758 l 211 758 m 469 758 l 469 878 l 597 878 l 597 758 l 469 758 m 293 -14 q 177 8 231 -14 q 92 76 124 31 q 60 188 60 121 q 124 340 60 282 q 324 397 189 397 l 535 397 l 535 426 q 520 501 535 474 q 467 542 506 529 q 356 554 429 554 q 138 519 239 554 l 138 632 q 246 661 182 650 q 383 672 310 672 q 603 614 528 672 q 679 424 679 556 l 679 0 l 550 0 l 540 67 q 441 7 500 28 q 293 -14 382 -14 m 333 94 q 452 117 401 94 q 535 179 503 140 l 535 294 l 326 294 q 230 269 260 294 q 200 190 200 243 q 235 117 200 139 q 333 94 269 94 z "},"ạ":{"ha":760,"x_min":60,"x_max":679,"o":"m 293 -14 q 177 8 231 -14 q 92 76 124 31 q 60 188 60 121 q 124 340 60 282 q 324 397 189 397 l 535 397 l 535 426 q 520 501 535 474 q 467 542 506 529 q 356 554 429 554 q 138 519 239 554 l 138 632 q 246 661 182 650 q 383 672 310 672 q 603 614 528 672 q 679 424 679 556 l 679 0 l 550 0 l 540 67 q 441 7 500 28 q 293 -14 382 -14 m 333 94 q 452 117 401 94 q 535 179 503 140 l 535 294 l 326 294 q 230 269 260 294 q 200 190 200 243 q 235 117 200 139 q 333 94 269 94 m 335 -240 l 335 -118 l 465 -118 l 465 -240 l 335 -240 z "},"à":{"ha":760,"x_min":60,"x_max":679,"o":"m 349 725 l 233 971 l 365 971 l 471 725 l 349 725 m 293 -14 q 177 8 231 -14 q 92 76 124 31 q 60 188 60 121 q 124 340 60 282 q 324 397 189 397 l 535 397 l 535 426 q 520 501 535 474 q 467 542 506 529 q 356 554 429 554 q 138 519 239 554 l 138 632 q 246 661 182 650 q 383 672 310 672 q 603 614 528 672 q 679 424 679 556 l 679 0 l 550 0 l 540 67 q 441 7 500 28 q 293 -14 382 -14 m 333 94 q 452 117 401 94 q 535 179 503 140 l 535 294 l 326 294 q 230 269 260 294 q 200 190 200 243 q 235 117 200 139 q 333 94 269 94 z "},"ả":{"ha":760,"x_min":60,"x_max":679,"o":"m 325 724 l 325 838 q 428 857 404 842 q 453 907 453 872 q 350 965 453 965 q 304 960 329 965 q 261 949 279 956 l 261 1031 q 320 1044 285 1039 q 390 1049 356 1049 q 521 1014 476 1049 q 565 919 565 979 q 538 831 565 863 q 443 789 511 800 l 443 724 l 325 724 m 293 -14 q 177 8 231 -14 q 92 76 124 31 q 60 188 60 121 q 124 340 60 282 q 324 397 189 397 l 535 397 l 535 426 q 520 501 535 474 q 467 542 506 529 q 356 554 429 554 q 138 519 239 554 l 138 632 q 246 661 182 650 q 383 672 310 672 q 603 614 528 672 q 679 424 679 556 l 679 0 l 550 0 l 540 67 q 441 7 500 28 q 293 -14 382 -14 m 333 94 q 452 117 401 94 q 535 179 503 140 l 535 294 l 326 294 q 230 269 260 294 q 200 190 200 243 q 235 117 200 139 q 333 94 269 94 z "},"ɑ":{"ha":810,"x_min":60,"x_max":721,"o":"m 360 -14 q 203 16 271 -14 q 97 115 135 46 q 60 303 60 185 q 102 501 60 418 q 217 628 144 583 q 378 672 289 672 q 482 658 438 672 q 569 613 526 644 l 569 658 l 721 658 l 721 0 l 592 0 l 582 65 q 485 6 538 25 q 360 -14 432 -14 m 400 100 q 569 169 501 100 l 569 496 q 503 541 539 525 q 418 557 468 557 q 264 491 315 557 q 213 301 213 425 q 258 142 213 185 q 400 100 303 100 z "},"ā":{"ha":760,"x_min":60,"x_max":679,"o":"m 192 754 l 192 853 l 606 853 l 606 754 l 192 754 m 293 -14 q 177 8 231 -14 q 92 76 124 31 q 60 188 60 121 q 124 340 60 282 q 324 397 189 397 l 535 397 l 535 426 q 520 501 535 474 q 467 542 506 529 q 356 554 429 554 q 138 519 239 554 l 138 632 q 246 661 182 650 q 383 672 310 672 q 603 614 528 672 q 679 424 679 556 l 679 0 l 550 0 l 540 67 q 441 7 500 28 q 293 -14 382 -14 m 333 94 q 452 117 401 94 q 535 179 503 140 l 535 294 l 326 294 q 230 269 260 294 q 200 190 200 243 q 235 117 200 139 q 333 94 269 94 z "},"ą":{"ha":772,"x_min":60,"x_max":703,"o":"m 293 -14 q 177 8 231 -14 q 92 76 124 31 q 60 188 60 121 q 124 340 60 282 q 324 397 189 397 l 535 397 l 535 426 q 520 501 535 474 q 467 542 506 529 q 356 554 429 554 q 138 519 239 554 l 138 632 q 246 661 182 650 q 383 672 310 672 q 603 614 528 672 q 679 424 679 556 l 679 0 l 664 0 q 594 -74 619 -35 q 568 -156 568 -114 q 585 -199 568 -187 q 633 -211 603 -211 q 671 -207 651 -211 q 703 -196 690 -203 l 703 -287 q 656 -301 685 -296 q 596 -306 626 -306 q 492 -276 536 -306 q 447 -182 447 -246 q 475 -81 447 -129 q 550 0 503 -32 l 540 67 q 441 7 500 28 q 293 -14 382 -14 m 333 94 q 452 117 401 94 q 535 179 503 140 l 535 294 l 326 294 q 230 269 260 294 q 200 190 200 243 q 235 117 200 139 q 333 94 269 94 z "},"å":{"ha":760,"x_min":60,"x_max":679,"o":"m 404 724 q 288 769 332 724 q 243 881 243 815 q 288 993 243 947 q 404 1039 332 1039 q 524 993 479 1039 q 568 881 568 947 q 524 769 568 815 q 404 724 479 724 m 404 799 q 466 822 443 799 q 489 881 489 846 q 466 939 489 915 q 404 963 443 963 q 345 939 368 963 q 322 881 322 915 q 345 822 322 846 q 404 799 368 799 m 293 -14 q 177 8 231 -14 q 92 76 124 31 q 60 188 60 121 q 124 340 60 282 q 324 397 189 397 l 535 397 l 535 426 q 520 501 535 474 q 467 542 506 529 q 356 554 429 554 q 138 519 239 554 l 138 632 q 246 661 182 650 q 383 672 310 672 q 603 614 528 672 q 679 424 679 556 l 679 0 l 550 0 l 540 67 q 441 7 500 28 q 293 -14 382 -14 m 333 94 q 452 117 401 94 q 535 179 503 140 l 535 294 l 326 294 q 230 269 260 294 q 200 190 200 243 q 235 117 200 139 q 333 94 269 94 z "},"ǻ":{"ha":760,"x_min":60,"x_max":679,"o":"m 326 1089 l 431 1285 l 564 1285 l 447 1089 l 326 1089 m 392 718 q 275 764 319 718 q 231 875 231 810 q 275 988 231 942 q 392 1033 319 1033 q 511 988 467 1033 q 556 875 556 942 q 511 764 556 810 q 392 718 467 718 m 392 793 q 453 817 431 793 q 476 875 476 840 q 453 933 476 910 q 392 957 431 957 q 333 933 356 957 q 310 875 310 910 q 333 817 310 840 q 392 793 356 793 m 293 -14 q 177 8 231 -14 q 92 76 124 31 q 60 188 60 121 q 124 340 60 282 q 324 397 189 397 l 535 397 l 535 426 q 520 501 535 474 q 467 542 506 529 q 356 554 429 554 q 138 519 239 554 l 138 632 q 246 661 182 650 q 383 672 310 672 q 603 614 528 672 q 679 424 679 556 l 679 0 l 550 0 l 540 67 q 441 7 500 28 q 293 -14 382 -14 m 333 94 q 452 117 401 94 q 535 179 503 140 l 535 294 l 326 294 q 230 269 260 294 q 200 190 200 243 q 235 117 200 139 q 333 94 269 94 z "},"ã":{"ha":760,"x_min":60,"x_max":679,"o":"m 511 746 q 437 760 474 746 q 366 787 400 774 q 300 800 332 800 q 233 789 264 800 q 179 750 203 778 l 179 861 q 230 892 197 881 q 297 903 263 903 q 372 890 338 903 q 440 863 407 876 q 510 849 474 849 q 621 900 582 849 l 621 789 q 578 758 607 771 q 511 746 549 746 m 293 -14 q 177 8 231 -14 q 92 76 124 31 q 60 188 60 121 q 124 340 60 282 q 324 397 189 397 l 535 397 l 535 426 q 520 501 535 474 q 467 542 506 529 q 356 554 429 554 q 138 519 239 554 l 138 632 q 246 661 182 650 q 383 672 310 672 q 603 614 528 672 q 679 424 679 556 l 679 0 l 550 0 l 540 67 q 441 7 500 28 q 293 -14 382 -14 m 333 94 q 452 117 401 94 q 535 179 503 140 l 535 294 l 326 294 q 230 269 260 294 q 200 190 200 243 q 235 117 200 139 q 333 94 269 94 z "},"æ":{"ha":1224,"x_min":60,"x_max":1164,"o":"m 301 -14 q 181 8 236 -14 q 92 76 125 31 q 60 188 60 121 q 124 340 60 282 q 324 397 189 397 l 535 397 l 535 426 q 520 501 535 474 q 467 542 506 529 q 356 554 429 554 q 138 519 239 554 l 138 632 q 246 661 182 650 q 383 672 310 672 q 624 585 553 672 q 724 649 664 625 q 863 672 785 672 q 1088 594 1013 672 q 1164 392 1164 515 l 1164 269 l 682 269 q 751 137 693 174 q 929 100 810 100 q 1032 109 979 100 q 1124 135 1085 118 l 1124 25 q 1022 -4 1079 6 q 899 -14 964 -14 q 735 15 808 -14 q 619 101 663 43 q 544 43 586 69 q 444 1 503 17 q 301 -14 386 -14 m 682 368 l 1031 368 l 1031 414 q 993 520 1031 482 q 867 558 956 558 q 722 513 761 558 q 682 368 682 467 m 333 94 q 453 116 406 94 q 535 176 500 138 l 535 294 l 326 294 q 230 269 260 294 q 200 190 200 243 q 235 117 200 139 q 333 94 269 94 z "},"ǽ":{"ha":1224,"x_min":60,"x_max":1164,"o":"m 544 725 l 649 971 l 782 971 l 665 725 l 544 725 m 301 -14 q 181 8 236 -14 q 92 76 125 31 q 60 188 60 121 q 124 340 60 282 q 324 397 189 397 l 535 397 l 535 426 q 520 501 535 474 q 467 542 506 529 q 356 554 429 554 q 138 519 239 554 l 138 632 q 246 661 182 650 q 383 672 310 672 q 624 585 553 672 q 724 649 664 625 q 863 672 785 672 q 1088 594 1013 672 q 1164 392 1164 515 l 1164 269 l 682 269 q 751 137 693 174 q 929 100 810 100 q 1032 109 979 100 q 1124 135 1085 118 l 1124 25 q 1022 -4 1079 6 q 899 -14 964 -14 q 735 15 808 -14 q 619 101 663 43 q 544 43 586 69 q 444 1 503 17 q 301 -14 386 -14 m 682 368 l 1031 368 l 1031 414 q 993 520 1031 482 q 867 558 956 558 q 722 513 761 558 q 682 368 682 467 m 333 94 q 453 116 406 94 q 535 176 500 138 l 535 294 l 326 294 q 230 269 260 294 q 200 190 200 243 q 235 117 200 139 q 333 94 269 94 z "},"b":{"ha":808,"x_min":88,"x_max":749,"o":"m 449 -14 q 324 6 376 -14 q 226 65 271 25 l 218 0 l 88 0 l 88 936 l 239 936 l 239 615 q 446 672 325 672 q 667 592 586 672 q 749 335 749 513 q 668 71 749 156 q 449 -14 588 -14 m 408 100 q 553 158 511 100 q 596 335 596 217 q 550 507 596 457 q 406 557 504 557 q 239 500 303 557 l 239 169 q 408 100 304 100 z "},"c":{"ha":658,"x_min":60,"x_max":625,"o":"m 411 -14 q 149 74 238 -14 q 60 329 60 163 q 158 588 60 503 q 419 672 256 672 q 534 663 488 672 q 624 632 581 653 l 624 519 q 449 556 551 556 q 274 505 335 556 q 213 329 213 454 q 267 156 213 211 q 446 101 321 101 q 625 139 544 101 l 625 24 q 527 -4 579 6 q 411 -14 475 -14 z "},"ć":{"ha":685,"x_min":60,"x_max":625,"o":"m 315 725 l 419 971 l 553 971 l 436 725 l 315 725 m 411 -14 q 149 74 238 -14 q 60 329 60 163 q 158 588 60 503 q 419 672 256 672 q 534 663 488 672 q 624 632 581 653 l 624 519 q 449 556 551 556 q 274 505 335 556 q 213 329 213 454 q 267 156 213 211 q 446 101 321 101 q 625 139 544 101 l 625 24 q 527 -4 579 6 q 411 -14 475 -14 z "},"č":{"ha":686,"x_min":60,"x_max":625,"o":"m 331 724 l 157 947 l 281 947 l 383 807 l 489 947 l 610 947 l 436 724 l 331 724 m 411 -14 q 149 74 238 -14 q 60 329 60 163 q 158 588 60 503 q 419 672 256 672 q 534 663 488 672 q 624 632 581 653 l 624 519 q 449 556 551 556 q 274 505 335 556 q 213 329 213 454 q 267 156 213 211 q 446 101 321 101 q 625 139 544 101 l 625 24 q 527 -4 579 6 q 411 -14 475 -14 z "},"ç":{"ha":685,"x_min":60,"x_max":625,"o":"m 369 -333 q 315 -330 347 -333 q 268 -322 283 -326 l 268 -240 q 354 -251 308 -251 q 444 -240 417 -251 q 472 -189 472 -228 q 443 -141 472 -150 q 360 -132 414 -132 l 304 -132 l 342 -10 q 131 94 201 7 q 60 329 60 181 q 158 588 60 503 q 419 672 256 672 q 534 663 488 672 q 624 632 581 653 l 624 519 q 449 556 551 556 q 274 505 335 556 q 213 329 213 454 q 267 156 213 211 q 446 101 321 101 q 625 139 544 101 l 625 24 q 442 -14 544 -10 l 424 -65 q 537 -99 499 -65 q 575 -190 575 -132 q 526 -296 575 -258 q 369 -333 476 -333 z "},"ĉ":{"ha":685,"x_min":60,"x_max":625,"o":"m 154 724 l 328 947 l 433 947 l 607 724 l 486 724 l 381 864 l 278 724 l 154 724 m 411 -14 q 149 74 238 -14 q 60 329 60 163 q 158 588 60 503 q 419 672 256 672 q 534 663 488 672 q 624 632 581 653 l 624 519 q 449 556 551 556 q 274 505 335 556 q 213 329 213 454 q 267 156 213 211 q 446 101 321 101 q 625 139 544 101 l 625 24 q 527 -4 579 6 q 411 -14 475 -14 z "},"ċ":{"ha":685,"x_min":60,"x_max":625,"o":"m 326 757 l 326 879 l 454 879 l 454 757 l 326 757 m 411 -14 q 149 74 238 -14 q 60 329 60 163 q 158 588 60 503 q 419 672 256 672 q 534 663 488 672 q 624 632 581 653 l 624 519 q 449 556 551 556 q 274 505 335 556 q 213 329 213 454 q 267 156 213 211 q 446 101 321 101 q 625 139 544 101 l 625 24 q 527 -4 579 6 q 411 -14 475 -14 z "},"d":{"ha":808,"x_min":60,"x_max":721,"o":"m 360 -14 q 203 17 271 -14 q 97 118 135 47 q 60 308 60 189 q 100 508 60 426 q 212 631 140 589 q 374 672 283 672 q 480 658 433 672 q 569 615 526 644 l 569 936 l 721 936 l 721 0 l 592 0 l 582 65 q 485 6 538 25 q 360 -14 432 -14 m 400 100 q 569 169 501 100 l 569 499 q 406 557 504 557 q 261 493 310 557 q 213 307 213 429 q 258 144 213 189 q 400 100 303 100 z "},"ð":{"ha":796,"x_min":60,"x_max":768,"o":"m 397 -14 q 142 64 224 -14 q 60 274 60 142 q 141 487 60 414 q 369 560 222 560 q 483 542 422 560 q 593 489 544 525 l 593 546 q 587 639 593 597 q 565 711 581 681 l 388 633 l 388 711 l 519 768 q 381 806 469 806 q 273 796 321 806 q 182 771 225 786 l 182 875 q 282 899 226 890 q 401 908 338 908 q 540 885 481 908 q 640 822 600 863 l 768 878 l 768 799 l 685 763 q 736 531 736 669 l 736 332 q 651 69 736 153 q 397 -14 565 -14 m 396 92 q 544 140 494 92 q 593 292 593 189 l 593 392 q 500 440 551 421 q 397 460 449 460 q 241 410 286 460 q 196 274 196 360 q 246 140 196 189 q 396 92 296 92 z "},"ď":{"ha":967,"x_min":60,"x_max":967,"o":"m 360 -14 q 142 67 225 -14 q 60 326 60 147 q 145 588 60 504 q 367 672 231 672 q 569 615 486 672 l 569 936 l 721 936 l 721 0 l 592 0 l 582 65 q 485 6 538 25 q 360 -14 432 -14 m 801 674 l 842 936 l 967 936 l 903 674 l 801 674 m 400 100 q 569 169 501 100 l 569 499 q 406 557 504 557 q 261 502 310 557 q 213 325 213 447 q 258 153 213 207 q 400 100 303 100 z "},"đ":{"ha":808,"x_min":60,"x_max":789,"o":"m 360 -14 q 142 67 225 -14 q 60 326 60 147 q 145 588 60 504 q 367 672 231 672 q 569 615 486 672 l 569 743 l 344 743 l 344 851 l 569 851 l 569 936 l 721 936 l 721 851 l 789 851 l 789 743 l 721 743 l 721 0 l 592 0 l 582 65 q 485 6 538 25 q 360 -14 432 -14 m 400 100 q 569 169 501 100 l 569 499 q 406 557 504 557 q 261 502 310 557 q 213 325 213 447 q 258 153 213 207 q 400 100 303 100 z "},"ḍ":{"ha":808,"x_min":60,"x_max":721,"o":"m 360 -14 q 203 17 271 -14 q 97 118 135 47 q 60 308 60 189 q 100 508 60 426 q 212 631 140 589 q 374 672 283 672 q 480 658 433 672 q 569 615 526 644 l 569 936 l 721 936 l 721 0 l 592 0 l 582 65 q 485 6 538 25 q 360 -14 432 -14 m 400 100 q 569 169 501 100 l 569 499 q 406 557 504 557 q 261 493 310 557 q 213 307 213 429 q 258 144 213 189 q 400 100 303 100 m 346 -240 l 346 -118 l 476 -118 l 476 -240 l 346 -240 z "},"ḏ":{"ha":808,"x_min":60,"x_max":721,"o":"m 360 -14 q 203 17 271 -14 q 97 118 135 47 q 60 308 60 189 q 100 508 60 426 q 212 631 140 589 q 374 672 283 672 q 480 658 433 672 q 569 615 526 644 l 569 936 l 721 936 l 721 0 l 592 0 l 582 65 q 485 6 538 25 q 360 -14 432 -14 m 400 100 q 569 169 501 100 l 569 499 q 406 557 504 557 q 261 493 310 557 q 213 307 213 429 q 258 144 213 189 q 400 100 303 100 m 210 -228 l 210 -129 l 624 -129 l 624 -228 l 210 -228 z "},"e":{"ha":746,"x_min":60,"x_max":686,"o":"m 421 -14 q 154 71 249 -14 q 60 331 60 156 q 140 581 60 489 q 385 672 221 672 q 610 594 535 672 q 686 392 686 515 l 686 269 l 204 269 q 274 138 215 174 q 451 101 332 101 q 554 111 501 101 q 646 136 607 121 l 646 25 q 544 -4 601 6 q 421 -14 486 -14 m 204 368 l 553 368 l 553 414 q 515 520 553 482 q 389 558 478 558 q 244 513 283 558 q 204 368 204 467 z "},"é":{"ha":746,"x_min":60,"x_max":686,"o":"m 313 725 l 417 971 l 550 971 l 433 725 l 313 725 m 421 -14 q 154 71 249 -14 q 60 331 60 156 q 140 581 60 489 q 385 672 221 672 q 610 594 535 672 q 686 392 686 515 l 686 269 l 204 269 q 274 138 215 174 q 451 101 332 101 q 554 111 501 101 q 646 136 607 121 l 646 25 q 544 -4 601 6 q 421 -14 486 -14 m 204 368 l 553 368 l 553 414 q 515 520 553 482 q 389 558 478 558 q 244 513 283 558 q 204 368 204 467 z "},"ĕ":{"ha":746,"x_min":60,"x_max":686,"o":"m 382 725 q 238 778 290 725 q 186 921 186 832 l 289 921 q 313 844 289 874 q 382 815 338 815 q 454 844 429 815 q 479 921 479 874 l 582 921 q 528 778 582 832 q 382 725 475 725 m 421 -14 q 154 71 249 -14 q 60 331 60 156 q 140 581 60 489 q 385 672 221 672 q 610 594 535 672 q 686 392 686 515 l 686 269 l 204 269 q 274 138 215 174 q 451 101 332 101 q 554 111 501 101 q 646 136 607 121 l 646 25 q 544 -4 601 6 q 421 -14 486 -14 m 204 368 l 553 368 l 553 414 q 515 520 553 482 q 389 558 478 558 q 244 513 283 558 q 204 368 204 467 z "},"ě":{"ha":746,"x_min":60,"x_max":686,"o":"m 338 724 l 164 947 l 288 947 l 390 807 l 496 947 l 617 947 l 443 724 l 338 724 m 421 -14 q 154 71 249 -14 q 60 331 60 156 q 140 581 60 489 q 385 672 221 672 q 610 594 535 672 q 686 392 686 515 l 686 269 l 204 269 q 274 138 215 174 q 451 101 332 101 q 554 111 501 101 q 646 136 607 121 l 646 25 q 544 -4 601 6 q 421 -14 486 -14 m 204 368 l 553 368 l 553 414 q 515 520 553 482 q 389 558 478 558 q 244 513 283 558 q 204 368 204 467 z "},"ê":{"ha":746,"x_min":60,"x_max":686,"o":"m 151 724 l 325 947 l 431 947 l 604 724 l 483 724 l 378 864 l 275 724 l 151 724 m 421 -14 q 154 71 249 -14 q 60 331 60 156 q 140 581 60 489 q 385 672 221 672 q 610 594 535 672 q 686 392 686 515 l 686 269 l 204 269 q 274 138 215 174 q 451 101 332 101 q 554 111 501 101 q 646 136 607 121 l 646 25 q 544 -4 601 6 q 421 -14 486 -14 m 204 368 l 553 368 l 553 414 q 515 520 553 482 q 389 558 478 558 q 244 513 283 558 q 204 368 204 467 z "},"ế":{"ha":746,"x_min":60,"x_max":715,"o":"m 511 879 l 600 1064 l 715 1064 l 618 879 l 511 879 m 161 722 l 326 899 l 443 899 l 608 722 l 485 722 l 385 836 l 288 722 l 161 722 m 421 -14 q 154 71 249 -14 q 60 331 60 156 q 140 581 60 489 q 385 672 221 672 q 610 594 535 672 q 686 392 686 515 l 686 269 l 204 269 q 274 138 215 174 q 451 101 332 101 q 554 111 501 101 q 646 136 607 121 l 646 25 q 544 -4 601 6 q 421 -14 486 -14 m 204 368 l 553 368 l 553 414 q 515 520 553 482 q 389 558 478 558 q 244 513 283 558 q 204 368 204 467 z "},"ệ":{"ha":746,"x_min":60,"x_max":686,"o":"m 154 724 l 328 947 l 433 947 l 607 724 l 486 724 l 381 864 l 278 724 l 154 724 m 421 -14 q 154 71 249 -14 q 60 331 60 156 q 140 581 60 489 q 385 672 221 672 q 610 594 535 672 q 686 392 686 515 l 686 269 l 204 269 q 274 138 215 174 q 451 101 332 101 q 554 111 501 101 q 646 136 607 121 l 646 25 q 544 -4 601 6 q 421 -14 486 -14 m 204 368 l 553 368 l 553 414 q 515 520 553 482 q 389 558 478 558 q 244 513 283 558 q 204 368 204 467 m 317 -240 l 317 -118 l 447 -118 l 447 -240 l 317 -240 z "},"ề":{"ha":746,"x_min":60,"x_max":686,"o":"m 161 897 l 63 1082 l 179 1082 l 268 897 l 161 897 m 171 740 l 335 917 l 453 917 l 617 740 l 492 740 l 393 854 l 294 740 l 171 740 m 421 -14 q 154 71 249 -14 q 60 331 60 156 q 140 581 60 489 q 385 672 221 672 q 610 594 535 672 q 686 392 686 515 l 686 269 l 204 269 q 274 138 215 174 q 451 101 332 101 q 554 111 501 101 q 646 136 607 121 l 646 25 q 544 -4 601 6 q 421 -14 486 -14 m 204 368 l 553 368 l 553 414 q 515 520 553 482 q 389 558 478 558 q 244 513 283 558 q 204 368 204 467 z "},"ể":{"ha":746,"x_min":60,"x_max":731,"o":"m 517 850 l 517 942 q 603 958 583 944 q 624 996 624 971 q 558 1039 624 1039 q 517 1034 536 1039 q 481 1022 497 1029 l 481 1096 q 527 1108 501 1103 q 588 1113 553 1113 q 693 1083 656 1113 q 731 1004 731 1053 q 706 932 731 958 q 624 897 681 906 l 624 850 l 517 850 m 156 722 l 319 899 l 438 899 l 601 722 l 478 722 l 379 836 l 281 722 l 156 722 m 421 -14 q 154 71 249 -14 q 60 331 60 156 q 140 581 60 489 q 385 672 221 672 q 610 594 535 672 q 686 392 686 515 l 686 269 l 204 269 q 274 138 215 174 q 451 101 332 101 q 554 111 501 101 q 646 136 607 121 l 646 25 q 544 -4 601 6 q 421 -14 486 -14 m 204 368 l 553 368 l 553 414 q 515 520 553 482 q 389 558 478 558 q 244 513 283 558 q 204 368 204 467 z "},"ễ":{"ha":746,"x_min":60,"x_max":686,"o":"m 499 911 q 427 924 463 911 q 359 951 392 938 q 294 964 326 964 q 231 953 260 964 q 179 915 203 942 l 179 1014 q 228 1043 197 1032 q 293 1054 260 1054 q 365 1042 332 1054 q 431 1016 399 1029 q 497 1003 463 1003 q 604 1051 568 1003 l 604 953 q 563 923 590 935 q 499 911 535 911 m 161 724 l 325 900 l 443 900 l 607 724 l 483 724 l 385 838 l 286 724 l 161 724 m 421 -14 q 154 71 249 -14 q 60 331 60 156 q 140 581 60 489 q 385 672 221 672 q 610 594 535 672 q 686 392 686 515 l 686 269 l 204 269 q 274 138 215 174 q 451 101 332 101 q 554 111 501 101 q 646 136 607 121 l 646 25 q 544 -4 601 6 q 421 -14 486 -14 m 204 368 l 553 368 l 553 414 q 515 520 553 482 q 389 558 478 558 q 244 513 283 558 q 204 368 204 467 z "},"ë":{"ha":746,"x_min":60,"x_max":686,"o":"m 183 758 l 183 878 l 311 878 l 311 758 l 183 758 m 442 758 l 442 878 l 569 878 l 569 758 l 442 758 m 421 -14 q 154 71 249 -14 q 60 331 60 156 q 140 581 60 489 q 385 672 221 672 q 610 594 535 672 q 686 392 686 515 l 686 269 l 204 269 q 274 138 215 174 q 451 101 332 101 q 554 111 501 101 q 646 136 607 121 l 646 25 q 544 -4 601 6 q 421 -14 486 -14 m 204 368 l 553 368 l 553 414 q 515 520 553 482 q 389 558 478 558 q 244 513 283 558 q 204 368 204 467 z "},"ė":{"ha":746,"x_min":60,"x_max":686,"o":"m 317 757 l 317 879 l 444 879 l 444 757 l 317 757 m 421 -14 q 154 71 249 -14 q 60 331 60 156 q 140 581 60 489 q 385 672 221 672 q 610 594 535 672 q 686 392 686 515 l 686 269 l 204 269 q 274 138 215 174 q 451 101 332 101 q 554 111 501 101 q 646 136 607 121 l 646 25 q 544 -4 601 6 q 421 -14 486 -14 m 204 368 l 553 368 l 553 414 q 515 520 553 482 q 389 558 478 558 q 244 513 283 558 q 204 368 204 467 z "},"ẹ":{"ha":746,"x_min":60,"x_max":686,"o":"m 421 -14 q 154 71 249 -14 q 60 331 60 156 q 140 581 60 489 q 385 672 221 672 q 610 594 535 672 q 686 392 686 515 l 686 269 l 204 269 q 274 138 215 174 q 451 101 332 101 q 554 111 501 101 q 646 136 607 121 l 646 25 q 544 -4 601 6 q 421 -14 486 -14 m 204 368 l 553 368 l 553 414 q 515 520 553 482 q 389 558 478 558 q 244 513 283 558 q 204 368 204 467 m 317 -240 l 317 -118 l 447 -118 l 447 -240 l 317 -240 z "},"è":{"ha":746,"x_min":60,"x_max":686,"o":"m 318 725 l 203 971 l 335 971 l 440 725 l 318 725 m 421 -14 q 154 71 249 -14 q 60 331 60 156 q 140 581 60 489 q 385 672 221 672 q 610 594 535 672 q 686 392 686 515 l 686 269 l 204 269 q 274 138 215 174 q 451 101 332 101 q 554 111 501 101 q 646 136 607 121 l 646 25 q 544 -4 601 6 q 421 -14 486 -14 m 204 368 l 553 368 l 553 414 q 515 520 553 482 q 389 558 478 558 q 244 513 283 558 q 204 368 204 467 z "},"ẻ":{"ha":746,"x_min":60,"x_max":686,"o":"m 324 724 l 324 838 q 427 857 403 842 q 451 907 451 872 q 349 965 451 965 q 303 960 328 965 q 260 949 278 956 l 260 1031 q 319 1044 283 1039 q 389 1049 354 1049 q 519 1014 475 1049 q 564 919 564 979 q 537 831 564 863 q 442 789 510 800 l 442 724 l 324 724 m 421 -14 q 154 71 249 -14 q 60 331 60 156 q 140 581 60 489 q 385 672 221 672 q 610 594 535 672 q 686 392 686 515 l 686 269 l 204 269 q 274 138 215 174 q 451 101 332 101 q 554 111 501 101 q 646 136 607 121 l 646 25 q 544 -4 601 6 q 421 -14 486 -14 m 204 368 l 553 368 l 553 414 q 515 520 553 482 q 389 558 478 558 q 244 513 283 558 q 204 368 204 467 z "},"ē":{"ha":746,"x_min":60,"x_max":686,"o":"m 186 771 l 186 869 l 600 869 l 600 771 l 186 771 m 421 -14 q 154 71 249 -14 q 60 331 60 156 q 140 581 60 489 q 385 672 221 672 q 610 594 535 672 q 686 392 686 515 l 686 269 l 204 269 q 274 138 215 174 q 451 101 332 101 q 554 111 501 101 q 646 136 607 121 l 646 25 q 544 -4 601 6 q 421 -14 486 -14 m 204 368 l 553 368 l 553 414 q 515 520 553 482 q 389 558 478 558 q 244 513 283 558 q 204 368 204 467 z "},"ę":{"ha":746,"x_min":60,"x_max":686,"o":"m 421 -14 q 154 71 249 -14 q 60 331 60 156 q 140 581 60 489 q 385 672 221 672 q 610 594 535 672 q 686 392 686 515 l 686 269 l 204 269 q 274 138 215 174 q 451 101 332 101 q 554 111 501 101 q 646 136 607 121 l 646 25 q 557 -1 607 8 q 489 -75 514 -36 q 464 -156 464 -114 q 481 -199 464 -187 q 529 -211 499 -211 q 567 -207 547 -211 q 599 -196 586 -203 l 599 -287 q 551 -301 581 -296 q 492 -306 522 -306 q 388 -276 432 -306 q 343 -182 343 -246 q 366 -90 343 -135 q 428 -14 389 -46 l 421 -14 m 204 368 l 553 368 l 553 414 q 515 520 553 482 q 389 558 478 558 q 244 513 283 558 q 204 368 204 467 z "},"ẽ":{"ha":746,"x_min":60,"x_max":686,"o":"m 493 746 q 419 760 456 746 q 348 787 382 774 q 282 800 314 800 q 215 789 246 800 q 161 750 185 778 l 161 861 q 212 892 179 881 q 279 903 244 903 q 354 890 319 903 q 422 863 389 876 q 492 849 456 849 q 603 900 564 849 l 603 789 q 560 758 589 771 q 493 746 531 746 m 421 -14 q 154 71 249 -14 q 60 331 60 156 q 140 581 60 489 q 385 672 221 672 q 610 594 535 672 q 686 392 686 515 l 686 269 l 204 269 q 274 138 215 174 q 451 101 332 101 q 554 111 501 101 q 646 136 607 121 l 646 25 q 544 -4 601 6 q 421 -14 486 -14 m 204 368 l 553 368 l 553 414 q 515 520 553 482 q 389 558 478 558 q 244 513 283 558 q 204 368 204 467 z "},"ə":{"ha":746,"x_min":60,"x_max":686,"o":"m 361 -14 q 135 65 211 -14 q 60 267 60 144 l 60 388 l 542 388 q 472 519 531 483 q 294 556 414 556 q 192 547 244 556 q 100 521 140 538 l 100 632 q 325 672 192 672 q 592 588 499 672 q 686 326 686 503 q 606 78 686 169 q 361 -14 526 -14 m 357 99 q 502 145 463 99 q 542 289 542 192 l 193 289 l 193 244 q 231 138 193 176 q 357 99 268 99 z "},"f":{"ha":500,"x_min":32,"x_max":481,"o":"m 128 0 l 128 540 l 32 540 l 32 658 l 128 658 l 128 739 q 183 898 128 838 q 346 958 238 958 q 419 952 386 958 q 481 935 453 946 l 481 826 q 393 842 438 842 q 303 818 328 842 q 278 738 278 794 l 278 658 l 450 658 l 443 540 l 278 540 l 278 0 l 128 0 z "},"g":{"ha":769,"x_min":63,"x_max":728,"o":"m 354 -244 q 207 -235 281 -244 q 82 -208 133 -226 l 82 -92 q 210 -119 138 -110 q 347 -129 282 -129 q 493 -118 447 -129 q 539 -68 539 -107 q 517 -27 539 -39 q 432 -15 494 -15 l 254 -15 q 75 111 75 -15 q 99 186 75 151 q 174 239 122 221 q 90 315 117 267 q 63 432 63 364 q 138 615 63 558 q 365 672 214 672 q 432 667 397 672 q 486 658 467 663 l 728 658 l 724 560 l 613 560 q 651 504 639 538 q 664 432 664 471 q 600 266 664 326 q 407 206 536 206 q 366 208 385 206 q 325 213 347 210 q 250 190 283 208 q 217 142 217 172 q 233 112 217 121 q 289 103 250 103 l 474 103 q 626 60 572 103 q 679 -62 679 18 q 595 -202 679 -160 q 354 -244 511 -244 m 365 301 q 491 332 456 301 q 526 436 526 363 q 491 543 526 510 q 365 576 456 576 q 242 544 281 576 q 203 436 203 513 q 240 333 203 365 q 365 301 276 301 z "},"ğ":{"ha":769,"x_min":63,"x_max":728,"o":"m 371 725 q 227 778 279 725 q 175 921 175 832 l 278 921 q 302 844 278 874 q 371 815 326 815 q 443 844 418 815 q 468 921 468 874 l 571 921 q 517 778 571 832 q 371 725 464 725 m 354 -244 q 207 -235 281 -244 q 82 -208 133 -226 l 82 -92 q 210 -119 138 -110 q 347 -129 282 -129 q 493 -118 447 -129 q 539 -68 539 -107 q 517 -27 539 -39 q 432 -15 494 -15 l 254 -15 q 75 111 75 -15 q 99 186 75 151 q 174 239 122 221 q 90 315 117 267 q 63 432 63 364 q 138 615 63 558 q 365 672 214 672 q 432 667 397 672 q 486 658 467 663 l 728 658 l 724 560 l 613 560 q 651 504 639 538 q 664 432 664 471 q 600 266 664 326 q 407 206 536 206 q 366 208 385 206 q 325 213 347 210 q 250 190 283 208 q 217 142 217 172 q 233 112 217 121 q 289 103 250 103 l 474 103 q 626 60 572 103 q 679 -62 679 18 q 595 -202 679 -160 q 354 -244 511 -244 m 365 301 q 491 332 456 301 q 526 436 526 363 q 491 543 526 510 q 365 576 456 576 q 242 544 281 576 q 203 436 203 513 q 240 333 203 365 q 365 301 276 301 z "},"ǧ":{"ha":769,"x_min":63,"x_max":728,"o":"m 344 724 l 171 947 l 294 947 l 397 807 l 503 947 l 624 947 l 450 724 l 344 724 m 354 -244 q 207 -235 281 -244 q 82 -208 133 -226 l 82 -92 q 210 -119 138 -110 q 347 -129 282 -129 q 493 -118 447 -129 q 539 -68 539 -107 q 517 -27 539 -39 q 432 -15 494 -15 l 254 -15 q 75 111 75 -15 q 99 186 75 151 q 174 239 122 221 q 90 315 117 267 q 63 432 63 364 q 138 615 63 558 q 365 672 214 672 q 432 667 397 672 q 486 658 467 663 l 728 658 l 724 560 l 613 560 q 651 504 639 538 q 664 432 664 471 q 600 266 664 326 q 407 206 536 206 q 366 208 385 206 q 325 213 347 210 q 250 190 283 208 q 217 142 217 172 q 233 112 217 121 q 289 103 250 103 l 474 103 q 626 60 572 103 q 679 -62 679 18 q 595 -202 679 -160 q 354 -244 511 -244 m 365 301 q 491 332 456 301 q 526 436 526 363 q 491 543 526 510 q 365 576 456 576 q 242 544 281 576 q 203 436 203 513 q 240 333 203 365 q 365 301 276 301 z "},"ĝ":{"ha":769,"x_min":63,"x_max":728,"o":"m 147 724 l 321 947 l 426 947 l 600 724 l 479 724 l 374 864 l 271 724 l 147 724 m 354 -244 q 207 -235 281 -244 q 82 -208 133 -226 l 82 -92 q 210 -119 138 -110 q 347 -129 282 -129 q 493 -118 447 -129 q 539 -68 539 -107 q 517 -27 539 -39 q 432 -15 494 -15 l 254 -15 q 75 111 75 -15 q 99 186 75 151 q 174 239 122 221 q 90 315 117 267 q 63 432 63 364 q 138 615 63 558 q 365 672 214 672 q 432 667 397 672 q 486 658 467 663 l 728 658 l 724 560 l 613 560 q 651 504 639 538 q 664 432 664 471 q 600 266 664 326 q 407 206 536 206 q 366 208 385 206 q 325 213 347 210 q 250 190 283 208 q 217 142 217 172 q 233 112 217 121 q 289 103 250 103 l 474 103 q 626 60 572 103 q 679 -62 679 18 q 595 -202 679 -160 q 354 -244 511 -244 m 365 301 q 491 332 456 301 q 526 436 526 363 q 491 543 526 510 q 365 576 456 576 q 242 544 281 576 q 203 436 203 513 q 240 333 203 365 q 365 301 276 301 z "},"ģ":{"ha":769,"x_min":63,"x_max":728,"o":"m 299 725 l 363 988 l 464 988 l 424 725 l 299 725 m 354 -244 q 207 -235 281 -244 q 82 -208 133 -226 l 82 -92 q 210 -119 138 -110 q 347 -129 282 -129 q 493 -118 447 -129 q 539 -68 539 -107 q 517 -27 539 -39 q 432 -15 494 -15 l 254 -15 q 75 111 75 -15 q 99 186 75 151 q 174 239 122 221 q 90 315 117 267 q 63 432 63 364 q 138 615 63 558 q 365 672 214 672 q 432 667 397 672 q 486 658 467 663 l 728 658 l 724 560 l 613 560 q 651 504 639 538 q 664 432 664 471 q 600 266 664 326 q 407 206 536 206 q 366 208 385 206 q 325 213 347 210 q 250 190 283 208 q 217 142 217 172 q 233 112 217 121 q 289 103 250 103 l 474 103 q 626 60 572 103 q 679 -62 679 18 q 595 -202 679 -160 q 354 -244 511 -244 m 365 301 q 491 332 456 301 q 526 436 526 363 q 491 543 526 510 q 365 576 456 576 q 242 544 281 576 q 203 436 203 513 q 240 333 203 365 q 365 301 276 301 z "},"ġ":{"ha":769,"x_min":63,"x_max":728,"o":"m 299 746 l 299 868 l 426 868 l 426 746 l 299 746 m 354 -244 q 207 -235 281 -244 q 82 -208 133 -226 l 82 -92 q 210 -119 138 -110 q 347 -129 282 -129 q 493 -118 447 -129 q 539 -68 539 -107 q 517 -27 539 -39 q 432 -15 494 -15 l 254 -15 q 75 111 75 -15 q 99 186 75 151 q 174 239 122 221 q 90 315 117 267 q 63 432 63 364 q 138 615 63 558 q 365 672 214 672 q 432 667 397 672 q 486 658 467 663 l 728 658 l 724 560 l 613 560 q 651 504 639 538 q 664 432 664 471 q 600 266 664 326 q 407 206 536 206 q 366 208 385 206 q 325 213 347 210 q 250 190 283 208 q 217 142 217 172 q 233 112 217 121 q 289 103 250 103 l 474 103 q 626 60 572 103 q 679 -62 679 18 q 595 -202 679 -160 q 354 -244 511 -244 m 365 301 q 491 332 456 301 q 526 436 526 363 q 491 543 526 510 q 365 576 456 576 q 242 544 281 576 q 203 436 203 513 q 240 333 203 365 q 365 301 276 301 z "},"ḡ":{"ha":769,"x_min":63,"x_max":728,"o":"m 182 765 l 182 864 l 596 864 l 596 765 l 182 765 m 354 -244 q 207 -235 281 -244 q 82 -208 133 -226 l 82 -92 q 210 -119 138 -110 q 347 -129 282 -129 q 493 -118 447 -129 q 539 -68 539 -107 q 517 -27 539 -39 q 432 -15 494 -15 l 254 -15 q 75 111 75 -15 q 99 186 75 151 q 174 239 122 221 q 90 315 117 267 q 63 432 63 364 q 138 615 63 558 q 365 672 214 672 q 432 667 397 672 q 486 658 467 663 l 728 658 l 724 560 l 613 560 q 651 504 639 538 q 664 432 664 471 q 600 266 664 326 q 407 206 536 206 q 366 208 385 206 q 325 213 347 210 q 250 190 283 208 q 217 142 217 172 q 233 112 217 121 q 289 103 250 103 l 474 103 q 626 60 572 103 q 679 -62 679 18 q 595 -202 679 -160 q 354 -244 511 -244 m 365 301 q 491 332 456 301 q 526 436 526 363 q 491 543 526 510 q 365 576 456 576 q 242 544 281 576 q 203 436 203 513 q 240 333 203 365 q 365 301 276 301 z "},"h":{"ha":803,"x_min":88,"x_max":721,"o":"m 88 0 l 88 936 l 239 936 l 239 594 q 342 651 282 629 q 476 672 401 672 q 661 613 601 672 q 721 426 721 553 l 721 0 l 571 0 l 571 419 q 538 526 571 496 q 425 557 506 557 q 324 535 375 557 q 239 479 272 514 l 239 0 l 88 0 z "},"ħ":{"ha":815,"x_min":25,"x_max":733,"o":"m 100 0 l 100 744 l 25 744 l 25 854 l 100 854 l 100 936 l 250 936 l 250 854 l 458 854 l 458 744 l 250 744 l 250 594 q 353 651 294 629 q 489 672 413 672 q 674 613 614 672 q 733 426 733 553 l 733 0 l 582 0 l 582 419 q 549 526 582 496 q 436 557 517 557 q 335 535 386 557 q 250 479 285 514 l 250 0 l 100 0 z "},"ḫ":{"ha":803,"x_min":88,"x_max":721,"o":"m 88 0 l 88 936 l 239 936 l 239 594 q 342 651 282 629 q 476 672 401 672 q 661 613 601 672 q 721 426 721 553 l 721 0 l 571 0 l 571 419 q 538 526 571 496 q 425 557 506 557 q 324 535 375 557 q 239 479 272 514 l 239 0 l 88 0 m 413 -287 q 269 -234 321 -287 q 217 -90 217 -181 l 319 -90 q 344 -168 319 -139 q 413 -197 368 -197 q 485 -168 460 -197 q 510 -90 510 -139 l 613 -90 q 559 -234 613 -181 q 413 -287 506 -287 z "},"ĥ":{"ha":803,"x_min":88,"x_max":721,"o":"m 94 975 l 268 1199 l 374 1199 l 547 975 l 426 975 l 321 1115 l 218 975 l 94 975 m 88 0 l 88 936 l 239 936 l 239 594 q 342 651 282 629 q 476 672 401 672 q 661 613 601 672 q 721 426 721 553 l 721 0 l 571 0 l 571 419 q 538 526 571 496 q 425 557 506 557 q 324 535 375 557 q 239 479 272 514 l 239 0 l 88 0 z "},"ḥ":{"ha":803,"x_min":88,"x_max":721,"o":"m 88 0 l 88 936 l 239 936 l 239 594 q 342 651 282 629 q 476 672 401 672 q 661 613 601 672 q 721 426 721 553 l 721 0 l 571 0 l 571 419 q 538 526 571 496 q 425 557 506 557 q 324 535 375 557 q 239 479 272 514 l 239 0 l 88 0 m 344 -240 l 344 -118 l 475 -118 l 475 -240 l 344 -240 z "},"i":{"ha":396,"x_min":56,"x_max":308,"o":"m 143 796 l 143 921 l 308 921 l 308 796 l 143 796 m 156 0 l 156 543 l 56 543 l 69 658 l 307 658 l 307 0 l 156 0 z "},"ı":{"ha":396,"x_min":56,"x_max":307,"o":"m 156 0 l 156 543 l 56 543 l 69 658 l 307 658 l 307 0 l 156 0 z "},"í":{"ha":428,"x_min":88,"x_max":422,"o":"m 185 725 l 289 971 l 422 971 l 306 725 l 185 725 m 188 0 l 188 543 l 88 543 l 101 658 l 339 658 l 339 0 l 188 0 z "},"ĭ":{"ha":428,"x_min":29,"x_max":425,"o":"m 225 724 q 81 777 133 724 q 29 921 29 831 l 132 921 q 156 843 132 872 q 225 814 181 814 q 297 843 272 814 q 322 921 322 872 l 425 921 q 372 777 425 831 q 225 724 318 724 m 188 0 l 188 543 l 88 543 l 101 658 l 339 658 l 339 0 l 188 0 z "},"ǐ":{"ha":428,"x_min":3,"x_max":456,"o":"m 176 724 l 3 947 l 126 947 l 229 807 l 335 947 l 456 947 l 282 724 l 176 724 m 188 0 l 188 543 l 88 543 l 101 658 l 339 658 l 339 0 l 188 0 z "},"î":{"ha":428,"x_min":7,"x_max":460,"o":"m 7 724 l 181 947 l 286 947 l 460 724 l 339 724 l 233 864 l 131 724 l 7 724 m 188 0 l 188 543 l 88 543 l 101 658 l 339 658 l 339 0 l 188 0 z "},"ï":{"ha":456,"x_min":56,"x_max":442,"o":"m 56 758 l 56 878 l 183 878 l 183 758 l 56 758 m 314 758 l 314 878 l 442 878 l 442 758 l 314 758 m 215 0 l 215 543 l 115 543 l 129 658 l 367 658 l 367 0 l 215 0 z "},"ị":{"ha":428,"x_min":88,"x_max":340,"o":"m 175 796 l 175 921 l 340 921 l 340 796 l 175 796 m 188 0 l 188 543 l 88 543 l 101 658 l 339 658 l 339 0 l 188 0 m 199 -240 l 199 -118 l 329 -118 l 329 -240 l 199 -240 z "},"ì":{"ha":428,"x_min":86,"x_max":339,"o":"m 201 725 l 86 971 l 218 971 l 324 725 l 201 725 m 188 0 l 188 543 l 88 543 l 101 658 l 339 658 l 339 0 l 188 0 z "},"ỉ":{"ha":428,"x_min":88,"x_max":404,"o":"m 164 724 l 164 838 q 267 857 243 842 q 292 907 292 872 q 189 965 292 965 q 143 960 168 965 q 100 949 118 956 l 100 1031 q 159 1044 124 1039 q 229 1049 194 1049 q 360 1014 315 1049 q 404 919 404 979 q 377 831 404 863 q 282 789 350 800 l 282 724 l 164 724 m 188 0 l 188 543 l 88 543 l 101 658 l 339 658 l 339 0 l 188 0 z "},"ĳ":{"ha":724,"x_min":56,"x_max":635,"o":"m 143 796 l 143 921 l 308 921 l 308 796 l 143 796 m 469 796 l 469 921 l 635 921 l 635 796 l 469 796 m 421 -325 q 283 -303 340 -325 l 283 -193 q 328 -203 307 -200 q 368 -207 350 -207 q 459 -183 433 -207 q 485 -106 485 -160 l 485 543 l 385 543 l 399 658 l 635 658 l 635 -119 q 581 -269 635 -212 q 421 -325 528 -325 m 156 0 l 156 543 l 56 543 l 69 658 l 307 658 l 307 0 l 156 0 z "},"ī":{"ha":428,"x_min":8,"x_max":422,"o":"m 8 785 l 8 883 l 422 883 l 422 785 l 8 785 m 188 0 l 188 543 l 88 543 l 101 658 l 339 658 l 339 0 l 188 0 z "},"į":{"ha":396,"x_min":56,"x_max":326,"o":"m 143 796 l 143 921 l 308 921 l 308 796 l 143 796 m 156 0 l 156 543 l 56 543 l 69 658 l 307 658 l 307 0 l 288 0 q 217 -74 243 -35 q 192 -156 192 -114 q 209 -199 192 -187 q 257 -211 226 -211 q 294 -207 275 -211 q 326 -196 314 -203 l 326 -287 q 279 -301 308 -296 q 219 -306 250 -306 q 115 -276 160 -306 q 71 -182 71 -246 q 99 -81 71 -129 q 174 0 126 -32 l 156 0 z "},"ĩ":{"ha":428,"x_min":-6,"x_max":436,"o":"m 326 735 q 252 749 289 735 q 181 776 215 763 q 115 789 147 789 q 49 778 79 789 q -6 739 18 767 l -6 850 q 45 881 13 869 q 113 892 78 892 q 188 878 153 892 q 256 851 222 865 q 325 838 289 838 q 436 889 397 838 l 436 778 q 393 747 422 760 q 326 735 364 735 m 188 0 l 188 543 l 88 543 l 101 658 l 339 658 l 339 0 l 188 0 z "},"j":{"ha":428,"x_min":-11,"x_max":340,"o":"m 175 796 l 175 921 l 340 921 l 340 796 l 175 796 m 126 -325 q -11 -303 46 -325 l -11 -193 q 34 -203 13 -200 q 74 -207 56 -207 q 165 -183 139 -207 q 190 -106 190 -160 l 190 543 l 90 543 l 104 658 l 340 658 l 340 -119 q 287 -269 340 -212 q 126 -325 233 -325 z "},"ȷ":{"ha":425,"x_min":-14,"x_max":338,"o":"m 124 -325 q -14 -303 43 -325 l -14 -193 q 31 -203 10 -200 q 71 -207 53 -207 q 162 -183 136 -207 q 188 -106 188 -160 l 188 543 l 88 543 l 101 658 l 338 658 l 338 -119 q 284 -269 338 -212 q 124 -325 231 -325 z "},"ĵ":{"ha":425,"x_min":-14,"x_max":463,"o":"m 10 724 l 183 947 l 289 947 l 463 724 l 342 724 l 236 864 l 133 724 l 10 724 m 124 -325 q -14 -303 43 -325 l -14 -193 q 31 -203 10 -200 q 71 -207 53 -207 q 162 -183 136 -207 q 188 -106 188 -160 l 188 543 l 88 543 l 101 658 l 338 658 l 338 -119 q 284 -269 338 -212 q 124 -325 231 -325 z "},"k":{"ha":746,"x_min":88,"x_max":704,"o":"m 88 0 l 88 936 l 239 936 l 239 394 l 515 658 l 689 658 l 421 393 l 704 0 l 544 0 l 326 313 l 239 229 l 239 0 l 88 0 z "},"ķ":{"ha":764,"x_min":88,"x_max":704,"o":"m 88 0 l 88 936 l 239 936 l 239 394 l 515 658 l 689 658 l 421 393 l 704 0 l 544 0 l 326 313 l 239 229 l 239 0 l 88 0 m 275 -314 l 315 -51 l 440 -51 l 376 -314 l 275 -314 z "},"ĸ":{"ha":764,"x_min":88,"x_max":704,"o":"m 88 0 l 88 658 l 239 658 l 239 369 l 515 658 l 689 658 l 421 375 l 704 0 l 544 0 l 328 293 l 239 201 l 239 0 l 88 0 z "},"l":{"ha":389,"x_min":88,"x_max":358,"o":"m 251 -14 q 129 26 171 -14 q 88 157 88 65 l 88 936 l 239 936 l 239 171 q 253 118 239 132 q 294 104 267 104 q 358 113 328 104 l 358 3 q 308 -10 332 -7 q 251 -14 283 -14 z "},"ĺ":{"ha":389,"x_min":88,"x_max":358,"o":"m 99 1017 l 203 1263 l 336 1263 l 219 1017 l 99 1017 m 251 -14 q 129 26 171 -14 q 88 157 88 65 l 88 936 l 239 936 l 239 171 q 253 118 239 132 q 294 104 267 104 q 358 113 328 104 l 358 3 q 308 -10 332 -7 q 251 -14 283 -14 z "},"ľ":{"ha":483,"x_min":88,"x_max":483,"o":"m 251 -14 q 129 26 171 -14 q 88 157 88 65 l 88 936 l 239 936 l 239 171 q 253 118 239 132 q 294 104 267 104 q 358 113 328 104 l 358 3 q 308 -10 332 -7 q 251 -14 283 -14 m 318 674 l 358 936 l 483 936 l 419 674 l 318 674 z "},"ļ":{"ha":389,"x_min":88,"x_max":358,"o":"m 251 -14 q 129 26 171 -14 q 88 157 88 65 l 88 936 l 239 936 l 239 171 q 253 118 239 132 q 294 104 267 104 q 358 113 328 104 l 358 3 q 308 -10 332 -7 q 251 -14 283 -14 m 144 -314 l 185 -51 l 310 -51 l 246 -314 l 144 -314 z "},"ŀ":{"ha":451,"x_min":88,"x_max":456,"o":"m 251 -14 q 129 26 171 -14 q 88 157 88 65 l 88 936 l 239 936 l 239 171 q 253 118 239 132 q 294 104 267 104 q 358 113 328 104 l 358 3 q 308 -10 332 -7 q 251 -14 283 -14 m 328 379 l 328 501 l 456 501 l 456 379 l 328 379 z "},"ḷ":{"ha":389,"x_min":88,"x_max":358,"o":"m 251 -14 q 129 26 171 -14 q 88 157 88 65 l 88 936 l 239 936 l 239 171 q 253 118 239 132 q 294 104 267 104 q 358 113 328 104 l 358 3 q 308 -10 332 -7 q 251 -14 283 -14 m 138 -240 l 138 -118 l 268 -118 l 268 -240 l 138 -240 z "},"ḹ":{"ha":389,"x_min":-43,"x_max":371,"o":"m -43 1003 l -43 1101 l 371 1101 l 371 1003 l -43 1003 m 251 -14 q 129 26 171 -14 q 88 157 88 65 l 88 936 l 239 936 l 239 171 q 253 118 239 132 q 294 104 267 104 q 358 113 328 104 l 358 3 q 308 -10 332 -7 q 251 -14 283 -14 m 138 -240 l 138 -118 l 268 -118 l 268 -240 l 138 -240 z "},"ḻ":{"ha":389,"x_min":-7,"x_max":407,"o":"m 251 -14 q 129 26 171 -14 q 88 157 88 65 l 88 936 l 239 936 l 239 171 q 253 118 239 132 q 294 104 267 104 q 358 113 328 104 l 358 3 q 308 -10 332 -7 q 251 -14 283 -14 m -7 -203 l -7 -104 l 407 -104 l 407 -203 l -7 -203 z "},"ł":{"ha":389,"x_min":-47,"x_max":390,"o":"m 251 -14 q 129 26 171 -14 q 88 157 88 65 l 88 381 l -47 322 l -47 439 l 88 497 l 88 936 l 239 936 l 239 564 l 390 631 l 390 514 l 239 447 l 239 171 q 253 118 239 132 q 294 104 267 104 q 358 113 328 104 l 358 3 q 308 -10 332 -7 q 251 -14 283 -14 z "},"m":{"ha":1189,"x_min":88,"x_max":1107,"o":"m 88 0 l 88 658 l 226 658 l 233 589 q 340 650 282 628 q 465 672 399 672 q 576 649 536 672 q 636 586 615 626 q 742 648 682 624 q 885 672 801 672 q 1053 614 999 672 q 1107 435 1107 556 l 1107 0 l 958 0 l 958 419 q 926 526 958 496 q 822 557 894 557 q 733 540 775 557 q 660 490 690 524 q 665 458 664 475 q 667 422 667 442 l 667 0 l 526 0 l 526 418 q 501 524 526 490 q 407 557 476 557 q 315 534 358 557 q 236 479 271 511 l 236 0 l 88 0 z "},"ṃ":{"ha":1189,"x_min":88,"x_max":1107,"o":"m 88 0 l 88 658 l 226 658 l 233 589 q 340 650 282 628 q 465 672 399 672 q 576 649 536 672 q 636 586 615 626 q 742 648 682 624 q 885 672 801 672 q 1053 614 999 672 q 1107 435 1107 556 l 1107 0 l 958 0 l 958 419 q 926 526 958 496 q 822 557 894 557 q 733 540 775 557 q 660 490 690 524 q 665 458 664 475 q 667 422 667 442 l 667 0 l 526 0 l 526 418 q 501 524 526 490 q 407 557 476 557 q 315 534 358 557 q 236 479 271 511 l 236 0 l 88 0 m 528 -240 l 528 -118 l 658 -118 l 658 -240 l 528 -240 z "},"n":{"ha":803,"x_min":88,"x_max":721,"o":"m 88 0 l 88 658 l 226 658 l 233 589 q 340 648 278 624 q 476 672 401 672 q 663 613 604 672 q 721 426 721 553 l 721 0 l 571 0 l 571 419 q 540 526 571 496 q 422 557 508 557 q 322 536 371 557 q 239 482 272 515 l 239 0 l 88 0 z "},"ń":{"ha":803,"x_min":88,"x_max":721,"o":"m 319 725 l 424 971 l 557 971 l 440 725 l 319 725 m 88 0 l 88 658 l 226 658 l 233 589 q 340 648 278 624 q 476 672 401 672 q 663 613 604 672 q 721 426 721 553 l 721 0 l 571 0 l 571 419 q 540 526 571 496 q 422 557 508 557 q 322 536 371 557 q 239 482 272 515 l 239 0 l 88 0 z "},"ŉ":{"ha":881,"x_min":-24,"x_max":799,"o":"m -24 636 l 17 899 l 142 899 l 78 636 l -24 636 m 165 0 l 165 658 l 304 658 l 311 589 q 417 648 356 624 q 554 672 479 672 q 740 613 682 672 q 799 426 799 553 l 799 0 l 649 0 l 649 419 q 617 526 649 496 q 500 557 586 557 q 399 536 449 557 q 317 482 350 515 l 317 0 l 165 0 z "},"ň":{"ha":803,"x_min":88,"x_max":721,"o":"m 335 724 l 161 947 l 285 947 l 388 807 l 493 947 l 614 947 l 440 724 l 335 724 m 88 0 l 88 658 l 226 658 l 233 589 q 340 648 278 624 q 476 672 401 672 q 663 613 604 672 q 721 426 721 553 l 721 0 l 571 0 l 571 419 q 540 526 571 496 q 422 557 508 557 q 322 536 371 557 q 239 482 272 515 l 239 0 l 88 0 z "},"ņ":{"ha":803,"x_min":88,"x_max":721,"o":"m 88 0 l 88 658 l 226 658 l 233 589 q 340 648 278 624 q 476 672 401 672 q 663 613 604 672 q 721 426 721 553 l 721 0 l 571 0 l 571 419 q 540 526 571 496 q 422 557 508 557 q 322 536 371 557 q 239 482 272 515 l 239 0 l 88 0 m 317 -314 l 357 -51 l 482 -51 l 418 -314 l 317 -314 z "},"ṅ":{"ha":803,"x_min":88,"x_max":721,"o":"m 338 757 l 338 879 l 465 879 l 465 757 l 338 757 m 88 0 l 88 658 l 226 658 l 233 589 q 340 648 278 624 q 476 672 401 672 q 663 613 604 672 q 721 426 721 553 l 721 0 l 571 0 l 571 419 q 540 526 571 496 q 422 557 508 557 q 322 536 371 557 q 239 482 272 515 l 239 0 l 88 0 z "},"ṇ":{"ha":803,"x_min":88,"x_max":721,"o":"m 88 0 l 88 658 l 226 658 l 233 589 q 340 648 278 624 q 476 672 401 672 q 663 613 604 672 q 721 426 721 553 l 721 0 l 571 0 l 571 419 q 540 526 571 496 q 422 557 508 557 q 322 536 371 557 q 239 482 272 515 l 239 0 l 88 0 m 343 -240 l 343 -118 l 474 -118 l 474 -240 l 343 -240 z "},"ŋ":{"ha":803,"x_min":88,"x_max":721,"o":"m 507 -325 q 369 -303 426 -325 l 369 -193 q 415 -203 393 -200 q 454 -207 436 -207 q 545 -183 519 -207 q 571 -106 571 -160 l 571 419 q 540 526 571 496 q 422 557 508 557 q 322 536 371 557 q 239 482 272 515 l 239 0 l 88 0 l 88 658 l 226 658 l 233 589 q 340 648 278 624 q 476 672 401 672 q 663 613 604 672 q 721 426 721 553 l 721 -119 q 667 -269 721 -212 q 507 -325 614 -325 z "},"ṉ":{"ha":803,"x_min":88,"x_max":721,"o":"m 88 0 l 88 658 l 226 658 l 233 589 q 340 648 278 624 q 476 672 401 672 q 663 613 604 672 q 721 426 721 553 l 721 0 l 571 0 l 571 419 q 540 526 571 496 q 422 557 508 557 q 322 536 371 557 q 239 482 272 515 l 239 0 l 88 0 m 199 -199 l 199 -100 l 613 -100 l 613 -199 l 199 -199 z "},"ñ":{"ha":803,"x_min":88,"x_max":721,"o":"m 517 746 q 442 760 479 746 q 372 787 406 774 q 306 800 338 800 q 239 789 269 800 q 185 750 208 778 l 185 861 q 235 892 203 881 q 303 903 268 903 q 378 890 343 903 q 446 863 413 876 q 515 849 479 849 q 626 900 588 849 l 626 789 q 583 758 613 771 q 517 746 554 746 m 88 0 l 88 658 l 226 658 l 233 589 q 340 648 278 624 q 476 672 401 672 q 663 613 604 672 q 721 426 721 553 l 721 0 l 571 0 l 571 419 q 540 526 571 496 q 422 557 508 557 q 322 536 371 557 q 239 482 272 515 l 239 0 l 88 0 z "},"o":{"ha":807,"x_min":60,"x_max":747,"o":"m 403 -14 q 142 75 225 -14 q 60 329 60 164 q 143 583 60 494 q 403 672 226 672 q 664 583 581 672 q 747 329 747 494 q 665 75 747 164 q 403 -14 582 -14 m 403 114 q 551 165 507 114 q 594 329 594 215 q 551 493 594 443 q 403 543 507 543 q 256 493 300 543 q 213 329 213 443 q 256 165 213 215 q 403 114 300 114 z "},"ó":{"ha":807,"x_min":60,"x_max":747,"o":"m 336 725 l 440 971 l 574 971 l 457 725 l 336 725 m 403 -14 q 142 75 225 -14 q 60 329 60 164 q 143 583 60 494 q 403 672 226 672 q 664 583 581 672 q 747 329 747 494 q 665 75 747 164 q 403 -14 582 -14 m 403 114 q 551 165 507 114 q 594 329 594 215 q 551 493 594 443 q 403 543 507 543 q 256 493 300 543 q 213 329 213 443 q 256 165 213 215 q 403 114 300 114 z "},"ŏ":{"ha":807,"x_min":60,"x_max":747,"o":"m 401 725 q 258 778 310 725 q 206 921 206 832 l 308 921 q 333 844 308 874 q 401 815 357 815 q 474 844 449 815 q 499 921 499 874 l 601 921 q 548 778 601 832 q 401 725 494 725 m 403 -14 q 142 75 225 -14 q 60 329 60 164 q 143 583 60 494 q 403 672 226 672 q 664 583 581 672 q 747 329 747 494 q 665 75 747 164 q 403 -14 582 -14 m 403 114 q 551 165 507 114 q 594 329 594 215 q 551 493 594 443 q 403 543 507 543 q 256 493 300 543 q 213 329 213 443 q 256 165 213 215 q 403 114 300 114 z "},"ǒ":{"ha":807,"x_min":60,"x_max":747,"o":"m 350 724 l 176 947 l 300 947 l 403 807 l 508 947 l 629 947 l 456 724 l 350 724 m 403 -14 q 142 75 225 -14 q 60 329 60 164 q 143 583 60 494 q 403 672 226 672 q 664 583 581 672 q 747 329 747 494 q 665 75 747 164 q 403 -14 582 -14 m 403 114 q 551 165 507 114 q 594 329 594 215 q 551 493 594 443 q 403 543 507 543 q 256 493 300 543 q 213 329 213 443 q 256 165 213 215 q 403 114 300 114 z "},"ô":{"ha":807,"x_min":60,"x_max":747,"o":"m 176 724 l 350 947 l 456 947 l 629 724 l 508 724 l 403 864 l 300 724 l 176 724 m 403 -14 q 142 75 225 -14 q 60 329 60 164 q 143 583 60 494 q 403 672 226 672 q 664 583 581 672 q 747 329 747 494 q 665 75 747 164 q 403 -14 582 -14 m 403 114 q 551 165 507 114 q 594 329 594 215 q 551 493 594 443 q 403 543 507 543 q 256 493 300 543 q 213 329 213 443 q 256 165 213 215 q 403 114 300 114 z "},"ố":{"ha":807,"x_min":60,"x_max":747,"o":"m 529 881 l 618 1065 l 733 1065 l 636 881 l 529 881 m 179 724 l 344 900 l 461 900 l 626 724 l 503 724 l 403 838 l 306 724 l 179 724 m 403 -14 q 142 75 225 -14 q 60 329 60 164 q 143 583 60 494 q 403 672 226 672 q 664 583 581 672 q 747 329 747 494 q 665 75 747 164 q 403 -14 582 -14 m 403 114 q 551 165 507 114 q 594 329 594 215 q 551 493 594 443 q 403 543 507 543 q 256 493 300 543 q 213 329 213 443 q 256 165 213 215 q 403 114 300 114 z "},"ộ":{"ha":807,"x_min":60,"x_max":747,"o":"m 178 724 l 351 947 l 457 947 l 631 724 l 510 724 l 404 864 l 301 724 l 178 724 m 403 -14 q 142 75 225 -14 q 60 329 60 164 q 143 583 60 494 q 403 672 226 672 q 664 583 581 672 q 747 329 747 494 q 665 75 747 164 q 403 -14 582 -14 m 403 114 q 551 165 507 114 q 594 329 594 215 q 551 493 594 443 q 403 543 507 543 q 256 493 300 543 q 213 329 213 443 q 256 165 213 215 q 403 114 300 114 m 338 -240 l 338 -118 l 468 -118 l 468 -240 l 338 -240 z "},"ồ":{"ha":807,"x_min":60,"x_max":747,"o":"m 171 881 l 72 1065 l 189 1065 l 278 881 l 171 881 m 182 724 l 346 900 l 464 900 l 628 724 l 503 724 l 404 838 l 306 724 l 182 724 m 403 -14 q 142 75 225 -14 q 60 329 60 164 q 143 583 60 494 q 403 672 226 672 q 664 583 581 672 q 747 329 747 494 q 665 75 747 164 q 403 -14 582 -14 m 403 114 q 551 165 507 114 q 594 329 594 215 q 551 493 594 443 q 403 543 507 543 q 256 493 300 543 q 213 329 213 443 q 256 165 213 215 q 403 114 300 114 z "},"ổ":{"ha":807,"x_min":60,"x_max":754,"o":"m 540 851 l 540 943 q 627 959 607 946 q 647 997 647 972 q 582 1040 647 1040 q 540 1035 560 1040 q 504 1024 521 1031 l 504 1097 q 551 1109 525 1104 q 611 1114 576 1114 q 717 1084 679 1114 q 754 1006 754 1054 q 729 933 754 960 q 647 899 704 907 l 647 851 l 540 851 m 179 724 l 343 900 l 461 900 l 625 724 l 501 724 l 403 838 l 304 724 l 179 724 m 403 -14 q 142 75 225 -14 q 60 329 60 164 q 143 583 60 494 q 403 672 226 672 q 664 583 581 672 q 747 329 747 494 q 665 75 747 164 q 403 -14 582 -14 m 403 114 q 551 165 507 114 q 594 329 594 215 q 551 493 594 443 q 403 543 507 543 q 256 493 300 543 q 213 329 213 443 q 256 165 213 215 q 403 114 300 114 z "},"ỗ":{"ha":807,"x_min":60,"x_max":747,"o":"m 511 911 q 440 924 475 911 q 372 951 404 938 q 307 964 339 964 q 244 953 272 964 q 192 915 215 942 l 192 1014 q 241 1043 210 1032 q 306 1054 272 1054 q 378 1042 344 1054 q 443 1016 411 1029 q 510 1003 475 1003 q 617 1051 581 1003 l 617 953 q 575 923 603 935 q 511 911 547 911 m 179 724 l 343 900 l 461 900 l 625 724 l 501 724 l 403 838 l 304 724 l 179 724 m 403 -14 q 142 75 225 -14 q 60 329 60 164 q 143 583 60 494 q 403 672 226 672 q 664 583 581 672 q 747 329 747 494 q 665 75 747 164 q 403 -14 582 -14 m 403 114 q 551 165 507 114 q 594 329 594 215 q 551 493 594 443 q 403 543 507 543 q 256 493 300 543 q 213 329 213 443 q 256 165 213 215 q 403 114 300 114 z "},"ö":{"ha":807,"x_min":60,"x_max":747,"o":"m 210 758 l 210 878 l 338 878 l 338 758 l 210 758 m 468 758 l 468 878 l 596 878 l 596 758 l 468 758 m 403 -14 q 142 75 225 -14 q 60 329 60 164 q 143 583 60 494 q 403 672 226 672 q 664 583 581 672 q 747 329 747 494 q 665 75 747 164 q 403 -14 582 -14 m 403 114 q 551 165 507 114 q 594 329 594 215 q 551 493 594 443 q 403 543 507 543 q 256 493 300 543 q 213 329 213 443 q 256 165 213 215 q 403 114 300 114 z "},"ọ":{"ha":807,"x_min":60,"x_max":747,"o":"m 403 -14 q 142 75 225 -14 q 60 329 60 164 q 143 583 60 494 q 403 672 226 672 q 664 583 581 672 q 747 329 747 494 q 665 75 747 164 q 403 -14 582 -14 m 403 114 q 551 165 507 114 q 594 329 594 215 q 551 493 594 443 q 403 543 507 543 q 256 493 300 543 q 213 329 213 443 q 256 165 213 215 q 403 114 300 114 m 338 -240 l 338 -118 l 468 -118 l 468 -240 l 338 -240 z "},"ò":{"ha":807,"x_min":60,"x_max":747,"o":"m 349 725 l 233 971 l 365 971 l 471 725 l 349 725 m 403 -14 q 142 75 225 -14 q 60 329 60 164 q 143 583 60 494 q 403 672 226 672 q 664 583 581 672 q 747 329 747 494 q 665 75 747 164 q 403 -14 582 -14 m 403 114 q 551 165 507 114 q 594 329 594 215 q 551 493 594 443 q 403 543 507 543 q 256 493 300 543 q 213 329 213 443 q 256 165 213 215 q 403 114 300 114 z "},"ỏ":{"ha":807,"x_min":60,"x_max":747,"o":"m 346 724 l 346 838 q 449 857 425 842 q 474 907 474 872 q 371 965 474 965 q 325 960 350 965 q 282 949 300 956 l 282 1031 q 341 1044 306 1039 q 411 1049 376 1049 q 542 1014 497 1049 q 586 919 586 979 q 559 831 586 863 q 464 789 532 800 l 464 724 l 346 724 m 403 -14 q 142 75 225 -14 q 60 329 60 164 q 143 583 60 494 q 403 672 226 672 q 664 583 581 672 q 747 329 747 494 q 665 75 747 164 q 403 -14 582 -14 m 403 114 q 551 165 507 114 q 594 329 594 215 q 551 493 594 443 q 403 543 507 543 q 256 493 300 543 q 213 329 213 443 q 256 165 213 215 q 403 114 300 114 z "},"ơ":{"ha":939,"x_min":60,"x_max":915,"o":"m 403 -14 q 142 75 225 -14 q 60 329 60 164 q 143 583 60 494 q 403 672 226 672 q 557 649 493 672 q 664 582 621 626 q 771 619 743 583 q 799 744 799 656 l 915 744 q 867 554 915 614 q 724 481 819 494 q 747 329 747 414 q 665 75 747 164 q 403 -14 582 -14 m 403 114 q 551 165 507 114 q 594 329 594 215 q 551 493 594 443 q 403 543 507 543 q 256 493 300 543 q 213 329 213 443 q 256 165 213 215 q 403 114 300 114 z "},"ớ":{"ha":939,"x_min":60,"x_max":915,"o":"m 351 725 l 456 971 l 589 971 l 472 725 l 351 725 m 403 -14 q 142 75 225 -14 q 60 329 60 164 q 143 583 60 494 q 403 672 226 672 q 557 649 493 672 q 664 582 621 626 q 771 619 743 583 q 799 744 799 656 l 915 744 q 867 554 915 614 q 724 481 819 494 q 747 329 747 414 q 665 75 747 164 q 403 -14 582 -14 m 403 114 q 551 165 507 114 q 594 329 594 215 q 551 493 594 443 q 403 543 507 543 q 256 493 300 543 q 213 329 213 443 q 256 165 213 215 q 403 114 300 114 z "},"ợ":{"ha":939,"x_min":60,"x_max":915,"o":"m 403 -14 q 142 75 225 -14 q 60 329 60 164 q 143 583 60 494 q 403 672 226 672 q 557 649 493 672 q 664 582 621 626 q 771 619 743 583 q 799 744 799 656 l 915 744 q 867 554 915 614 q 724 481 819 494 q 747 329 747 414 q 665 75 747 164 q 403 -14 582 -14 m 403 114 q 551 165 507 114 q 594 329 594 215 q 551 493 594 443 q 403 543 507 543 q 256 493 300 543 q 213 329 213 443 q 256 165 213 215 q 403 114 300 114 m 344 -240 l 344 -118 l 475 -118 l 475 -240 l 344 -240 z "},"ờ":{"ha":939,"x_min":60,"x_max":915,"o":"m 363 725 l 247 971 l 379 971 l 485 725 l 363 725 m 403 -14 q 142 75 225 -14 q 60 329 60 164 q 143 583 60 494 q 403 672 226 672 q 557 649 493 672 q 664 582 621 626 q 771 619 743 583 q 799 744 799 656 l 915 744 q 867 554 915 614 q 724 481 819 494 q 747 329 747 414 q 665 75 747 164 q 403 -14 582 -14 m 403 114 q 551 165 507 114 q 594 329 594 215 q 551 493 594 443 q 403 543 507 543 q 256 493 300 543 q 213 329 213 443 q 256 165 213 215 q 403 114 300 114 z "},"ở":{"ha":939,"x_min":60,"x_max":915,"o":"m 342 724 l 342 838 q 445 857 421 842 q 469 907 469 872 q 367 965 469 965 q 321 960 346 965 q 278 949 296 956 l 278 1031 q 337 1044 301 1039 q 407 1049 372 1049 q 538 1014 493 1049 q 582 919 582 979 q 555 831 582 863 q 460 789 528 800 l 460 724 l 342 724 m 403 -14 q 142 75 225 -14 q 60 329 60 164 q 143 583 60 494 q 403 672 226 672 q 557 649 493 672 q 664 582 621 626 q 771 619 743 583 q 799 744 799 656 l 915 744 q 867 554 915 614 q 724 481 819 494 q 747 329 747 414 q 665 75 747 164 q 403 -14 582 -14 m 403 114 q 551 165 507 114 q 594 329 594 215 q 551 493 594 443 q 403 543 507 543 q 256 493 300 543 q 213 329 213 443 q 256 165 213 215 q 403 114 300 114 z "},"ỡ":{"ha":939,"x_min":60,"x_max":915,"o":"m 522 743 q 448 757 485 743 q 377 784 411 771 q 311 797 343 797 q 244 786 275 797 q 190 747 214 775 l 190 858 q 241 889 208 878 q 308 900 274 900 q 383 887 349 900 q 451 860 418 874 q 521 846 485 846 q 632 897 593 846 l 632 786 q 589 756 618 768 q 522 743 560 743 m 403 -14 q 142 75 225 -14 q 60 329 60 164 q 143 583 60 494 q 403 672 226 672 q 557 649 493 672 q 664 582 621 626 q 771 619 743 583 q 799 744 799 656 l 915 744 q 867 554 915 614 q 724 481 819 494 q 747 329 747 414 q 665 75 747 164 q 403 -14 582 -14 m 403 114 q 551 165 507 114 q 594 329 594 215 q 551 493 594 443 q 403 543 507 543 q 256 493 300 543 q 213 329 213 443 q 256 165 213 215 q 403 114 300 114 z "},"ő":{"ha":807,"x_min":60,"x_max":747,"o":"m 188 724 l 292 951 l 429 951 l 310 724 l 188 724 m 489 724 l 593 951 l 731 951 l 611 724 l 489 724 m 403 -14 q 142 75 225 -14 q 60 329 60 164 q 143 583 60 494 q 403 672 226 672 q 664 583 581 672 q 747 329 747 494 q 665 75 747 164 q 403 -14 582 -14 m 403 114 q 551 165 507 114 q 594 329 594 215 q 551 493 594 443 q 403 543 507 543 q 256 493 300 543 q 213 329 213 443 q 256 165 213 215 q 403 114 300 114 z "},"ō":{"ha":807,"x_min":60,"x_max":747,"o":"m 192 771 l 192 869 l 606 869 l 606 771 l 192 771 m 403 -14 q 142 75 225 -14 q 60 329 60 164 q 143 583 60 494 q 403 672 226 672 q 664 583 581 672 q 747 329 747 494 q 665 75 747 164 q 403 -14 582 -14 m 403 114 q 551 165 507 114 q 594 329 594 215 q 551 493 594 443 q 403 543 507 543 q 256 493 300 543 q 213 329 213 443 q 256 165 213 215 q 403 114 300 114 z "},"ø":{"ha":807,"x_min":60,"x_max":747,"o":"m 200 -75 l 233 14 q 102 130 144 50 q 60 329 60 210 q 143 583 60 494 q 403 672 226 672 q 476 668 443 672 l 501 733 l 604 733 l 571 643 q 704 528 661 608 q 747 329 747 449 q 665 75 747 164 q 403 -14 582 -14 q 363 -12 382 -14 q 326 -8 344 -10 l 303 -75 l 200 -75 m 281 142 l 429 542 q 417 542 424 542 q 403 543 410 543 q 256 493 300 543 q 213 329 213 443 q 228 211 213 257 q 281 142 244 165 m 403 114 q 551 165 507 114 q 594 329 594 215 q 522 515 594 471 l 374 115 q 388 114 381 114 q 403 114 396 114 z "},"ǿ":{"ha":807,"x_min":60,"x_max":747,"o":"m 315 725 l 419 971 l 553 971 l 436 725 l 315 725 m 200 -75 l 233 14 q 102 130 144 50 q 60 329 60 210 q 143 583 60 494 q 403 672 226 672 q 476 668 443 672 l 501 733 l 604 733 l 571 643 q 704 528 661 608 q 747 329 747 449 q 665 75 747 164 q 403 -14 582 -14 q 363 -12 382 -14 q 326 -8 344 -10 l 303 -75 l 200 -75 m 281 142 l 429 542 q 417 542 424 542 q 403 543 410 543 q 256 493 300 543 q 213 329 213 443 q 228 211 213 257 q 281 142 244 165 m 403 114 q 551 165 507 114 q 594 329 594 215 q 522 515 594 471 l 374 115 q 388 114 381 114 q 403 114 396 114 z "},"õ":{"ha":807,"x_min":60,"x_max":747,"o":"m 514 757 q 440 771 476 757 q 369 798 403 785 q 303 811 335 811 q 236 800 267 811 q 182 761 206 789 l 182 872 q 233 903 200 892 q 300 914 265 914 q 375 901 340 914 q 443 874 410 888 q 513 860 476 860 q 624 911 585 860 l 624 800 q 581 769 610 782 q 514 757 551 757 m 403 -14 q 142 75 225 -14 q 60 329 60 164 q 143 583 60 494 q 403 672 226 672 q 664 583 581 672 q 747 329 747 494 q 665 75 747 164 q 403 -14 582 -14 m 403 114 q 551 165 507 114 q 594 329 594 215 q 551 493 594 443 q 403 543 507 543 q 256 493 300 543 q 213 329 213 443 q 256 165 213 215 q 403 114 300 114 z "},"œ":{"ha":1288,"x_min":60,"x_max":1228,"o":"m 403 -14 q 142 75 225 -14 q 60 329 60 164 q 143 583 60 494 q 403 672 226 672 q 565 647 497 672 q 674 572 632 621 q 777 647 714 621 q 926 672 840 672 q 1152 594 1076 672 q 1228 392 1228 515 l 1228 269 l 746 269 q 815 138 757 174 q 993 101 874 101 q 1096 111 1043 101 q 1188 136 1149 121 l 1188 25 q 1085 -4 1143 6 q 963 -14 1028 -14 q 678 89 768 -14 q 568 13 636 39 q 403 -14 500 -14 m 931 558 q 785 513 825 558 q 746 371 746 467 l 746 368 l 1094 368 l 1094 414 q 1057 520 1094 482 q 931 558 1019 558 m 403 114 q 551 165 507 114 q 594 329 594 215 q 551 493 594 443 q 403 543 507 543 q 256 493 300 543 q 213 329 213 443 q 256 165 213 215 q 403 114 300 114 z "},"p":{"ha":808,"x_min":88,"x_max":749,"o":"m 88 -300 l 88 658 l 218 658 l 226 593 q 324 653 271 633 q 449 672 376 672 q 669 595 590 672 q 749 340 749 518 q 667 74 749 163 q 443 -14 585 -14 q 239 42 324 -14 l 239 -300 l 88 -300 m 404 100 q 596 342 596 100 q 553 508 596 458 q 408 557 510 557 q 239 488 307 557 l 239 158 q 310 116 271 132 q 404 100 350 100 z "},"þ":{"ha":808,"x_min":88,"x_max":749,"o":"m 88 -300 l 88 972 l 239 972 l 239 615 q 335 658 282 644 q 447 672 388 672 q 668 590 588 672 q 749 329 749 507 q 667 69 749 151 q 443 -14 585 -14 q 239 42 324 -14 l 239 -300 l 88 -300 m 404 100 q 549 154 501 100 q 596 331 596 208 q 553 502 596 447 q 408 557 510 557 q 239 488 307 557 l 239 158 q 310 116 271 132 q 404 100 350 100 z "},"q":{"ha":808,"x_min":60,"x_max":850,"o":"m 746 -336 q 614 -292 658 -336 q 569 -153 569 -247 l 569 42 q 365 -14 485 -14 q 142 63 224 -14 q 60 318 60 140 q 141 584 60 496 q 361 672 222 672 q 485 653 433 672 q 582 593 538 633 l 592 658 l 721 658 l 721 -142 q 735 -201 721 -185 q 792 -218 750 -218 q 822 -215 806 -218 q 850 -210 838 -212 l 850 -319 q 803 -332 826 -328 q 746 -336 779 -336 m 404 100 q 499 116 458 100 q 569 158 539 132 l 569 488 q 401 557 501 557 q 256 497 300 557 q 213 319 213 436 q 260 149 213 197 q 404 100 307 100 z "},"r":{"ha":499,"x_min":88,"x_max":476,"o":"m 88 0 l 88 658 l 226 658 l 235 582 q 347 638 282 613 q 476 672 413 663 l 476 557 q 392 537 438 550 q 307 508 347 524 q 239 475 267 492 l 239 0 l 88 0 z "},"ŕ":{"ha":510,"x_min":88,"x_max":476,"o":"m 96 725 l 200 971 l 333 971 l 217 725 l 96 725 m 88 0 l 88 658 l 226 658 l 235 582 q 347 638 282 613 q 476 672 413 663 l 476 557 q 392 537 438 550 q 307 508 347 524 q 239 475 267 492 l 239 0 l 88 0 z "},"ř":{"ha":510,"x_min":46,"x_max":499,"o":"m 219 724 l 46 947 l 169 947 l 272 807 l 378 947 l 499 947 l 325 724 l 219 724 m 88 0 l 88 658 l 226 658 l 235 582 q 347 638 282 613 q 476 672 413 663 l 476 557 q 392 537 438 550 q 307 508 347 524 q 239 475 267 492 l 239 0 l 88 0 z "},"ŗ":{"ha":510,"x_min":57,"x_max":476,"o":"m 88 0 l 88 658 l 226 658 l 235 582 q 347 638 282 613 q 476 672 413 663 l 476 557 q 392 537 438 550 q 307 508 347 524 q 239 475 267 492 l 239 0 l 88 0 m 57 -314 l 97 -51 l 222 -51 l 158 -314 l 57 -314 z "},"ṛ":{"ha":510,"x_min":88,"x_max":476,"o":"m 88 0 l 88 658 l 226 658 l 235 582 q 347 638 282 613 q 476 672 413 663 l 476 557 q 392 537 438 550 q 307 508 347 524 q 239 475 267 492 l 239 0 l 88 0 m 96 -240 l 96 -118 l 226 -118 l 226 -240 l 96 -240 z "},"ṝ":{"ha":515,"x_min":15,"x_max":482,"o":"m 15 765 l 15 864 l 429 864 l 429 765 l 15 765 m 93 0 l 93 658 l 232 658 l 240 582 q 353 638 288 613 q 482 672 418 663 l 482 557 q 398 537 443 550 q 313 508 353 524 q 244 475 272 492 l 244 0 l 93 0 m 103 -240 l 103 -118 l 233 -118 l 233 -240 l 103 -240 z "},"ṟ":{"ha":510,"x_min":-32,"x_max":476,"o":"m 88 0 l 88 658 l 226 658 l 235 582 q 347 638 282 613 q 476 672 413 663 l 476 557 q 392 537 438 550 q 307 508 347 524 q 239 475 267 492 l 239 0 l 88 0 m -32 -199 l -32 -100 l 382 -100 l 382 -199 l -32 -199 z "},"s":{"ha":644,"x_min":60,"x_max":583,"o":"m 307 -14 q 177 -4 239 -14 q 75 19 115 6 l 75 147 q 179 119 122 129 q 288 110 236 110 q 399 124 365 110 q 432 178 432 138 q 412 224 432 207 q 352 254 392 240 q 251 288 313 268 q 150 330 193 307 q 83 389 107 353 q 60 483 60 425 q 125 623 60 574 q 335 672 190 672 q 443 664 392 672 q 531 643 494 656 l 531 517 q 445 540 492 532 q 358 549 399 549 q 249 536 286 549 q 213 486 213 524 q 251 431 213 447 q 374 388 289 415 q 497 338 451 364 q 563 274 543 311 q 583 179 583 238 q 513 34 583 82 q 307 -14 442 -14 z "},"ś":{"ha":644,"x_min":60,"x_max":583,"o":"m 246 725 l 350 971 l 483 971 l 367 725 l 246 725 m 307 -14 q 177 -4 239 -14 q 75 19 115 6 l 75 147 q 179 119 122 129 q 288 110 236 110 q 399 124 365 110 q 432 178 432 138 q 412 224 432 207 q 352 254 392 240 q 251 288 313 268 q 150 330 193 307 q 83 389 107 353 q 60 483 60 425 q 125 623 60 574 q 335 672 190 672 q 443 664 392 672 q 531 643 494 656 l 531 517 q 445 540 492 532 q 358 549 399 549 q 249 536 286 549 q 213 486 213 524 q 251 431 213 447 q 374 388 289 415 q 497 338 451 364 q 563 274 543 311 q 583 179 583 238 q 513 34 583 82 q 307 -14 442 -14 z "},"š":{"ha":644,"x_min":60,"x_max":583,"o":"m 272 724 l 99 947 l 222 947 l 325 807 l 431 947 l 551 947 l 378 724 l 272 724 m 307 -14 q 177 -4 239 -14 q 75 19 115 6 l 75 147 q 179 119 122 129 q 288 110 236 110 q 399 124 365 110 q 432 178 432 138 q 412 224 432 207 q 352 254 392 240 q 251 288 313 268 q 150 330 193 307 q 83 389 107 353 q 60 483 60 425 q 125 623 60 574 q 335 672 190 672 q 443 664 392 672 q 531 643 494 656 l 531 517 q 445 540 492 532 q 358 549 399 549 q 249 536 286 549 q 213 486 213 524 q 251 431 213 447 q 374 388 289 415 q 497 338 451 364 q 563 274 543 311 q 583 179 583 238 q 513 34 583 82 q 307 -14 442 -14 z "},"ş":{"ha":644,"x_min":60,"x_max":583,"o":"m 290 -333 q 236 -330 268 -333 q 189 -322 204 -326 l 189 -240 q 275 -251 229 -251 q 365 -240 338 -251 q 393 -189 393 -228 q 364 -141 393 -150 q 281 -132 335 -132 l 225 -132 l 261 -12 q 157 -1 206 -10 q 75 19 108 7 l 75 147 q 179 119 122 129 q 288 110 236 110 q 399 124 365 110 q 432 178 432 138 q 412 224 432 207 q 352 254 392 240 q 251 288 313 268 q 150 330 193 307 q 83 389 107 353 q 60 483 60 425 q 125 623 60 574 q 335 672 190 672 q 443 664 392 672 q 531 643 494 656 l 531 517 q 445 540 492 532 q 358 549 399 549 q 249 536 286 549 q 213 486 213 524 q 251 431 213 447 q 374 388 289 415 q 497 338 451 364 q 563 274 543 311 q 583 179 583 238 q 527 44 583 92 q 363 -11 471 -3 l 344 -65 q 458 -99 419 -65 q 496 -190 496 -132 q 447 -296 496 -258 q 290 -333 397 -333 z "},"ŝ":{"ha":644,"x_min":60,"x_max":583,"o":"m 101 731 l 275 954 l 381 954 l 554 731 l 433 731 l 328 871 l 225 731 l 101 731 m 307 -14 q 177 -4 239 -14 q 75 19 115 6 l 75 147 q 179 119 122 129 q 288 110 236 110 q 399 124 365 110 q 432 178 432 138 q 412 224 432 207 q 352 254 392 240 q 251 288 313 268 q 150 330 193 307 q 83 389 107 353 q 60 483 60 425 q 125 623 60 574 q 335 672 190 672 q 443 664 392 672 q 531 643 494 656 l 531 517 q 445 540 492 532 q 358 549 399 549 q 249 536 286 549 q 213 486 213 524 q 251 431 213 447 q 374 388 289 415 q 497 338 451 364 q 563 274 543 311 q 583 179 583 238 q 513 34 583 82 q 307 -14 442 -14 z "},"ș":{"ha":644,"x_min":60,"x_max":583,"o":"m 307 -14 q 177 -4 239 -14 q 75 19 115 6 l 75 147 q 179 119 122 129 q 288 110 236 110 q 399 124 365 110 q 432 178 432 138 q 412 224 432 207 q 352 254 392 240 q 251 288 313 268 q 150 330 193 307 q 83 389 107 353 q 60 483 60 425 q 125 623 60 574 q 335 672 190 672 q 443 664 392 672 q 531 643 494 656 l 531 517 q 445 540 492 532 q 358 549 399 549 q 249 536 286 549 q 213 486 213 524 q 251 431 213 447 q 374 388 289 415 q 497 338 451 364 q 563 274 543 311 q 583 179 583 238 q 513 34 583 82 q 307 -14 442 -14 m 219 -310 l 258 -69 l 392 -69 l 335 -310 l 219 -310 z "},"ṡ":{"ha":644,"x_min":60,"x_max":583,"o":"m 263 757 l 263 879 l 390 879 l 390 757 l 263 757 m 307 -14 q 177 -4 239 -14 q 75 19 115 6 l 75 147 q 179 119 122 129 q 288 110 236 110 q 399 124 365 110 q 432 178 432 138 q 412 224 432 207 q 352 254 392 240 q 251 288 313 268 q 150 330 193 307 q 83 389 107 353 q 60 483 60 425 q 125 623 60 574 q 335 672 190 672 q 443 664 392 672 q 531 643 494 656 l 531 517 q 445 540 492 532 q 358 549 399 549 q 249 536 286 549 q 213 486 213 524 q 251 431 213 447 q 374 388 289 415 q 497 338 451 364 q 563 274 543 311 q 583 179 583 238 q 513 34 583 82 q 307 -14 442 -14 z "},"ṣ":{"ha":644,"x_min":60,"x_max":583,"o":"m 307 -14 q 177 -4 239 -14 q 75 19 115 6 l 75 147 q 179 119 122 129 q 288 110 236 110 q 399 124 365 110 q 432 178 432 138 q 412 224 432 207 q 352 254 392 240 q 251 288 313 268 q 150 330 193 307 q 83 389 107 353 q 60 483 60 425 q 125 623 60 574 q 335 672 190 672 q 443 664 392 672 q 531 643 494 656 l 531 517 q 445 540 492 532 q 358 549 399 549 q 249 536 286 549 q 213 486 213 524 q 251 431 213 447 q 374 388 289 415 q 497 338 451 364 q 563 274 543 311 q 583 179 583 238 q 513 34 583 82 q 307 -14 442 -14 m 268 -240 l 268 -118 l 399 -118 l 399 -240 l 268 -240 z "},"ß":{"ha":875,"x_min":81,"x_max":815,"o":"m 531 -14 q 331 17 413 -14 l 331 144 q 411 122 367 129 q 503 114 456 114 q 619 153 576 114 q 663 268 663 193 q 622 385 663 346 q 490 424 582 424 l 382 424 l 382 539 l 489 539 q 604 581 569 539 q 639 692 639 624 q 595 801 639 760 q 433 843 551 843 q 281 792 336 843 q 226 632 226 740 l 226 0 l 81 0 l 81 636 q 124 810 81 735 q 246 929 167 886 q 433 972 325 972 q 627 933 550 972 q 742 831 704 894 q 781 692 781 767 q 749 561 781 615 q 669 482 718 507 q 776 403 736 461 q 815 260 815 346 q 742 58 815 131 q 531 -14 668 -14 z "},"t":{"ha":499,"x_min":32,"x_max":471,"o":"m 339 -14 q 181 42 233 -14 q 129 196 129 99 l 129 540 l 32 540 l 32 658 l 129 658 l 129 810 l 279 856 l 279 658 l 454 658 l 444 540 l 279 540 l 279 204 q 306 124 279 147 q 392 101 332 101 q 471 115 429 101 l 471 8 q 339 -14 417 -14 z "},"ŧ":{"ha":513,"x_min":40,"x_max":479,"o":"m 347 -14 q 190 42 242 -14 q 138 196 138 99 l 138 288 l 44 288 l 44 392 l 138 392 l 138 540 l 40 540 l 40 658 l 138 658 l 138 810 l 288 856 l 288 658 l 463 658 l 453 540 l 288 540 l 288 392 l 467 392 l 467 288 l 288 288 l 288 204 q 314 124 288 147 q 400 101 340 101 q 479 115 438 101 l 479 8 q 347 -14 425 -14 z "},"ť":{"ha":517,"x_min":32,"x_max":594,"o":"m 429 776 l 469 1039 l 594 1039 l 531 776 l 429 776 m 339 -14 q 181 42 233 -14 q 129 196 129 99 l 129 540 l 32 540 l 32 658 l 129 658 l 129 810 l 279 856 l 279 658 l 454 658 l 444 540 l 279 540 l 279 204 q 306 124 279 147 q 392 101 332 101 q 471 115 429 101 l 471 8 q 339 -14 417 -14 z "},"ţ":{"ha":519,"x_min":32,"x_max":500,"o":"m 294 -333 q 240 -330 272 -333 q 193 -322 208 -326 l 193 -240 q 279 -251 233 -251 q 369 -240 342 -251 q 397 -189 397 -228 q 368 -141 397 -150 q 285 -132 339 -132 l 229 -132 l 268 -6 q 163 64 197 11 q 129 196 129 117 l 129 540 l 32 540 l 32 658 l 129 658 l 129 810 l 279 856 l 279 658 l 454 658 l 444 540 l 279 540 l 279 204 q 306 124 279 147 q 392 101 332 101 q 471 115 429 101 l 471 8 q 367 -12 425 -10 l 349 -65 q 462 -99 424 -65 q 500 -190 500 -132 q 451 -296 500 -258 q 294 -333 401 -333 z "},"ț":{"ha":504,"x_min":32,"x_max":471,"o":"m 339 -14 q 181 42 233 -14 q 129 196 129 99 l 129 540 l 32 540 l 32 658 l 129 658 l 129 810 l 279 856 l 279 658 l 454 658 l 444 540 l 279 540 l 279 204 q 306 124 279 147 q 392 101 332 101 q 471 115 429 101 l 471 8 q 339 -14 417 -14 m 219 -325 l 260 -62 l 385 -62 l 321 -325 l 219 -325 z "},"ẗ":{"ha":504,"x_min":32,"x_max":471,"o":"m 33 893 l 33 1013 l 161 1013 l 161 893 l 33 893 m 292 893 l 292 1013 l 419 1013 l 419 893 l 292 893 m 339 -14 q 181 42 233 -14 q 129 196 129 99 l 129 540 l 32 540 l 32 658 l 129 658 l 129 810 l 279 856 l 279 658 l 454 658 l 444 540 l 279 540 l 279 204 q 306 124 279 147 q 392 101 332 101 q 471 115 429 101 l 471 8 q 339 -14 417 -14 z "},"ṭ":{"ha":504,"x_min":32,"x_max":471,"o":"m 339 -14 q 181 42 233 -14 q 129 196 129 99 l 129 540 l 32 540 l 32 658 l 129 658 l 129 810 l 279 856 l 279 658 l 454 658 l 444 540 l 279 540 l 279 204 q 306 124 279 147 q 392 101 332 101 q 471 115 429 101 l 471 8 q 339 -14 417 -14 m 247 -231 l 247 -108 l 378 -108 l 378 -231 l 247 -231 z "},"ṯ":{"ha":504,"x_min":32,"x_max":485,"o":"m 339 -14 q 181 42 233 -14 q 129 196 129 99 l 129 540 l 32 540 l 32 658 l 129 658 l 129 810 l 279 856 l 279 658 l 454 658 l 444 540 l 279 540 l 279 204 q 306 124 279 147 q 392 101 332 101 q 471 115 429 101 l 471 8 q 339 -14 417 -14 m 71 -189 l 71 -90 l 485 -90 l 485 -189 l 71 -189 z "},"u":{"ha":803,"x_min":81,"x_max":714,"o":"m 325 -14 q 144 51 207 -14 q 81 243 81 117 l 81 658 l 232 658 l 232 243 q 268 135 232 169 q 379 100 304 100 q 482 121 435 100 q 564 176 529 142 l 564 658 l 714 658 l 714 0 l 576 0 l 569 68 q 464 10 525 33 q 325 -14 403 -14 z "},"ú":{"ha":803,"x_min":81,"x_max":714,"o":"m 315 725 l 419 971 l 553 971 l 436 725 l 315 725 m 325 -14 q 144 51 207 -14 q 81 243 81 117 l 81 658 l 232 658 l 232 243 q 268 135 232 169 q 379 100 304 100 q 482 121 435 100 q 564 176 529 142 l 564 658 l 714 658 l 714 0 l 576 0 l 569 68 q 464 10 525 33 q 325 -14 403 -14 z "},"ŭ":{"ha":803,"x_min":81,"x_max":714,"o":"m 400 725 q 256 778 308 725 q 204 921 204 832 l 307 921 q 331 844 307 874 q 400 815 356 815 q 472 844 447 815 q 497 921 497 874 l 600 921 q 547 778 600 832 q 400 725 493 725 m 325 -14 q 144 51 207 -14 q 81 243 81 117 l 81 658 l 232 658 l 232 243 q 268 135 232 169 q 379 100 304 100 q 482 121 435 100 q 564 176 529 142 l 564 658 l 714 658 l 714 0 l 576 0 l 569 68 q 464 10 525 33 q 325 -14 403 -14 z "},"ǔ":{"ha":803,"x_min":81,"x_max":714,"o":"m 344 724 l 171 947 l 294 947 l 397 807 l 503 947 l 624 947 l 450 724 l 344 724 m 325 -14 q 144 51 207 -14 q 81 243 81 117 l 81 658 l 232 658 l 232 243 q 268 135 232 169 q 379 100 304 100 q 482 121 435 100 q 564 176 529 142 l 564 658 l 714 658 l 714 0 l 576 0 l 569 68 q 464 10 525 33 q 325 -14 403 -14 z "},"û":{"ha":803,"x_min":81,"x_max":714,"o":"m 169 724 l 343 947 l 449 947 l 622 724 l 501 724 l 396 864 l 293 724 l 169 724 m 325 -14 q 144 51 207 -14 q 81 243 81 117 l 81 658 l 232 658 l 232 243 q 268 135 232 169 q 379 100 304 100 q 482 121 435 100 q 564 176 529 142 l 564 658 l 714 658 l 714 0 l 576 0 l 569 68 q 464 10 525 33 q 325 -14 403 -14 z "},"ü":{"ha":803,"x_min":81,"x_max":714,"o":"m 201 756 l 201 875 l 329 875 l 329 756 l 201 756 m 460 756 l 460 875 l 588 875 l 588 756 l 460 756 m 325 -14 q 144 51 207 -14 q 81 243 81 117 l 81 658 l 232 658 l 232 243 q 268 135 232 169 q 379 100 304 100 q 482 121 435 100 q 564 176 529 142 l 564 658 l 714 658 l 714 0 l 576 0 l 569 68 q 464 10 525 33 q 325 -14 403 -14 z "},"ǘ":{"ha":803,"x_min":81,"x_max":714,"o":"m 335 861 l 419 1038 l 535 1038 l 442 861 l 335 861 m 192 725 l 192 842 l 317 842 l 317 725 l 192 725 m 468 725 l 468 842 l 592 842 l 592 725 l 468 725 m 325 -14 q 144 51 207 -14 q 81 243 81 117 l 81 658 l 232 658 l 232 243 q 268 135 232 169 q 379 100 304 100 q 482 121 435 100 q 564 176 529 142 l 564 658 l 714 658 l 714 0 l 576 0 l 569 68 q 464 10 525 33 q 325 -14 403 -14 z "},"ǚ":{"ha":803,"x_min":81,"x_max":714,"o":"m 346 857 l 190 1024 l 308 1024 l 401 915 l 496 1024 l 611 1024 l 456 857 l 346 857 m 197 724 l 197 840 l 322 840 l 322 724 l 197 724 m 474 724 l 474 840 l 597 840 l 597 724 l 474 724 m 325 -14 q 144 51 207 -14 q 81 243 81 117 l 81 658 l 232 658 l 232 243 q 268 135 232 169 q 379 100 304 100 q 482 121 435 100 q 564 176 529 142 l 564 658 l 714 658 l 714 0 l 576 0 l 569 68 q 464 10 525 33 q 325 -14 403 -14 z "},"ǜ":{"ha":803,"x_min":81,"x_max":714,"o":"m 351 861 l 258 1038 l 375 1038 l 458 861 l 351 861 m 201 725 l 201 842 l 326 842 l 326 725 l 201 725 m 478 725 l 478 842 l 601 842 l 601 725 l 478 725 m 325 -14 q 144 51 207 -14 q 81 243 81 117 l 81 658 l 232 658 l 232 243 q 268 135 232 169 q 379 100 304 100 q 482 121 435 100 q 564 176 529 142 l 564 658 l 714 658 l 714 0 l 576 0 l 569 68 q 464 10 525 33 q 325 -14 403 -14 z "},"ǖ":{"ha":803,"x_min":81,"x_max":714,"o":"m 197 933 l 197 1032 l 611 1032 l 611 933 l 197 933 m 210 747 l 210 867 l 338 867 l 338 747 l 210 747 m 468 747 l 468 867 l 596 867 l 596 747 l 468 747 m 325 -14 q 144 51 207 -14 q 81 243 81 117 l 81 658 l 232 658 l 232 243 q 268 135 232 169 q 379 100 304 100 q 482 121 435 100 q 564 176 529 142 l 564 658 l 714 658 l 714 0 l 576 0 l 569 68 q 464 10 525 33 q 325 -14 403 -14 z "},"ụ":{"ha":803,"x_min":81,"x_max":714,"o":"m 325 -14 q 144 51 207 -14 q 81 243 81 117 l 81 658 l 232 658 l 232 243 q 268 135 232 169 q 379 100 304 100 q 482 121 435 100 q 564 176 529 142 l 564 658 l 714 658 l 714 0 l 576 0 l 569 68 q 464 10 525 33 q 325 -14 403 -14 m 324 -240 l 324 -118 l 454 -118 l 454 -240 l 324 -240 z "},"ù":{"ha":803,"x_min":81,"x_max":714,"o":"m 351 725 l 236 971 l 368 971 l 474 725 l 351 725 m 325 -14 q 144 51 207 -14 q 81 243 81 117 l 81 658 l 232 658 l 232 243 q 268 135 232 169 q 379 100 304 100 q 482 121 435 100 q 564 176 529 142 l 564 658 l 714 658 l 714 0 l 576 0 l 569 68 q 464 10 525 33 q 325 -14 403 -14 z "},"ủ":{"ha":803,"x_min":81,"x_max":714,"o":"m 336 724 l 336 838 q 440 857 415 842 q 464 907 464 872 q 361 965 464 965 q 315 960 340 965 q 272 949 290 956 l 272 1031 q 331 1044 296 1039 q 401 1049 367 1049 q 532 1014 488 1049 q 576 919 576 979 q 549 831 576 863 q 454 789 522 800 l 454 724 l 336 724 m 325 -14 q 144 51 207 -14 q 81 243 81 117 l 81 658 l 232 658 l 232 243 q 268 135 232 169 q 379 100 304 100 q 482 121 435 100 q 564 176 529 142 l 564 658 l 714 658 l 714 0 l 576 0 l 569 68 q 464 10 525 33 q 325 -14 403 -14 z "},"ư":{"ha":975,"x_min":81,"x_max":944,"o":"m 325 -14 q 144 51 207 -14 q 81 243 81 117 l 81 658 l 232 658 l 232 243 q 268 135 232 169 q 379 100 304 100 q 482 121 435 100 q 564 176 529 142 l 564 658 l 714 658 l 714 582 q 804 625 781 588 q 828 744 828 663 l 944 744 q 888 544 944 606 q 714 478 831 482 l 714 0 l 576 0 l 569 68 q 464 10 525 33 q 325 -14 403 -14 z "},"ứ":{"ha":975,"x_min":81,"x_max":944,"o":"m 343 725 l 447 971 l 581 971 l 464 725 l 343 725 m 325 -14 q 144 51 207 -14 q 81 243 81 117 l 81 658 l 232 658 l 232 243 q 268 135 232 169 q 379 100 304 100 q 482 121 435 100 q 564 176 529 142 l 564 658 l 714 658 l 714 582 q 804 625 781 588 q 828 744 828 663 l 944 744 q 888 544 944 606 q 714 478 831 482 l 714 0 l 576 0 l 569 68 q 464 10 525 33 q 325 -14 403 -14 z "},"ự":{"ha":975,"x_min":81,"x_max":944,"o":"m 325 -14 q 144 51 207 -14 q 81 243 81 117 l 81 658 l 232 658 l 232 243 q 268 135 232 169 q 379 100 304 100 q 482 121 435 100 q 564 176 529 142 l 564 658 l 714 658 l 714 582 q 804 625 781 588 q 828 744 828 663 l 944 744 q 888 544 944 606 q 714 478 831 482 l 714 0 l 576 0 l 569 68 q 464 10 525 33 q 325 -14 403 -14 m 331 -240 l 331 -118 l 461 -118 l 461 -240 l 331 -240 z "},"ừ":{"ha":975,"x_min":81,"x_max":944,"o":"m 353 725 l 238 971 l 369 971 l 475 725 l 353 725 m 325 -14 q 144 51 207 -14 q 81 243 81 117 l 81 658 l 232 658 l 232 243 q 268 135 232 169 q 379 100 304 100 q 482 121 435 100 q 564 176 529 142 l 564 658 l 714 658 l 714 582 q 804 625 781 588 q 828 744 828 663 l 944 744 q 888 544 944 606 q 714 478 831 482 l 714 0 l 576 0 l 569 68 q 464 10 525 33 q 325 -14 403 -14 z "},"ử":{"ha":975,"x_min":81,"x_max":944,"o":"m 344 724 l 344 838 q 448 857 424 842 q 472 907 472 872 q 369 965 472 965 q 324 960 349 965 q 281 949 299 956 l 281 1031 q 340 1044 304 1039 q 410 1049 375 1049 q 540 1014 496 1049 q 585 919 585 979 q 558 831 585 863 q 463 789 531 800 l 463 724 l 344 724 m 325 -14 q 144 51 207 -14 q 81 243 81 117 l 81 658 l 232 658 l 232 243 q 268 135 232 169 q 379 100 304 100 q 482 121 435 100 q 564 176 529 142 l 564 658 l 714 658 l 714 582 q 804 625 781 588 q 828 744 828 663 l 944 744 q 888 544 944 606 q 714 478 831 482 l 714 0 l 576 0 l 569 68 q 464 10 525 33 q 325 -14 403 -14 z "},"ữ":{"ha":975,"x_min":81,"x_max":944,"o":"m 519 743 q 445 757 482 743 q 374 784 408 771 q 308 797 340 797 q 242 786 272 797 q 188 747 211 775 l 188 858 q 238 889 206 878 q 306 900 271 900 q 381 887 346 900 q 449 860 415 874 q 518 846 482 846 q 629 897 590 846 l 629 786 q 586 756 615 768 q 519 743 557 743 m 325 -14 q 144 51 207 -14 q 81 243 81 117 l 81 658 l 232 658 l 232 243 q 268 135 232 169 q 379 100 304 100 q 482 121 435 100 q 564 176 529 142 l 564 658 l 714 658 l 714 582 q 804 625 781 588 q 828 744 828 663 l 944 744 q 888 544 944 606 q 714 478 831 482 l 714 0 l 576 0 l 569 68 q 464 10 525 33 q 325 -14 403 -14 z "},"ű":{"ha":803,"x_min":81,"x_max":714,"o":"m 146 724 l 250 951 l 388 951 l 268 724 l 146 724 m 447 724 l 551 951 l 689 951 l 569 724 l 447 724 m 325 -14 q 144 51 207 -14 q 81 243 81 117 l 81 658 l 232 658 l 232 243 q 268 135 232 169 q 379 100 304 100 q 482 121 435 100 q 564 176 529 142 l 564 658 l 714 658 l 714 0 l 576 0 l 569 68 q 464 10 525 33 q 325 -14 403 -14 z "},"ū":{"ha":803,"x_min":81,"x_max":714,"o":"m 190 771 l 190 869 l 604 869 l 604 771 l 190 771 m 325 -14 q 144 51 207 -14 q 81 243 81 117 l 81 658 l 232 658 l 232 243 q 268 135 232 169 q 379 100 304 100 q 482 121 435 100 q 564 176 529 142 l 564 658 l 714 658 l 714 0 l 576 0 l 569 68 q 464 10 525 33 q 325 -14 403 -14 z "},"ų":{"ha":804,"x_min":81,"x_max":729,"o":"m 325 -14 q 144 51 207 -14 q 81 243 81 117 l 81 658 l 232 658 l 232 243 q 268 135 232 169 q 379 100 304 100 q 482 121 435 100 q 564 176 529 142 l 564 658 l 714 658 l 714 0 l 690 0 q 620 -74 646 -35 q 594 -156 594 -114 q 612 -199 594 -187 q 660 -211 629 -211 q 697 -207 678 -211 q 729 -196 717 -203 l 729 -287 q 682 -301 711 -296 q 622 -306 653 -306 q 518 -276 563 -306 q 474 -182 474 -246 q 501 -81 474 -129 q 576 0 529 -32 l 569 68 q 464 10 525 33 q 325 -14 403 -14 z "},"ů":{"ha":803,"x_min":81,"x_max":714,"o":"m 390 724 q 274 769 318 724 q 229 881 229 815 q 274 993 229 947 q 390 1039 318 1039 q 510 993 465 1039 q 554 881 554 947 q 510 769 554 815 q 390 724 465 724 m 390 799 q 452 822 429 799 q 475 881 475 846 q 452 939 475 915 q 390 963 429 963 q 331 939 354 963 q 308 881 308 915 q 331 822 308 846 q 390 799 354 799 m 325 -14 q 144 51 207 -14 q 81 243 81 117 l 81 658 l 232 658 l 232 243 q 268 135 232 169 q 379 100 304 100 q 482 121 435 100 q 564 176 529 142 l 564 658 l 714 658 l 714 0 l 576 0 l 569 68 q 464 10 525 33 q 325 -14 403 -14 z "},"ũ":{"ha":803,"x_min":81,"x_max":714,"o":"m 508 746 q 434 760 471 746 q 363 787 397 774 q 297 800 329 800 q 231 789 261 800 q 176 750 200 778 l 176 861 q 227 892 194 881 q 294 903 260 903 q 369 890 335 903 q 438 863 404 876 q 507 849 471 849 q 618 900 579 849 l 618 789 q 575 758 604 771 q 508 746 546 746 m 325 -14 q 144 51 207 -14 q 81 243 81 117 l 81 658 l 232 658 l 232 243 q 268 135 232 169 q 379 100 304 100 q 482 121 435 100 q 564 176 529 142 l 564 658 l 714 658 l 714 0 l 576 0 l 569 68 q 464 10 525 33 q 325 -14 403 -14 z "},"v":{"ha":803,"x_min":60,"x_max":742,"o":"m 319 0 l 60 658 l 217 658 l 401 147 l 586 658 l 742 658 l 483 0 l 319 0 z "},"w":{"ha":1036,"x_min":60,"x_max":976,"o":"m 233 0 l 60 658 l 211 658 l 325 179 l 454 578 l 454 658 l 569 658 l 713 179 l 826 658 l 976 658 l 804 0 l 661 0 l 521 431 l 378 0 l 233 0 z "},"ẃ":{"ha":1036,"x_min":60,"x_max":976,"o":"m 450 725 l 554 971 l 688 971 l 571 725 l 450 725 m 233 0 l 60 658 l 211 658 l 325 179 l 454 578 l 454 658 l 569 658 l 713 179 l 826 658 l 976 658 l 804 0 l 661 0 l 521 431 l 378 0 l 233 0 z "},"ŵ":{"ha":1036,"x_min":60,"x_max":976,"o":"m 293 724 l 467 947 l 572 947 l 746 724 l 625 724 l 519 864 l 417 724 l 293 724 m 233 0 l 60 658 l 211 658 l 325 179 l 454 578 l 454 658 l 569 658 l 713 179 l 826 658 l 976 658 l 804 0 l 661 0 l 521 431 l 378 0 l 233 0 z "},"ẅ":{"ha":1036,"x_min":60,"x_max":976,"o":"m 328 756 l 328 875 l 456 875 l 456 756 l 328 756 m 586 756 l 586 875 l 714 875 l 714 756 l 586 756 m 233 0 l 60 658 l 211 658 l 325 179 l 454 578 l 454 658 l 569 658 l 713 179 l 826 658 l 976 658 l 804 0 l 661 0 l 521 431 l 378 0 l 233 0 z "},"ẁ":{"ha":1036,"x_min":60,"x_max":976,"o":"m 447 725 l 332 971 l 464 971 l 569 725 l 447 725 m 233 0 l 60 658 l 211 658 l 325 179 l 454 578 l 454 658 l 569 658 l 713 179 l 826 658 l 976 658 l 804 0 l 661 0 l 521 431 l 378 0 l 233 0 z "},"x":{"ha":750,"x_min":42,"x_max":708,"o":"m 42 0 l 293 335 l 51 658 l 214 658 l 375 439 l 536 658 l 699 658 l 458 335 l 708 0 l 544 0 l 375 229 l 206 0 l 42 0 z "},"y":{"ha":831,"x_min":60,"x_max":797,"o":"m 236 -244 q 108 -225 161 -244 l 108 -112 q 152 -124 132 -121 q 193 -126 172 -126 q 263 -112 236 -126 q 309 -69 289 -99 q 353 8 329 -39 l 60 658 l 217 658 l 428 169 l 642 658 l 797 658 l 529 38 q 455 -109 494 -46 q 363 -208 415 -172 q 236 -244 311 -244 z "},"ý":{"ha":831,"x_min":60,"x_max":797,"o":"m 356 725 l 460 971 l 593 971 l 476 725 l 356 725 m 236 -244 q 108 -225 161 -244 l 108 -112 q 152 -124 132 -121 q 193 -126 172 -126 q 263 -112 236 -126 q 309 -69 289 -99 q 353 8 329 -39 l 60 658 l 217 658 l 428 169 l 642 658 l 797 658 l 529 38 q 455 -109 494 -46 q 363 -208 415 -172 q 236 -244 311 -244 z "},"ŷ":{"ha":831,"x_min":60,"x_max":797,"o":"m 203 724 l 376 947 l 482 947 l 656 724 l 535 724 l 429 864 l 326 724 l 203 724 m 236 -244 q 108 -225 161 -244 l 108 -112 q 152 -124 132 -121 q 193 -126 172 -126 q 263 -112 236 -126 q 309 -69 289 -99 q 353 8 329 -39 l 60 658 l 217 658 l 428 169 l 642 658 l 797 658 l 529 38 q 455 -109 494 -46 q 363 -208 415 -172 q 236 -244 311 -244 z "},"ÿ":{"ha":831,"x_min":60,"x_max":797,"o":"m 239 772 l 239 892 l 367 892 l 367 772 l 239 772 m 497 772 l 497 892 l 625 892 l 625 772 l 497 772 m 236 -244 q 108 -225 161 -244 l 108 -112 q 152 -124 132 -121 q 193 -126 172 -126 q 263 -112 236 -126 q 309 -69 289 -99 q 353 8 329 -39 l 60 658 l 217 658 l 428 169 l 642 658 l 797 658 l 529 38 q 455 -109 494 -46 q 363 -208 415 -172 q 236 -244 311 -244 z "},"ẏ":{"ha":831,"x_min":60,"x_max":797,"o":"m 364 757 l 364 879 l 492 879 l 492 757 l 364 757 m 236 -244 q 108 -225 161 -244 l 108 -112 q 152 -124 132 -121 q 193 -126 172 -126 q 263 -112 236 -126 q 309 -69 289 -99 q 353 8 329 -39 l 60 658 l 217 658 l 428 169 l 642 658 l 797 658 l 529 38 q 455 -109 494 -46 q 363 -208 415 -172 q 236 -244 311 -244 z "},"ỵ":{"ha":831,"x_min":60,"x_max":797,"o":"m 236 -244 q 108 -225 161 -244 l 108 -112 q 152 -124 132 -121 q 193 -126 172 -126 q 263 -112 236 -126 q 309 -69 289 -99 q 353 8 329 -39 l 60 658 l 217 658 l 428 169 l 642 658 l 797 658 l 529 38 q 455 -109 494 -46 q 363 -208 415 -172 q 236 -244 311 -244 m 561 -224 l 561 -101 l 692 -101 l 692 -224 l 561 -224 z "},"ỳ":{"ha":831,"x_min":60,"x_max":797,"o":"m 374 725 l 258 971 l 390 971 l 496 725 l 374 725 m 236 -244 q 108 -225 161 -244 l 108 -112 q 152 -124 132 -121 q 193 -126 172 -126 q 263 -112 236 -126 q 309 -69 289 -99 q 353 8 329 -39 l 60 658 l 217 658 l 428 169 l 642 658 l 797 658 l 529 38 q 455 -109 494 -46 q 363 -208 415 -172 q 236 -244 311 -244 z "},"ỷ":{"ha":831,"x_min":60,"x_max":797,"o":"m 371 724 l 371 838 q 474 857 450 842 q 499 907 499 872 q 396 965 499 965 q 350 960 375 965 q 307 949 325 956 l 307 1031 q 366 1044 331 1039 q 436 1049 401 1049 q 567 1014 522 1049 q 611 919 611 979 q 584 831 611 863 q 489 789 557 800 l 489 724 l 371 724 m 236 -244 q 108 -225 161 -244 l 108 -112 q 152 -124 132 -121 q 193 -126 172 -126 q 263 -112 236 -126 q 309 -69 289 -99 q 353 8 329 -39 l 60 658 l 217 658 l 428 169 l 642 658 l 797 658 l 529 38 q 455 -109 494 -46 q 363 -208 415 -172 q 236 -244 311 -244 z "},"ỹ":{"ha":831,"x_min":60,"x_max":797,"o":"m 538 746 q 463 760 500 746 q 392 787 426 774 q 326 800 358 800 q 260 789 290 800 q 206 750 229 778 l 206 861 q 256 892 224 881 q 324 903 289 903 q 399 890 364 903 q 467 863 433 876 q 536 849 500 849 q 647 900 608 849 l 647 789 q 604 758 633 771 q 538 746 575 746 m 236 -244 q 108 -225 161 -244 l 108 -112 q 152 -124 132 -121 q 193 -126 172 -126 q 263 -112 236 -126 q 309 -69 289 -99 q 353 8 329 -39 l 60 658 l 217 658 l 428 169 l 642 658 l 797 658 l 529 38 q 455 -109 494 -46 q 363 -208 415 -172 q 236 -244 311 -244 z "},"z":{"ha":676,"x_min":60,"x_max":615,"o":"m 60 0 l 60 79 l 419 535 l 76 535 l 76 658 l 606 658 l 606 565 l 253 117 l 615 117 l 615 0 l 60 0 z "},"ź":{"ha":676,"x_min":60,"x_max":615,"o":"m 276 725 l 381 971 l 514 971 l 397 725 l 276 725 m 60 0 l 60 79 l 419 535 l 76 535 l 76 658 l 606 658 l 606 565 l 253 117 l 615 117 l 615 0 l 60 0 z "},"ž":{"ha":676,"x_min":60,"x_max":615,"o":"m 278 724 l 104 947 l 228 947 l 331 807 l 436 947 l 557 947 l 383 724 l 278 724 m 60 0 l 60 79 l 419 535 l 76 535 l 76 658 l 606 658 l 606 565 l 253 117 l 615 117 l 615 0 l 60 0 z "},"ż":{"ha":676,"x_min":60,"x_max":615,"o":"m 278 757 l 278 879 l 406 879 l 406 757 l 278 757 m 60 0 l 60 79 l 419 535 l 76 535 l 76 658 l 606 658 l 606 565 l 253 117 l 615 117 l 615 0 l 60 0 z "},"ẓ":{"ha":676,"x_min":60,"x_max":615,"o":"m 60 0 l 60 79 l 419 535 l 76 535 l 76 658 l 606 658 l 606 565 l 253 117 l 615 117 l 615 0 l 60 0 m 271 -240 l 271 -118 l 401 -118 l 401 -240 l 271 -240 z "},"ﬁ":{"ha":736,"x_min":32,"x_max":649,"o":"m 128 0 l 128 540 l 32 540 l 32 658 l 128 658 l 128 726 q 160 847 128 794 q 252 928 193 899 q 390 958 311 958 q 482 952 439 958 q 553 935 525 946 l 553 822 q 500 835 535 831 q 435 839 465 839 q 316 811 354 839 q 278 724 278 783 l 278 658 l 649 658 l 649 0 l 497 0 l 497 540 l 278 540 l 278 0 l 128 0 z "},"ﬂ":{"ha":736,"x_min":32,"x_max":649,"o":"m 128 0 l 128 540 l 32 540 l 32 658 l 128 658 l 128 729 q 191 890 128 826 q 364 958 254 953 q 447 954 404 960 q 524 938 489 949 l 649 938 l 649 0 l 497 0 l 497 540 l 278 540 l 278 0 l 128 0 m 278 658 l 497 658 l 497 829 q 456 839 479 836 q 411 842 433 842 q 278 725 278 842 l 278 658 z "},"ª":{"ha":476,"x_min":60,"x_max":415,"o":"m 192 528 q 99 553 138 528 q 60 638 60 579 q 208 758 60 758 l 322 758 l 322 771 q 303 821 322 807 q 225 835 285 835 q 107 815 165 835 l 107 886 q 169 902 133 896 q 244 908 206 908 q 369 876 324 908 q 415 769 415 843 l 415 536 l 332 536 l 326 572 q 269 539 300 550 q 192 528 238 528 m 219 593 q 278 604 251 593 q 322 642 304 615 l 322 696 l 225 696 q 167 685 185 696 q 149 642 149 674 q 167 604 149 615 q 219 593 186 593 z "},"º":{"ha":504,"x_min":60,"x_max":443,"o":"m 251 528 q 60 718 60 528 q 108 860 60 811 q 251 908 156 908 q 396 860 349 908 q 443 718 443 811 q 251 528 443 528 m 251 600 q 326 629 304 600 q 347 718 347 658 q 326 806 347 776 q 251 835 304 835 q 177 806 200 835 q 154 718 154 776 q 176 629 154 658 q 251 600 199 600 z "},"ⁿ":{"ha":497,"x_min":67,"x_max":436,"o":"m 67 536 l 67 900 l 156 900 l 158 863 q 222 895 188 883 q 303 907 257 907 q 400 874 364 907 q 436 775 436 842 l 436 536 l 343 536 l 343 757 q 326 817 343 800 q 267 833 310 833 q 210 822 239 833 q 161 792 181 810 l 161 536 l 67 536 z "},"Δ":{"ha":901,"x_min":60,"x_max":840,"o":"m 60 0 l 60 83 l 379 894 l 518 894 l 840 82 l 840 0 l 60 0 m 206 117 l 692 117 l 449 733 l 206 117 z "},"Ω":{"ha":1061,"x_min":60,"x_max":1000,"o":"m 69 0 l 69 114 l 269 114 q 117 273 174 175 q 60 506 60 371 q 115 744 60 640 q 276 906 171 847 q 531 965 382 965 q 784 906 679 965 q 944 744 889 847 q 1000 506 1000 640 q 944 272 1000 371 q 792 114 889 174 l 990 114 l 990 0 l 608 0 l 608 117 q 790 281 732 183 q 847 500 847 378 q 808 676 847 600 q 699 794 769 751 q 531 836 628 836 q 363 794 435 836 q 252 676 292 751 q 213 500 213 600 q 271 281 213 378 q 451 117 329 183 l 451 0 l 69 0 z "},"μ":{"ha":810,"x_min":88,"x_max":721,"o":"m 88 -199 l 88 658 l 239 658 l 239 243 q 275 135 239 169 q 386 100 311 100 q 489 121 442 100 q 571 176 536 142 l 571 658 l 721 658 l 721 0 l 583 0 l 576 68 q 471 10 532 33 q 332 -14 410 -14 q 239 7 276 -14 l 239 -199 l 88 -199 z "},"π":{"ha":933,"x_min":46,"x_max":890,"o":"m 757 -14 q 602 44 654 -14 q 550 199 550 101 l 550 542 l 289 542 l 289 0 l 139 0 l 139 542 l 46 542 l 46 658 l 793 658 l 793 542 l 701 542 l 701 204 q 726 126 701 147 q 810 104 751 104 q 890 118 847 104 l 890 8 q 757 -14 833 -14 z "},"ก":{"ha":851,"x_min":60,"x_max":763,"o":"m 100 0 l 100 271 q 124 378 100 332 q 210 443 147 425 l 60 481 l 60 636 q 206 724 115 685 q 419 764 297 764 q 674 695 585 764 q 763 465 763 626 l 763 0 l 611 0 l 611 469 q 566 603 611 565 q 414 642 521 642 q 285 622 344 642 q 190 571 225 603 l 190 546 l 349 506 l 349 406 q 272 361 294 392 q 250 269 250 331 l 250 0 l 100 0 z "},"ข":{"ha":807,"x_min":57,"x_max":718,"o":"m 396 -14 q 156 60 238 -14 q 74 267 74 133 l 74 340 q 92 422 74 385 q 135 491 111 460 q 178 549 160 522 q 197 600 197 576 q 188 629 197 622 q 153 636 178 636 l 57 636 l 69 750 l 244 750 q 350 649 350 750 q 331 564 350 601 q 287 492 313 526 q 242 420 261 457 q 224 339 224 383 l 224 254 q 269 142 224 178 q 396 107 315 107 q 522 143 478 107 q 567 258 567 179 l 567 750 l 718 750 l 718 268 q 633 60 718 135 q 396 -14 547 -14 z "},"ฃ":{"ha":801,"x_min":57,"x_max":713,"o":"m 393 -14 q 155 56 236 -14 q 74 258 74 126 l 74 308 q 98 397 74 353 q 153 479 122 440 q 209 551 185 518 q 233 608 233 585 q 206 639 233 639 q 160 618 181 639 l 160 563 l 57 563 l 57 750 l 163 750 l 163 711 q 206 738 182 726 q 268 750 231 750 q 374 643 374 750 q 351 555 374 596 q 299 475 329 514 q 247 397 269 436 q 225 313 225 357 l 225 254 q 269 142 225 178 q 393 107 313 107 q 518 143 475 107 q 561 258 561 179 l 561 750 l 713 750 l 713 268 q 629 60 713 135 q 393 -14 546 -14 z "},"ค":{"ha":854,"x_min":88,"x_max":765,"o":"m 88 0 l 88 475 q 169 688 88 611 q 428 764 251 764 q 685 688 606 764 q 765 475 765 611 l 765 0 l 614 0 l 614 489 q 565 605 614 568 q 428 642 517 642 q 287 605 335 642 q 239 489 239 568 l 239 335 q 385 385 300 385 l 475 385 l 481 264 l 381 264 q 239 217 296 264 l 239 0 l 88 0 z "},"ฅ":{"ha":854,"x_min":88,"x_max":765,"o":"m 88 0 l 88 549 q 133 708 88 651 q 271 764 179 764 q 356 747 315 764 q 426 692 397 731 q 501 747 456 731 q 590 764 547 764 q 727 710 689 764 q 765 547 765 657 l 765 0 l 615 0 l 615 550 q 603 612 615 589 q 551 635 590 635 q 500 619 521 635 q 463 578 479 604 l 390 578 q 362 619 378 604 q 318 635 346 635 q 257 612 276 635 q 238 550 238 589 l 238 335 q 383 385 299 385 l 475 385 l 481 264 l 381 264 q 238 217 297 264 l 238 0 l 88 0 z "},"ฆ":{"ha":835,"x_min":65,"x_max":746,"o":"m 490 -14 q 342 13 406 -14 q 228 82 279 39 l 219 0 l 82 0 l 82 290 q 106 381 82 335 q 162 470 131 428 q 217 549 193 513 q 242 608 242 585 q 214 639 242 639 q 168 618 189 639 l 168 563 l 65 563 l 65 750 l 171 750 l 171 711 q 215 738 190 726 q 276 750 239 750 q 382 643 382 750 q 360 552 382 596 q 308 466 338 508 q 256 381 278 424 q 233 294 233 339 l 233 197 q 324 133 269 158 q 440 107 378 107 q 557 144 518 107 q 596 265 596 181 l 596 750 l 746 750 l 746 258 q 678 57 746 128 q 490 -14 610 -14 z "},"ง":{"ha":783,"x_min":32,"x_max":724,"o":"m 382 -14 q 311 -10 350 -14 q 243 4 272 -6 l 32 518 l 179 518 l 350 101 q 524 170 469 96 q 578 399 578 244 q 561 541 578 489 q 505 615 544 593 q 396 636 465 636 l 343 636 l 343 750 l 415 750 q 650 664 576 750 q 724 400 724 578 q 679 162 724 253 q 558 28 635 71 q 382 -14 481 -14 z "},"จ":{"ha":790,"x_min":60,"x_max":731,"o":"m 386 -14 q 324 -9 360 -14 q 267 4 289 -4 l 156 300 l 60 300 l 67 414 l 251 414 l 367 106 q 478 129 429 103 q 556 217 528 156 q 585 382 585 279 q 559 536 585 479 q 474 617 533 593 q 314 642 415 642 q 196 633 258 642 q 76 606 133 625 l 76 722 q 203 752 132 740 q 354 764 275 764 q 642 665 553 764 q 731 382 731 567 q 683 165 731 253 q 557 31 635 76 q 386 -14 479 -14 z "},"ฉ":{"ha":810,"x_min":60,"x_max":721,"o":"m 310 -14 q 131 51 193 -14 q 69 246 69 117 l 69 417 l 219 417 l 219 260 q 251 143 219 179 q 368 107 283 107 q 481 132 431 107 q 569 199 532 157 l 569 458 q 547 569 569 529 q 472 625 524 608 q 331 642 419 642 q 244 637 293 642 q 147 622 196 632 q 60 600 99 613 l 60 717 q 204 751 121 738 q 369 764 288 764 q 637 688 553 764 q 721 457 721 613 l 721 0 l 583 0 l 575 82 q 464 13 528 40 q 310 -14 400 -14 z "},"ช":{"ha":808,"x_min":58,"x_max":719,"o":"m 396 -14 q 156 60 238 -14 q 75 267 75 133 l 75 340 q 94 422 75 385 q 137 491 113 460 q 180 549 161 522 q 199 600 199 576 q 189 629 199 622 q 154 636 179 636 l 58 636 l 71 750 l 246 750 q 351 649 351 750 q 333 564 351 601 q 288 492 314 526 q 244 420 263 457 q 225 339 225 383 l 225 254 q 270 142 225 178 q 396 107 315 107 q 523 143 478 107 q 568 258 568 179 l 568 350 q 547 441 568 415 q 469 467 526 467 l 431 467 l 438 576 l 465 576 q 546 605 524 576 q 568 693 568 633 l 568 764 l 719 764 l 719 696 q 700 588 719 631 q 619 522 681 546 q 701 453 683 496 q 719 346 719 410 l 719 268 q 633 60 719 135 q 396 -14 547 -14 z "},"ซ":{"ha":808,"x_min":58,"x_max":719,"o":"m 396 -14 q 157 57 239 -14 q 75 257 75 128 l 75 313 q 99 400 75 357 q 155 481 124 443 q 210 552 186 519 q 235 608 235 585 q 207 639 235 639 q 161 618 182 639 l 161 563 l 58 563 l 58 750 l 164 750 l 164 711 q 208 738 183 726 q 269 750 232 750 q 375 643 375 750 q 353 555 375 596 q 301 475 331 514 q 249 397 271 436 q 226 313 226 357 l 226 254 q 271 142 226 178 q 396 107 315 107 q 524 143 478 107 q 569 258 569 179 l 569 350 q 548 441 569 415 q 469 467 526 467 l 431 467 l 438 576 l 465 576 q 547 605 524 576 q 569 693 569 633 l 569 764 l 719 764 l 719 696 q 700 588 719 631 q 621 522 681 546 q 701 453 683 496 q 719 346 719 410 l 719 268 q 634 60 719 135 q 396 -14 549 -14 z "},"ฌ":{"ha":1329,"x_min":60,"x_max":1240,"o":"m 992 -14 q 849 13 908 -14 q 738 82 789 39 l 729 0 l 596 0 l 596 469 q 553 603 596 565 q 410 642 511 642 q 283 622 342 642 q 190 571 225 603 l 190 546 l 349 506 l 349 406 q 272 361 294 392 q 250 269 250 331 l 250 179 q 264 133 250 147 q 308 119 278 119 l 385 119 l 385 0 l 235 0 q 136 39 172 0 q 100 140 100 78 l 100 271 q 124 378 100 332 q 210 443 147 425 l 60 481 l 60 636 q 206 724 115 685 q 415 764 296 764 q 659 695 575 764 q 743 465 743 626 l 743 197 q 831 133 779 158 q 942 107 882 107 q 1055 144 1019 107 q 1090 265 1090 181 l 1090 750 l 1240 750 l 1240 258 q 1176 57 1240 128 q 992 -14 1111 -14 z "},"ญ":{"ha":1347,"x_min":60,"x_max":1258,"o":"m 931 -85 q 786 -71 863 -85 q 651 -25 710 -57 l 651 96 q 741 62 692 75 q 840 42 790 49 q 928 36 889 36 q 1076 58 1025 36 q 1128 117 1128 81 q 1108 163 1128 143 q 1029 131 1075 143 q 925 118 983 118 q 596 424 596 118 l 596 469 q 553 603 596 565 q 410 642 511 642 q 283 622 342 642 q 190 571 225 603 l 190 546 l 349 506 l 349 406 q 272 361 294 392 q 250 269 250 331 l 250 179 q 264 133 250 147 q 308 119 278 119 l 385 119 l 385 0 l 235 0 q 136 39 172 0 q 100 140 100 78 l 100 271 q 124 378 100 332 q 210 443 147 425 l 60 481 l 60 636 q 206 724 115 685 q 415 764 296 764 q 659 695 575 764 q 743 465 743 626 l 743 418 q 787 282 743 325 q 925 239 831 239 q 1063 282 1019 239 q 1107 418 1107 325 l 1107 750 l 1257 750 l 1257 424 q 1206 238 1257 307 q 1244 182 1229 215 q 1258 108 1258 149 q 1173 -35 1258 15 q 931 -85 1088 -85 z "},"ฎ":{"ha":899,"x_min":67,"x_max":810,"o":"m 233 -274 l 233 -153 q 343 -116 285 -129 q 469 -103 401 -103 q 577 -113 528 -103 q 660 -143 626 -124 l 660 469 q 617 603 660 565 q 471 642 574 642 q 340 622 400 642 q 247 571 281 603 l 247 546 l 410 506 l 410 406 q 340 361 357 390 q 324 269 324 332 l 324 169 q 281 40 324 81 q 160 0 239 0 l 67 0 l 67 119 l 118 119 q 159 133 147 119 q 171 178 171 146 l 171 271 q 190 376 171 332 q 269 443 210 421 l 117 481 l 117 636 q 263 724 171 685 q 475 764 354 764 q 723 694 636 764 q 810 465 810 624 l 810 -269 l 660 -269 q 568 -235 617 -246 q 454 -224 519 -224 q 339 -237 397 -224 q 233 -274 281 -250 z "},"ฏ":{"ha":899,"x_min":67,"x_max":810,"o":"m 606 -271 q 514 -253 556 -271 q 450 -207 472 -235 q 404 -252 435 -235 q 324 -269 374 -269 l 189 -269 l 197 -149 l 296 -149 q 359 -135 336 -149 q 397 -89 382 -122 l 496 -89 q 527 -137 507 -119 q 583 -154 547 -154 q 642 -133 625 -154 q 660 -69 660 -112 l 660 469 q 617 603 660 565 q 471 642 574 642 q 340 622 400 642 q 247 571 281 603 l 247 546 l 410 506 l 410 406 q 340 361 357 390 q 324 269 324 332 l 324 169 q 281 40 324 81 q 160 0 239 0 l 67 0 l 67 119 l 118 119 q 159 133 147 119 q 171 178 171 146 l 171 271 q 190 376 171 332 q 269 443 210 421 l 117 481 l 117 636 q 263 724 171 685 q 475 764 354 764 q 723 694 636 764 q 810 465 810 624 l 810 -78 q 755 -220 810 -169 q 606 -271 700 -271 z "},"ฐ":{"ha":839,"x_min":53,"x_max":790,"o":"m 379 -14 q 317 -9 353 -14 q 260 4 282 -4 l 149 300 l 53 300 l 60 414 l 244 414 l 360 106 q 472 129 422 103 q 549 217 521 156 q 578 382 578 279 q 552 536 578 479 q 467 617 526 593 q 307 642 408 642 q 189 633 251 642 q 69 606 126 625 l 69 722 q 197 752 125 740 q 347 764 268 764 q 417 760 385 764 q 481 750 450 757 l 790 750 l 783 632 l 654 632 q 707 523 690 586 q 724 382 724 460 q 676 165 724 253 q 550 31 628 76 q 379 -14 472 -14 m 494 -271 q 403 -253 444 -271 q 339 -207 361 -235 q 293 -252 324 -235 q 213 -269 263 -269 l 78 -269 l 86 -149 l 185 -149 q 248 -135 225 -149 q 286 -89 271 -122 l 385 -89 q 416 -137 396 -119 q 472 -154 436 -154 q 531 -133 514 -154 q 549 -69 549 -112 l 549 -57 l 699 -57 l 699 -78 q 644 -220 699 -169 q 494 -271 589 -271 z "},"ฑ":{"ha":835,"x_min":58,"x_max":746,"o":"m 113 0 l 113 296 q 131 384 113 340 q 174 468 150 428 q 216 544 197 508 q 235 608 235 581 q 207 639 235 639 q 161 618 182 639 l 161 563 l 58 563 l 58 750 l 164 750 l 164 711 q 206 738 183 726 q 267 750 229 750 q 349 708 322 750 q 426 748 381 732 q 521 764 471 764 q 693 699 640 764 q 746 506 746 635 l 746 0 l 596 0 l 596 504 q 573 610 596 578 q 481 642 550 642 q 421 631 454 642 q 368 600 388 619 q 352 526 368 561 q 316 454 336 490 q 280 378 296 418 q 264 290 264 339 l 264 0 l 113 0 z "},"ฒ":{"ha":1374,"x_min":60,"x_max":1285,"o":"m 367 -14 q 210 25 279 -14 q 100 148 140 64 q 60 364 60 232 q 123 661 60 558 q 297 764 186 764 q 388 744 354 764 q 446 692 421 724 q 520 744 475 724 q 614 764 565 764 q 745 710 704 764 q 786 563 786 657 l 786 197 q 874 133 822 158 q 986 107 926 107 q 1098 144 1063 107 q 1133 265 1133 181 l 1133 750 l 1285 750 l 1285 258 q 1220 57 1285 128 q 1036 -14 1156 -14 q 892 13 953 -14 q 781 82 832 39 l 774 0 l 640 0 l 640 540 q 628 617 640 593 q 571 642 615 642 q 520 626 543 642 q 486 578 497 611 l 403 578 q 369 626 386 611 q 318 642 351 642 q 228 565 250 642 q 206 364 206 489 q 254 164 206 221 q 393 107 303 107 q 445 110 419 107 q 489 118 471 113 l 489 3 q 436 -10 465 -6 q 367 -14 407 -14 z "},"ณ":{"ha":1333,"x_min":60,"x_max":1244,"o":"m 844 -14 q 661 57 726 -14 q 596 258 596 128 l 596 469 q 553 603 596 565 q 410 642 511 642 q 283 622 342 642 q 190 571 225 603 l 190 546 l 349 506 l 349 406 q 272 361 294 392 q 250 269 250 331 l 250 179 q 264 133 250 147 q 308 119 278 119 l 385 119 l 385 0 l 235 0 q 136 39 172 0 q 100 140 100 78 l 100 271 q 124 378 100 332 q 210 443 147 425 l 60 481 l 60 636 q 206 724 115 685 q 415 764 296 764 q 659 695 575 764 q 743 465 743 626 l 743 265 q 781 144 743 181 q 894 107 818 107 q 1006 133 956 107 q 1093 197 1057 158 l 1093 750 l 1244 750 l 1244 0 l 1107 0 l 1099 82 q 988 11 1049 36 q 844 -14 928 -14 z "},"ด":{"ha":893,"x_min":60,"x_max":804,"o":"m 367 -14 q 210 25 279 -14 q 100 148 140 64 q 60 364 60 232 q 156 658 60 551 q 443 764 251 764 q 651 720 572 764 q 767 607 731 676 q 804 458 804 538 l 804 0 l 653 0 l 653 451 q 633 550 653 507 q 567 617 614 593 q 440 642 521 642 q 262 571 318 642 q 206 364 206 500 q 254 164 206 221 q 393 107 303 107 q 445 110 419 107 q 489 118 471 113 l 489 3 q 436 -10 465 -6 q 367 -14 407 -14 z "},"ต":{"ha":897,"x_min":60,"x_max":808,"o":"m 367 -14 q 210 25 279 -14 q 100 148 140 64 q 60 364 60 232 q 125 661 60 558 q 307 764 190 764 q 398 744 364 764 q 457 692 432 724 q 533 744 486 724 q 629 764 581 764 q 764 710 719 764 q 808 563 808 657 l 808 0 l 657 0 l 657 540 q 642 617 657 593 q 583 642 628 642 q 532 626 556 642 q 497 578 508 611 l 414 578 q 379 626 397 611 q 328 642 361 642 q 231 565 256 642 q 206 364 206 489 q 254 164 206 221 q 393 107 303 107 q 445 110 419 107 q 489 118 471 113 l 489 3 q 436 -10 465 -6 q 367 -14 407 -14 z "},"ถ":{"ha":851,"x_min":60,"x_max":763,"o":"m 235 0 q 136 39 172 0 q 100 140 100 78 l 100 271 q 124 378 100 332 q 210 443 147 425 l 60 481 l 60 636 q 206 724 115 685 q 419 764 297 764 q 674 695 585 764 q 763 465 763 626 l 763 0 l 611 0 l 611 469 q 566 603 611 565 q 414 642 521 642 q 285 622 344 642 q 190 571 225 603 l 190 546 l 349 506 l 349 406 q 272 361 294 392 q 250 269 250 331 l 250 179 q 264 133 250 147 q 308 119 278 119 l 385 119 l 385 0 l 235 0 z "},"ท":{"ha":840,"x_min":88,"x_max":751,"o":"m 88 0 l 88 750 l 225 750 l 233 668 q 350 738 285 713 q 500 764 415 764 q 685 693 619 764 q 751 494 751 622 l 751 0 l 601 0 l 601 488 q 563 606 601 569 q 446 642 524 642 q 329 616 383 642 q 239 551 275 590 l 239 0 l 88 0 z "},"ธ":{"ha":731,"x_min":60,"x_max":682,"o":"m 376 -14 q 206 3 286 -14 q 74 42 126 19 l 74 324 l 213 324 l 213 132 q 367 107 281 107 q 493 131 449 107 q 538 224 538 156 q 511 301 538 275 q 433 341 485 326 q 307 372 382 356 q 187 407 243 388 q 95 464 131 426 q 60 567 60 501 q 144 715 60 665 q 382 764 228 764 q 531 753 458 764 q 644 728 604 743 l 644 603 q 532 631 599 621 q 403 642 465 642 q 307 637 353 642 q 232 617 261 632 q 203 571 203 603 q 234 517 203 535 q 319 489 265 500 q 439 460 374 478 q 566 416 511 440 q 651 348 621 392 q 682 224 682 304 q 599 46 682 106 q 376 -14 517 -14 z "},"น":{"ha":840,"x_min":88,"x_max":751,"o":"m 343 -14 q 155 57 222 -14 q 88 258 88 128 l 88 750 l 239 750 l 239 265 q 276 144 239 181 q 393 107 314 107 q 510 133 454 107 q 601 197 565 158 l 601 750 l 751 750 l 751 0 l 614 0 l 607 82 q 491 13 556 39 q 343 -14 426 -14 z "},"บ":{"ha":863,"x_min":88,"x_max":774,"o":"m 431 -14 q 178 63 269 -14 q 88 292 88 139 l 88 750 l 239 750 l 239 286 q 288 150 239 193 q 431 107 338 107 q 574 150 525 107 q 624 286 624 193 l 624 750 l 774 750 l 774 292 q 683 63 774 139 q 431 -14 593 -14 z "},"ป":{"ha":863,"x_min":88,"x_max":774,"o":"m 431 -14 q 178 63 269 -14 q 88 292 88 139 l 88 750 l 239 750 l 239 286 q 288 150 239 193 q 431 107 338 107 q 574 150 525 107 q 624 286 624 193 l 624 972 l 774 972 l 774 292 q 683 63 774 139 q 431 -14 593 -14 z "},"ผ":{"ha":894,"x_min":88,"x_max":806,"o":"m 88 0 l 88 610 q 122 710 88 671 q 219 750 156 750 l 363 750 l 369 633 l 297 633 q 248 617 263 633 q 233 565 233 601 l 233 203 l 417 521 l 478 521 l 661 203 l 661 750 l 806 750 l 806 0 l 657 0 l 447 371 l 236 0 l 88 0 z "},"ฝ":{"ha":894,"x_min":88,"x_max":806,"o":"m 88 0 l 88 610 q 122 710 88 671 q 219 750 156 750 l 363 750 l 369 633 l 297 633 q 248 617 263 633 q 233 565 233 601 l 233 203 l 417 521 l 478 521 l 661 203 l 661 972 l 806 972 l 806 0 l 657 0 l 447 371 l 236 0 l 88 0 z "},"พ":{"ha":1008,"x_min":49,"x_max":960,"o":"m 222 0 l 49 750 l 197 750 l 308 214 l 444 643 l 444 750 l 553 750 l 704 214 l 813 750 l 960 750 l 788 0 l 649 0 l 510 478 l 360 0 l 222 0 z "},"ฟ":{"ha":1008,"x_min":49,"x_max":1003,"o":"m 222 0 l 49 750 l 197 750 l 308 214 l 444 643 l 444 750 l 553 750 l 704 214 l 856 972 l 1003 972 l 788 0 l 649 0 l 510 478 l 360 0 l 222 0 z "},"ภ":{"ha":899,"x_min":67,"x_max":810,"o":"m 67 0 l 67 119 l 118 119 q 159 133 147 119 q 171 178 171 146 l 171 271 q 190 376 171 332 q 269 443 210 421 l 117 481 l 117 636 q 263 724 171 685 q 475 764 354 764 q 723 694 636 764 q 810 465 810 624 l 810 0 l 660 0 l 660 469 q 617 603 660 565 q 471 642 574 642 q 340 622 400 642 q 247 571 281 603 l 247 546 l 410 506 l 410 406 q 340 361 357 390 q 324 269 324 332 l 324 169 q 281 40 324 81 q 160 0 239 0 l 67 0 z "},"ม":{"ha":840,"x_min":88,"x_max":751,"o":"m 496 -14 q 348 13 411 -14 q 233 82 285 39 l 225 0 l 88 0 l 88 750 l 239 750 l 239 197 q 329 133 275 158 q 446 107 383 107 q 563 144 524 107 q 601 265 601 181 l 601 750 l 751 750 l 751 258 q 683 57 751 128 q 496 -14 615 -14 z "},"ย":{"ha":829,"x_min":56,"x_max":740,"o":"m 401 -14 q 224 10 301 -14 q 101 85 146 33 q 56 221 56 136 q 82 322 56 278 q 160 390 108 365 q 88 447 117 407 q 60 547 60 488 q 126 709 60 654 q 294 764 192 764 q 364 759 335 764 q 417 746 393 754 l 417 631 q 322 642 376 642 q 236 619 267 642 q 206 547 206 597 q 240 472 206 494 q 336 449 275 449 l 415 449 l 422 336 l 333 336 q 201 221 201 336 q 249 135 201 164 q 394 107 296 107 q 590 267 590 107 l 590 750 l 740 750 l 740 285 q 656 60 740 133 q 401 -14 571 -14 z "},"ร":{"ha":700,"x_min":60,"x_max":639,"o":"m 333 -14 q 191 -4 260 -14 q 78 24 122 6 l 78 150 q 192 118 131 129 q 306 107 254 107 q 447 124 401 107 q 493 197 493 142 q 469 258 493 238 q 400 295 446 279 q 286 333 354 311 q 171 382 222 356 q 90 449 119 408 q 60 550 60 489 q 135 706 60 649 q 361 764 210 764 q 488 754 425 764 q 590 731 550 744 l 590 606 q 488 633 544 624 q 383 642 432 642 q 254 624 303 642 q 206 554 206 607 q 231 499 206 519 q 302 463 256 479 q 414 425 349 447 q 538 373 488 401 q 613 303 588 344 q 639 197 639 263 q 556 37 639 88 q 333 -14 474 -14 z "},"ฤ":{"ha":851,"x_min":60,"x_max":763,"o":"m 611 -222 l 611 469 q 566 603 611 565 q 414 642 521 642 q 285 622 344 642 q 190 571 225 603 l 190 546 l 349 506 l 349 406 q 272 361 294 392 q 250 269 250 331 l 250 179 q 264 133 250 147 q 308 119 278 119 l 385 119 l 385 0 l 235 0 q 136 39 172 0 q 100 140 100 78 l 100 271 q 124 378 100 332 q 210 443 147 425 l 60 481 l 60 636 q 206 724 115 685 q 419 764 297 764 q 674 695 585 764 q 763 465 763 626 l 763 -222 l 611 -222 z "},"ล":{"ha":825,"x_min":64,"x_max":736,"o":"m 319 -14 q 191 9 249 -14 q 99 83 133 32 q 64 215 64 133 q 138 386 64 325 q 356 447 213 447 l 585 447 l 585 494 q 544 609 585 576 q 392 642 503 642 q 266 633 326 642 q 147 606 206 625 l 147 722 q 273 752 201 740 q 417 764 344 764 q 658 695 581 764 q 736 481 736 626 l 736 0 l 585 0 l 585 331 l 365 331 q 248 305 288 331 q 208 215 208 279 q 244 131 208 154 q 360 107 279 107 q 456 118 415 107 l 456 3 q 394 -9 429 -4 q 319 -14 360 -14 z "},"ฦ":{"ha":899,"x_min":67,"x_max":810,"o":"m 660 -222 l 660 469 q 617 603 660 565 q 471 642 574 642 q 340 622 400 642 q 247 571 281 603 l 247 546 l 410 506 l 410 406 q 340 361 357 390 q 324 269 324 332 l 324 169 q 281 40 324 81 q 160 0 239 0 l 67 0 l 67 119 l 118 119 q 159 133 147 119 q 171 178 171 146 l 171 271 q 190 376 171 332 q 269 443 210 421 l 117 481 l 117 636 q 263 724 171 685 q 475 764 354 764 q 723 694 636 764 q 810 465 810 624 l 810 -222 l 660 -222 z "},"ว":{"ha":690,"x_min":49,"x_max":638,"o":"m 274 -14 q 49 28 144 -14 l 49 147 q 140 118 90 129 q 238 107 189 107 q 388 133 332 107 q 467 219 443 160 q 492 375 492 278 q 433 581 492 519 q 236 642 374 642 q 139 631 186 642 q 49 601 92 621 l 49 722 q 151 753 96 742 q 269 764 206 764 q 547 665 456 764 q 638 375 638 565 q 551 86 638 186 q 274 -14 464 -14 z "},"ศ":{"ha":883,"x_min":88,"x_max":835,"o":"m 88 0 l 88 475 q 169 688 88 611 q 428 764 251 764 q 497 760 464 764 q 558 750 531 757 l 835 750 l 828 632 l 724 632 q 757 560 749 599 q 765 475 765 521 l 765 0 l 614 0 l 614 489 q 565 605 614 568 q 428 642 517 642 q 287 605 335 642 q 239 489 239 568 l 239 335 q 385 385 300 385 l 475 385 l 481 264 l 381 264 q 239 217 296 264 l 239 0 l 88 0 z "},"ษ":{"ha":882,"x_min":88,"x_max":856,"o":"m 431 -14 q 178 63 268 -14 q 88 292 88 139 l 88 750 l 238 750 l 238 286 q 287 150 238 193 q 431 107 336 107 q 574 150 525 107 q 622 286 622 193 l 622 385 l 443 385 l 443 500 l 622 500 l 622 750 l 774 750 l 774 500 l 856 500 l 844 385 l 774 385 l 774 292 q 683 63 774 139 q 431 -14 592 -14 z "},"ส":{"ha":846,"x_min":64,"x_max":797,"o":"m 319 -14 q 190 9 249 -14 q 98 83 132 32 q 64 215 64 133 q 138 386 64 325 q 356 447 211 447 l 585 447 l 585 494 q 543 609 585 576 q 390 642 501 642 q 265 633 326 642 q 146 606 204 625 l 146 722 q 272 752 200 740 q 417 764 344 764 q 485 760 453 764 q 546 750 518 757 l 797 750 l 789 632 l 701 632 q 728 563 721 601 q 735 481 735 525 l 735 0 l 585 0 l 585 331 l 364 331 q 248 305 288 331 q 208 215 208 279 q 244 131 208 154 q 360 107 279 107 q 410 110 385 107 q 454 118 436 113 l 454 3 q 394 -9 429 -4 q 319 -14 360 -14 z "},"ห":{"ha":839,"x_min":88,"x_max":750,"o":"m 88 0 l 88 750 l 239 750 l 239 514 l 456 514 q 569 549 538 514 q 600 653 600 585 l 600 750 l 750 750 l 750 657 q 726 535 750 588 q 638 458 701 482 q 722 388 701 436 q 743 276 743 340 l 743 0 l 593 0 l 593 258 q 563 369 593 339 q 450 399 532 399 l 239 399 l 239 0 l 88 0 z "},"ฬ":{"ha":1008,"x_min":49,"x_max":1001,"o":"m 222 0 l 49 750 l 197 750 l 310 214 l 444 588 l 444 694 l 551 694 l 701 214 l 788 606 q 784 699 801 672 q 718 725 767 725 l 663 725 l 681 838 l 742 838 q 820 856 794 838 q 856 922 846 875 l 867 972 l 1001 972 l 988 904 q 950 817 976 846 q 879 778 924 788 q 924 615 951 739 l 786 0 l 649 0 l 510 433 l 360 0 l 222 0 z "},"อ":{"ha":799,"x_min":69,"x_max":739,"o":"m 368 -14 q 201 3 279 -14 q 69 42 122 19 l 69 428 l 367 428 l 374 313 l 215 313 l 215 131 q 288 113 247 119 q 368 107 329 107 q 542 166 492 107 q 593 372 593 225 q 568 534 593 475 q 485 617 543 593 q 329 642 428 642 q 204 633 269 642 q 81 606 139 625 l 81 722 q 215 753 139 742 q 367 764 290 764 q 651 665 564 764 q 739 372 739 565 q 651 85 739 183 q 368 -14 564 -14 z "},"ฮ":{"ha":838,"x_min":69,"x_max":789,"o":"m 368 -14 q 201 3 279 -14 q 69 42 122 19 l 69 428 l 367 428 l 374 313 l 215 313 l 215 131 q 288 113 247 119 q 368 107 329 107 q 542 166 492 107 q 593 372 593 225 q 568 534 593 475 q 485 617 543 593 q 329 642 428 642 q 204 633 269 642 q 81 606 139 625 l 81 722 q 215 753 139 742 q 367 764 290 764 q 435 760 403 764 q 497 750 468 757 l 789 750 l 782 632 l 671 632 q 723 519 707 585 q 739 372 739 454 q 651 85 739 183 q 368 -14 564 -14 z "},"ะ":{"ha":450,"x_min":60,"x_max":393,"o":"m 60 460 l 60 640 l 189 640 l 189 572 l 393 572 l 388 460 l 60 460 m 60 82 l 60 263 l 189 263 l 189 193 l 393 193 l 388 82 l 60 82 z "},"า":{"ha":611,"x_min":18,"x_max":522,"o":"m 371 0 l 371 472 q 358 567 371 529 q 311 623 346 604 q 208 642 276 642 q 112 632 164 642 q 18 606 60 622 l 18 722 q 119 752 60 740 q 238 764 178 764 q 455 699 388 764 q 522 492 522 633 l 522 0 l 371 0 z "},"ำ":{"ha":611,"x_min":-322,"x_max":522,"o":"m -165 831 q -276 874 -231 831 q -322 981 -322 917 q -276 1089 -322 1046 q -165 1132 -231 1132 q -55 1089 -100 1132 q -10 981 -10 1046 q -55 874 -10 917 q -165 831 -100 831 m -165 917 q -120 936 -139 917 q -101 981 -101 956 q -120 1028 -101 1008 q -165 1047 -139 1047 q -212 1028 -192 1047 q -232 981 -232 1008 q -212 936 -232 956 q -165 917 -192 917 m 371 0 l 371 472 q 358 567 371 529 q 311 623 346 604 q 208 642 276 642 q 112 632 164 642 q 18 606 60 622 l 18 722 q 119 752 60 740 q 238 764 178 764 q 455 699 388 764 q 522 492 522 633 l 522 0 l 371 0 z "},"เ":{"ha":426,"x_min":90,"x_max":365,"o":"m 236 0 q 125 38 160 0 q 90 144 90 75 l 90 750 l 240 750 l 240 182 q 301 119 240 119 l 365 119 l 365 0 l 236 0 z "},"แ":{"ha":753,"x_min":88,"x_max":693,"o":"m 571 0 q 460 38 494 0 q 425 144 425 75 l 425 750 l 575 750 l 575 182 q 636 119 575 119 l 693 119 l 693 0 l 571 0 m 233 0 q 123 38 158 0 q 88 144 88 75 l 88 750 l 239 750 l 239 182 q 300 119 239 119 l 356 119 l 356 0 l 233 0 z "},"โ":{"ha":438,"x_min":-3,"x_max":424,"o":"m 286 0 q 169 48 197 0 q 140 176 140 96 l 140 781 q 106 916 140 871 q -3 988 71 961 l -3 1103 l 424 1103 l 424 983 l 188 983 q 267 903 243 953 q 290 767 290 854 l 290 182 q 302 133 290 146 q 351 119 314 119 l 415 119 l 415 0 l 286 0 z "},"ใ":{"ha":408,"x_min":-10,"x_max":389,"o":"m 215 0 q 104 38 139 0 q 69 144 69 75 l 69 604 q 94 721 69 674 q 151 801 119 768 q 208 860 183 833 q 233 918 233 888 q 210 972 233 958 q 142 986 188 986 q -10 944 67 986 l -10 1056 q 87 1094 32 1081 q 193 1107 142 1107 q 340 1065 292 1107 q 389 947 389 1024 q 372 870 389 903 q 329 810 354 838 q 279 753 304 782 q 237 688 254 724 q 219 600 219 651 l 219 182 q 231 133 219 146 q 281 119 243 119 l 344 119 l 344 0 l 215 0 z "},"ไ":{"ha":418,"x_min":-17,"x_max":399,"o":"m 256 0 q 144 38 179 0 q 110 144 110 75 l 110 763 q 139 899 110 844 q 215 983 168 953 l -17 983 l -17 1103 l 399 1103 l 399 989 q 291 899 322 958 q 260 740 260 840 l 260 182 q 272 133 260 146 q 321 119 283 119 l 385 119 l 385 0 l 256 0 z "},"ๅ":{"ha":611,"x_min":18,"x_max":522,"o":"m 371 -222 l 371 472 q 358 567 371 529 q 311 623 346 604 q 208 642 276 642 q 112 632 164 642 q 18 606 60 622 l 18 722 q 119 752 60 740 q 238 764 178 764 q 455 699 388 764 q 522 492 522 633 l 522 -222 l 371 -222 z "},"ℊ":{"ha":810,"x_min":60,"x_max":721,"o":"m 369 -244 q 313 -242 347 -244 q 248 -237 279 -240 q 197 -231 217 -235 l 197 -110 q 272 -124 228 -119 q 344 -128 315 -128 q 508 -97 446 -128 q 569 6 569 -67 l 569 56 q 365 0 488 0 q 142 73 224 0 q 60 315 60 146 q 99 508 60 429 q 206 630 138 588 q 361 672 275 672 q 485 653 433 672 q 582 593 538 633 l 592 658 l 721 658 l 721 29 q 633 -168 721 -92 q 369 -244 544 -244 m 404 114 q 498 130 457 114 q 569 172 539 146 l 569 488 q 401 557 501 557 q 260 494 308 557 q 213 317 213 431 q 233 192 213 236 q 297 131 254 147 q 404 114 340 114 z "}}}
